<svg xmlns="http://www.w3.org/2000/svg" width="64.572" height="64.519" viewBox="0 0 64.572 64.519">
  <g id="Group_21426" data-name="Group 21426" transform="matrix(-0.755, -0.656, 0.656, -0.755, 58.876, 84.903)">
    <path id="Path_7533" data-name="Path 7533" d="M52.968,50.572a2.243,2.243,0,0,1-.839-.168,2.184,2.184,0,0,1-1.342-2.024V40.1a.1.1,0,0,0-.1-.089H31.97a2.19,2.19,0,0,1-2.18-2.18v-20a2.19,2.19,0,0,1,2.18-2.18H50.687a.1.1,0,0,0,.1-.1V7.28A2.182,2.182,0,0,1,54.51,5.726L75.162,26.288a2.16,2.16,0,0,1,0,3.086L54.511,49.935a2.2,2.2,0,0,1-1.543.637Zm-21-32.827a.1.1,0,0,0-.089.089V37.826a.1.1,0,0,0,.089.089H50.687a2.193,2.193,0,0,1,2.191,2.18V48.38a.078.078,0,0,0,.056.089c.056.022.089,0,.1-.022L73.7,27.9l.022-.067-.022-.067L53.035,7.213a.065.065,0,0,0-.1-.022.078.078,0,0,0-.056.089v8.274a2.195,2.195,0,0,1-2.191,2.191Z" transform="translate(1.805 -5.544)" fill="#fff"/>
  </g>
</svg>
