<svg xmlns="http://www.w3.org/2000/svg" width="42.545" height="51.055" viewBox="0 0 42.545 51.055">
  <path id="iconmonstr-cursor-31" d="M37.176,16.071c-2.527-.536-9.8-1.923-11.776-2.314V6.286a6.382,6.382,0,0,0-12.763,0V22.149a10.7,10.7,0,0,0-3.91-1.521C4.851,20.071,2,22.628,2,25.942a6.9,6.9,0,0,0,2.174,4.831c8.449,8.449,12.1,10.9,12.889,20.281h21.1V47.335c0-10.964,6.382-12.829,6.382-21.334C44.545,20.794,42.288,17.158,37.176,16.071Zm.759,17.065A26.512,26.512,0,0,0,33.913,46.8H20.873c-1.544-8.126-8.1-13.44-13.691-19.037-1.464-1.459-.836-2.914.94-2.921,2.687-.013,6.509,4.008,8.769,6.818V6.286a2.13,2.13,0,0,1,4.254,0v14.78a1.215,1.215,0,1,0,2.429,0V19.843a1.808,1.808,0,0,1,3.616,0v2.708a1.215,1.215,0,0,0,2.429,0V20.785a1.8,1.8,0,0,1,3.6,0v3.261a1.215,1.215,0,1,0,2.429,0v-1.94a1.521,1.521,0,0,1,2.166-1.374c1.372.649,2.48,1.983,2.48,5.269,0,2.882-.989,4.665-2.355,7.135Z" transform="translate(-2)" fill="#fff"/>
</svg>
