<svg xmlns="http://www.w3.org/2000/svg" xmlns:xlink="http://www.w3.org/1999/xlink" width="991" height="175" viewBox="0 0 991 175">
  <defs>
    <clipPath id="clip-path">
      <rect id="사각형_492" data-name="사각형 492" width="991" height="175" transform="translate(466 2364)" fill="#fff" stroke="#707070" stroke-width="1"/>
    </clipPath>
    <clipPath id="clip-path-2">
      <path id="패스_680" data-name="패스 680" d="M-25.98-60.627S77.932-59.686,115.544-10.5,152.831,113.2,246.086,117,410.8,126.153,425.848,200.35s71.464,38.909,94.032,39.082,23.2,58.209,49.091,46.764-22.511-63.912,21.127-87.168,71.8,60.715,114.569,61.129,5.866-39.873,46.885-59.914,160.173,12.891,204.971-13.185,40.722-87,103.88-123.8,155.31-54.319,155.31-54.319,56.064,37.44,52.479,129.687-37.435,113.755-52.479,123.094-133.585,30.438-225.705,14.647-152.3-29.36-142.9-1.61,53.028,27.073,36.857,57.115-88.194,17.115-107.661,14.842-60.295-27.02-85.288-.282-139.167,45.167-197.467,4.99-41.373-78.032-126-65.22S270.645,300,257.035,256.7s-9.847-93.788-83.191-50.2S52.664,351.541,13.342,331.39-25.98,360.161-25.98,360.161-57.5,165.573-59.367,88.149-25.98-60.627-25.98-60.627Z" transform="translate(305.541 2178.924)" fill="#ffa6c4"/>
    </clipPath>
  </defs>
  <g id="그룹_11916" data-name="그룹 11916" transform="translate(-466 -2364)">
    <g id="마스크_그룹_2062" data-name="마스크 그룹 2062" clip-path="url(#clip-path)">
      <g id="그룹_11917" data-name="그룹 11917">
        <g id="그룹_3078" data-name="그룹 3078" transform="translate(472.999 2364.766)" style="isolation: isolate">
          <g id="그룹_11919" data-name="그룹 11919">
            <g id="그룹_11920" data-name="그룹 11920">
              <path id="패스_2166" data-name="패스 2166" d="M157.06,126.916l36.621,69.6,36.394-69.6h34.572l-55.727,99.853v66.873H178.442V226.769l-55.955-99.853Z" transform="translate(-122.486 -123.958)" fill="#ff3478"/>
              <path id="패스_2167" data-name="패스 2167" d="M310.567,204.944h63.006v29.342H310.567Z" transform="translate(-142.25 -132.158)" fill="#ff3478"/>
              <path id="패스_2168" data-name="패스 2168" d="M439.954,126.889l33.436,107.36,32.3-107.36h32.3L571.2,234.249l32.3-107.36h32.3l-53,166.726H561.189l-39.123-117.14-37.3,117.14H463.155l-55.5-166.954Z" transform="translate(-152.452 -123.932)" fill="#ff3478"/>
              <path id="패스_2169" data-name="패스 2169" d="M845.926,209.818a86.206,86.206,0,1,1-86.207-86.207A86.153,86.153,0,0,1,845.926,209.818Zm-138.294,0c0,29.8,22.062,54.135,52.087,54.135s52.316-24.338,52.316-54.135c0-30.024-22.291-54.363-52.316-54.363S707.633,179.793,707.633,209.818Z" transform="translate(-180.389 -123.611)" fill="#ff3478"/>
              <path id="패스_2170" data-name="패스 2170" d="M986.008,293.9l-34.119-60.959h-25.02V293.9H896.162V127.169h51.406c10.917,0,23.427,0,33.436,4.55,18.879,8.643,27.75,25.93,27.75,46.4,0,18.651-9.1,36.847-26.386,45.264l39.35,70.511ZM949.387,156.739H926.869v46.4h26.612c14.784,0,23.428-8.643,23.428-23.655C976.91,161.288,965.764,156.739,949.387,156.739Z" transform="translate(-203.786 -123.985)" fill="#ff3478"/>
              <path id="패스_2171" data-name="패스 2171" d="M1066.958,126.916h30.934v68.919l56.637-68.919h38.895l-65.735,80.747v.456l67.783,85.524h-39.35L1097.892,220.4v73.242h-30.934Z" transform="translate(-221.733 -123.958)" fill="#ff3478"/>
            </g>
          </g>
        </g>
        <g id="마스크_그룹_2063" data-name="마스크 그룹 2063" clip-path="url(#clip-path-2)">
          <g id="그룹_11921" data-name="그룹 11921" transform="translate(472.999 2364.766)">
            <path id="패스_2166-2" data-name="패스 2166" d="M157.06,126.916l36.621,69.6,36.394-69.6h34.572l-55.727,99.853v66.873H178.442V226.769l-55.955-99.853Z" transform="translate(-122.486 -123.958)" fill="#ffa6c4"/>
            <path id="패스_2167-2" data-name="패스 2167" d="M310.567,204.944h63.006v29.342H310.567Z" transform="translate(-142.25 -132.158)" fill="#ffa6c4"/>
            <path id="패스_2168-2" data-name="패스 2168" d="M439.954,126.889l33.436,107.36,32.3-107.36h32.3L571.2,234.249l32.3-107.36h32.3l-53,166.726H561.189l-39.123-117.14-37.3,117.14H463.155l-55.5-166.954Z" transform="translate(-152.452 -123.932)" fill="#ffa6c4"/>
            <path id="패스_2169-2" data-name="패스 2169" d="M845.926,209.818a86.206,86.206,0,1,1-86.207-86.207A86.153,86.153,0,0,1,845.926,209.818Zm-138.294,0c0,29.8,22.062,54.135,52.087,54.135s52.316-24.338,52.316-54.135c0-30.024-22.291-54.363-52.316-54.363S707.633,179.793,707.633,209.818Z" transform="translate(-180.389 -123.611)" fill="#ffa6c4"/>
            <path id="패스_2170-2" data-name="패스 2170" d="M986.008,293.9l-34.119-60.959h-25.02V293.9H896.162V127.169h51.406c10.917,0,23.427,0,33.436,4.55,18.879,8.643,27.75,25.93,27.75,46.4,0,18.651-9.1,36.847-26.386,45.264l39.35,70.511ZM949.387,156.739H926.869v46.4h26.612c14.784,0,23.428-8.643,23.428-23.655C976.91,161.288,965.764,156.739,949.387,156.739Z" transform="translate(-203.786 -123.985)" fill="#ffa6c4"/>
            <path id="패스_2171-2" data-name="패스 2171" d="M1066.958,126.916h30.934v68.919l56.637-68.919h38.895l-65.735,80.747v.456l67.783,85.524h-39.35L1097.892,220.4v73.242h-30.934Z" transform="translate(-221.733 -123.958)" fill="#ffa6c4"/>
          </g>
        </g>
      </g>
    </g>
  </g>
</svg>
