<svg xmlns="http://www.w3.org/2000/svg" width="187.473" height="353.485" viewBox="0 0 187.473 353.485">
  <g id="그룹_11640" data-name="그룹 11640" transform="translate(327.868 -1102.762)">
    <g id="그룹_11602" data-name="그룹 11602">
      <path id="패스_6353" data-name="패스 6353" d="M-235.381,1192.723l-68.44,33.358c10.352,89.145,18.7,128.829,18.127,158.736h101.431c-.576-29.907,6.97-69.591,17.323-158.736Z" fill="#ff3478"/>
    </g>
    <g id="그룹_11603" data-name="그룹 11603">
      <path id="패스_6354" data-name="패스 6354" d="M-173.978,1283.375c-7.425,7.849-13.026,21.642-22.029,27.691-27.054,18.177-39.679,7.775-53.889,29.759-1.455,4.558-26.005,16.086-37.035,18.018a227.751,227.751,0,0,1,1.237,25.974h101.431C-184.7,1362.252-180.508,1334.116-173.978,1283.375Z" fill="#ff3478"/>
    </g>
    <g id="그룹_11604" data-name="그룹 11604">
      <path id="패스_6355" data-name="패스 6355" d="M-235.381,1192.723l-24.534,11.958s.7,20.257,24.631,19.252c23.707-1,23.625-19.648,23.625-19.648Z" fill="#ffccc5"/>
    </g>
    <g id="그룹_11605" data-name="그룹 11605">
      <path id="패스_6356" data-name="패스 6356" d="M-255.931,1210.662h41.1c-2.067-13.709-2.431-28.579-1.6-44.97l-18.952.892-18.952-.892C-253.5,1182.083-253.864,1196.953-255.931,1210.662Z" fill="#ffccc5"/>
    </g>
    <g id="그룹_11606" data-name="그룹 11606">
      <path id="패스_6357" data-name="패스 6357" d="M-235.381,1175.72c-8.791,0-17.583,1.881-17.827,5.643,2.865,7.434,10.795,15.485,17.827,15.12,7.032.365,14.962-7.686,17.828-15.12C-217.8,1177.6-226.589,1175.72-235.381,1175.72Z" fill="#f28686"/>
    </g>
    <g id="그룹_11607" data-name="그룹 11607">
      <path id="패스_6358" data-name="패스 6358" d="M-235.381,1192.681c-6.528-.547-16.966-7.147-20.69-12.994-2.495-3.917-5.672-12.932-7.3-23.389-1.344-8.631-4.918-28.465.47-34.891,8.777-10.469,23.878-11.741,27.521-11.872,3.644.131,18.744,1.4,27.522,11.872,5.388,6.426,1.814,26.26.469,34.891-1.628,10.457-4.805,19.472-7.3,23.389C-218.414,1185.534-228.852,1192.134-235.381,1192.681Z" fill="#ffccc5"/>
    </g>
    <g id="그룹_11608" data-name="그룹 11608">
      <path id="패스_6359" data-name="패스 6359" d="M-235.381,1108.385c-3.643.131-19.171.561-28.1,13.022-4.386,6.123-1.874,22.361-.363,31.934.184,1.162,2.291,3.149,2.291,3.149-1.238-7.662.192-11.694,2.2-16.391l-.047-8.027a7.789,7.789,0,0,1,7.789-7.789c5.439.863,10.473,2.439,16.222,2.283,5.749.156,10.784-1.42,16.222-2.283a7.79,7.79,0,0,1,7.79,7.789l-.048,8.027c2.013,4.7,3.442,8.729,2.205,16.391,0,0,2.107-1.987,2.29-3.149,1.511-9.573,4.024-25.811-.362-31.934C-216.21,1108.946-231.737,1108.516-235.381,1108.385Z" fill="#111829"/>
    </g>
    <g id="그룹_11609" data-name="그룹 11609">
      <path id="패스_6360" data-name="패스 6360" d="M-247.183,1154.356c.164,1.473-.578,2.765-1.656,2.885s-2.086-.978-2.25-2.451.578-2.765,1.657-2.884S-247.347,1152.883-247.183,1154.356Z" fill="#39324d"/>
    </g>
    <g id="그룹_11610" data-name="그룹 11610">
      <path id="패스_6361" data-name="패스 6361" d="M-223.579,1154.356c-.163,1.473.578,2.765,1.657,2.885s2.086-.978,2.249-2.451-.577-2.765-1.656-2.884S-223.415,1152.883-223.579,1154.356Z" fill="#39324d"/>
    </g>
    <g id="그룹_11611" data-name="그룹 11611">
      <path id="패스_6362" data-name="패스 6362" d="M-253.8,1146.108a.8.8,0,0,1-.539-.42.8.8,0,0,1,.354-1.081,12.612,12.612,0,0,1,10.37.227.805.805,0,0,1,.406,1.063.873.873,0,0,1-1.063.406,21.576,21.576,0,0,0-8.986-.261A.8.8,0,0,1-253.8,1146.108Z" fill="#39324d"/>
    </g>
    <g id="그룹_11612" data-name="그룹 11612">
      <path id="패스_6363" data-name="패스 6363" d="M-216.608,1146.108a.8.8,0,0,0,.539-.42.8.8,0,0,0-.354-1.081,12.612,12.612,0,0,0-10.37.227.805.805,0,0,0-.406,1.063.873.873,0,0,0,1.063.406,21.576,21.576,0,0,1,8.986-.261A.8.8,0,0,0-216.608,1146.108Z" fill="#39324d"/>
    </g>
    <g id="그룹_11613" data-name="그룹 11613">
      <path id="패스_6364" data-name="패스 6364" d="M-235.381,1169.4a.4.4,0,0,1-.18-.043,4.041,4.041,0,0,0-.455-.141c-.954-.265-2.939-.815-3.12-2.623a11.212,11.212,0,0,1,.811-4.124,15.511,15.511,0,0,0,1.009-5.011c-.027-.933-.136-3.807-.177-4.869a.4.4,0,0,1,.387-.414h0a.4.4,0,0,1,.417.384c.041,1.063.15,3.942.177,4.876a16.333,16.333,0,0,1-1.047,5.278,10.77,10.77,0,0,0-.776,3.8c.116,1.163,1.369,1.6,2.534,1.928a3.689,3.689,0,0,1,.6.2.4.4,0,0,1,.179.54A.4.4,0,0,1-235.381,1169.4Z" fill="#39324d"/>
    </g>
    <g id="그룹_11620" data-name="그룹 11620">
      <path id="패스_6365" data-name="패스 6365" d="M-145.617,1310.462c2.471,17.52,5.1,40.071,2.781,43.215-5.575,7.554-20.681,15.458-24.255,5.155-3.9-11.241-7.035-27.248-9.374-41.957Z" fill="#ffccc5"/>
      <g id="그룹_11614" data-name="그룹 11614">
        <path id="패스_6366" data-name="패스 6366" d="M-143.363,1338.144c4.022,7.842,1.237,20.287-7.038,36.8-9.086,18.129-19.193,23.234-27.547,43.231-2.545,2.889-18.966,3.656-16.488-1.407,11.182-27.63,13.846-56.1,27.145-74.8C-158.829,1330.065-145.351,1334.267-143.363,1338.144Z" fill="#ffccc5"/>
      </g>
      <g id="그룹_11615" data-name="그룹 11615">
        <path id="패스_6367" data-name="패스 6367" d="M-178.35,1414.553s9.45,15.684,9.652,17.7a41.866,41.866,0,0,1,0,9.249c-.559,3.33-2.136,5.073-3.218,7.139a10.943,10.943,0,0,1-2.161,2.111s-2.292,3.985-3.469,3.871c-2.061-.2-1.888-3.03-1.888-3.03s-2.117,4.815-4.144,4.655c-2.547-.2-2.346-3.552-2.346-3.552-2.748,5.027-4.861,3.535-5.161.268-.3-3.325.67-12.467.67-12.467a69.319,69.319,0,0,0-4.122-13.372l-7.306-7.909c1.794-1.686,8.747-6.032,13.942-11.327Z" fill="#ffccc5"/>
      </g>
      <g id="그룹_11616" data-name="그룹 11616">
        <path id="패스_6368" data-name="패스 6368" d="M-201.407,1418.809c-2.111,1.408-4.29,7.675-4.29,7.675l.051,8.579s1.055,8.043,2.061,8.345,5.328-2.514,3.72-9.3a7.344,7.344,0,0,1,2.061-6.535c1.377-1.067,7.088-1.207,7.088-1.207S-199.3,1417.4-201.407,1418.809Z" fill="#ffccc5"/>
      </g>
      <g id="그룹_11617" data-name="그룹 11617">
        <path id="패스_6369" data-name="패스 6369" d="M-186.192,1453.361a.4.4,0,0,0,.366-.236c1-2.2,2.247-8.653,2.644-10.956.511-2.963-1.816-12.718-1.915-13.132a.4.4,0,0,0-.485-.3.4.4,0,0,0-.3.485c.023.1,2.387,10.006,1.9,12.807-.567,3.287-1.723,8.866-2.584,10.76a.4.4,0,0,0,.2.533A.411.411,0,0,0-186.192,1453.361Z" fill="#39324d"/>
      </g>
      <g id="그룹_11618" data-name="그룹 11618">
        <path id="패스_6370" data-name="패스 6370" d="M-179.434,1451.99a.4.4,0,0,0,.39-.306c.082-.332,2-8.153,2.1-10.976s-1.159-9.748-1.213-10.04a.4.4,0,0,0-.468-.324.4.4,0,0,0-.323.468c.013.071,1.3,7.128,1.2,9.867s-2.058,10.732-2.078,10.812a.4.4,0,0,0,.295.487A.4.4,0,0,0-179.434,1451.99Z" fill="#39324d"/>
      </g>
      <g id="그룹_11619" data-name="그룹 11619">
        <path id="패스_6371" data-name="패스 6371" d="M-174.077,1451.149a.4.4,0,0,0,.388-.3c.08-.293,1.973-7.215,2.175-10.436a35.63,35.63,0,0,0-.509-7.235.4.4,0,0,0-.467-.325.4.4,0,0,0-.324.467,35.521,35.521,0,0,1,.5,7.042c-.2,3.139-2.129,10.2-2.148,10.274a.4.4,0,0,0,.281.495A.442.442,0,0,0-174.077,1451.149Z" fill="#39324d"/>
      </g>
    </g>
    <g id="그룹_11621" data-name="그룹 11621">
      <path id="패스_6372" data-name="패스 6372" d="M-261.357,1155.34s-4.558-10.1-8.33-4.937c-2.694,3.691,5.454,20.178,9.859,17.446C-258.326,1165.165-261.357,1155.34-261.357,1155.34Z" fill="#ffccc5"/>
    </g>
    <g id="그룹_11622" data-name="그룹 11622">
      <path id="패스_6373" data-name="패스 6373" d="M-262.508,1160.439a.4.4,0,0,1-.4-.332c-.543-3.076-3.944-5.865-3.979-5.892a.4.4,0,0,1-.059-.566.4.4,0,0,1,.566-.059c.149.121,3.67,3.009,4.264,6.377a.4.4,0,0,1-.326.466A.411.411,0,0,1-262.508,1160.439Z" fill="#39324d"/>
    </g>
    <g id="그룹_11623" data-name="그룹 11623">
      <path id="패스_6374" data-name="패스 6374" d="M-209.4,1155.34s4.558-10.1,8.33-4.937c2.693,3.691-5.454,20.178-9.859,17.446C-212.436,1165.165-209.4,1155.34-209.4,1155.34Z" fill="#ffccc5"/>
    </g>
    <g id="그룹_11624" data-name="그룹 11624">
      <path id="패스_6375" data-name="패스 6375" d="M-208.253,1160.439a.431.431,0,0,1-.071-.006.4.4,0,0,1-.326-.466c.59-3.339,3.706-6.68,3.838-6.821a.4.4,0,0,1,.568-.017.4.4,0,0,1,.018.568c-.031.033-3.085,3.309-3.632,6.41A.4.4,0,0,1-208.253,1160.439Z" fill="#39324d"/>
    </g>
    <path id="사각형_424" data-name="사각형 424" d="M1.177,0H14.612a1.177,1.177,0,0,1,1.177,1.177v.592A7.091,7.091,0,0,1,8.7,8.861H7.091A7.091,7.091,0,0,1,0,1.769V1.177A1.177,1.177,0,0,1,1.177,0Z" transform="translate(-243.275 1172.593)" fill="#b54764"/>
    <path id="패스_6376" data-name="패스 6376" d="M-251.758,1121.762a26.065,26.065,0,0,0,12.6,18.319l3.368,1.787s-3.765-4.915-3.368-6.51a19.332,19.332,0,0,0,10.333,6.51c7.064,1.894,16.085,1.752,16.085,1.752l-5.021-2.858,9.745,2.858,2.313,1.359s3.942-14.217,1.942-19.217-8-20-21-20-21.756,1.152-24.378,5.076S-251.758,1121.762-251.758,1121.762Z" fill="#111829"/>
    <path id="패스_6377" data-name="패스 6377" d="M-250.4,1125.371s.738,7.625-2.812,11.008a8.587,8.587,0,0,0,0-3.942s-5.593,11.665-9.571,16.495l-1.185,2.176a41.294,41.294,0,0,1-3.794-20.346c1-11,10.2-21.527,20.6-21.764S-250.4,1125.371-250.4,1125.371Z" fill="#111829"/>
    <path id="패스_6378" data-name="패스 6378" d="M-247.16,1109s2.4-6.236,13.4-6.236,29.995,5.713,30.5,25.356-38.5-4.356-38.5-4.356Z" fill="#111829"/>
    <path id="패스_6379" data-name="패스 6379" d="M-253.208,1132.437s-2.855,10.478-6.2,13.9c0,0,1.339-3.175-.505-4.876s-2.191-9.026-2.191-9.026Z" fill="#111829"/>
    <path id="패스_6380" data-name="패스 6380" d="M-247.16,1109s-5.6-2.236-11.6,2.764-11.275,16.064-9.137,26.532,2.113,11.136,2.113,11.136l2.619,2.746,1.057-17.457Z" fill="#111829"/>
    <g id="그룹_11625" data-name="그룹 11625">
      <path id="패스_6381" data-name="패스 6381" d="M-179.092,1319.087c-2.089-16.9-2.181-35.567-2.49-37.482-5.122-31.829,9.43-57.806,9.43-57.806s16.468,2.227,23.321,25.615c3.989,13.614,6.754,47.694,8.436,61.627Z" fill="#ff3478"/>
    </g>
    <g id="그룹_11626" data-name="그룹 11626">
      <path id="패스_6382" data-name="패스 6382" d="M-178.044,1318.439a.4.4,0,0,0,.4-.378l4.021-67.026a.4.4,0,0,0-.377-.425.4.4,0,0,0-.425.377l-4.022,67.025a.4.4,0,0,0,.377.426Z" fill="#39324d"/>
    </g>
    <g id="그룹_11637" data-name="그룹 11637">
      <g id="그룹_11635" data-name="그룹 11635">
        <path id="패스_6383" data-name="패스 6383" d="M-321.032,1276.153l1.525.676a7.374,7.374,0,0,0,.893.472l22.656,9.993c1.818,14.054,3.44,26.319,4.811,37.178-1.008,14.186-2.39,29-4.272,40.136-1.817,10.753-20.7,4.978-26.743-2.212-4.185-4.982,1.555-71.546,1.555-71.546S-321.013,1284.368-321.032,1276.153Z" fill="#ffccc5"/>
        <g id="그룹_11627" data-name="그룹 11627">
          <path id="패스_6384" data-name="패스 6384" d="M-319.162,1344.523c6-5.353,14.031-4.276,19.828-3.35,8.916,1.424,59.778,20.035,79.841,17.194l-4.809,14.273s-61.384,4.656-86.489-3.589C-323.855,1364.76-326.652,1351.208-319.162,1344.523Z" fill="#ffccc5"/>
        </g>
        <g id="그룹_11634" data-name="그룹 11634">
          <g id="그룹_11628" data-name="그룹 11628">
            <path id="패스_6385" data-name="패스 6385" d="M-237.888,1371.957l4.658,4.253s4.673,2.581,14.023,7.206c2.625,1.3,7.737,2.742,13.88,3.888,4.9.913,5.276,3.994,10.915,4.383,2.916.2,1.709-2.112,1.709-2.112s4.335,3.84,6.133.905c.637-1.039-1.977-4.256-1.977-4.256s3.456,2.853,4.675,1.508c1.458-1.608-1.709-5.881-1.709-5.881s2.061.519,1.491-1.827c-1.838-7.571-4.574-8.953-7.406-11.059-3.921-2.916-14.176-8.144-14.176-8.144l-12.9-3.818-15.154,2.36Z" fill="#ffccc5"/>
          </g>
          <g id="그룹_11629" data-name="그룹 11629">
            <path id="패스_6386" data-name="패스 6386" d="M-218.569,1357s12.782,1.494,13.309,1.748c10.838,5.224,13.419,2.137,13.691,3.458.485,2.355-1.487,4.529-5.794,4.887-1.314.109-5.4-1.427-7.709-1.629a10.328,10.328,0,0,0-5.915,1.149C-213.959,1368.142-218.569,1357-218.569,1357Z" fill="#ffccc5"/>
          </g>
          <g id="그룹_11630" data-name="그룹 11630">
            <path id="패스_6387" data-name="패스 6387" d="M-185.581,1382.152a.4.4,0,0,0,.255-.091.4.4,0,0,0,.056-.566l-.407-.5a32.726,32.726,0,0,0-7.505-7.137,53.307,53.307,0,0,0-8.309-4.358.4.4,0,0,0-.529.209.4.4,0,0,0,.21.529,52.5,52.5,0,0,1,8.179,4.288,32,32,0,0,1,7.33,6.976l.409.5A.4.4,0,0,0-185.581,1382.152Z" fill="#39324d"/>
          </g>
          <g id="그룹_11631" data-name="그룹 11631">
            <path id="패스_6388" data-name="패스 6388" d="M-188.6,1386.777a.4.4,0,0,0,.263-.1.4.4,0,0,0,.041-.568,41.109,41.109,0,0,0-17.265-11.9.4.4,0,0,0-.5.272.4.4,0,0,0,.271.5,40.254,40.254,0,0,1,16.885,11.657A.4.4,0,0,0-188.6,1386.777Z" fill="#39324d"/>
          </g>
          <g id="그룹_11632" data-name="그룹 11632">
            <path id="패스_6389" data-name="패스 6389" d="M-192.6,1389.877a.4.4,0,0,0,.289-.122.4.4,0,0,0-.009-.569c-4.562-4.432-7.544-7.043-15.77-9.163a.4.4,0,0,0-.49.289.4.4,0,0,0,.289.49c8.045,2.074,10.817,4.5,15.411,8.961A.4.4,0,0,0-192.6,1389.877Z" fill="#39324d"/>
          </g>
          <g id="그룹_11633" data-name="그룹 11633">
            <path id="패스_6390" data-name="패스 6390" d="M-194.948,1366.686a.4.4,0,0,0,.36-.222.4.4,0,0,0-.18-.54l-10.188-5.094a.4.4,0,0,0-.54.18.4.4,0,0,0,.18.54l10.188,5.094A.4.4,0,0,0-194.948,1366.686Z" fill="#39324d"/>
          </g>
        </g>
      </g>
      <g id="그룹_11636" data-name="그룹 11636">
        <path id="패스_6391" data-name="패스 6391" d="M-292.537,1343.093a.4.4,0,0,0,.387-.292.4.4,0,0,0-.277-.5,59.927,59.927,0,0,0-7.97-1.554c-5.871-.722-10.24-.277-12.986,1.326a.4.4,0,0,0-.145.55.4.4,0,0,0,.55.144c6.212-3.624,20.191.268,20.332.308A.409.409,0,0,0-292.537,1343.093Z" fill="#39324d"/>
      </g>
    </g>
    <g id="그룹_11638" data-name="그룹 11638">
      <path id="패스_6392" data-name="패스 6392" d="M-289.171,1318.02c2.089-16.9,2.181-35.566,2.49-37.482,5.122-31.828-9.43-57.806-9.43-57.806s-16.468,2.228-23.321,25.615c-3.989,13.614-6.754,47.694-8.436,61.628Z" fill="#ff3478"/>
    </g>
    <g id="그룹_11639" data-name="그룹 11639">
      <path id="패스_6393" data-name="패스 6393" d="M-291.452,1318.439a.4.4,0,0,1-.4-.378l-4.021-67.026a.4.4,0,0,1,.377-.425.4.4,0,0,1,.425.377l4.022,67.025a.4.4,0,0,1-.377.426Z" fill="#39324d"/>
    </g>
  </g>
</svg>
