<svg xmlns="http://www.w3.org/2000/svg" width="151.04" height="40.798" viewBox="0 0 151.04 40.798">
  <g id="logo" transform="translate(0 0)">
    <path id="패스_1" d="M951.83,321.759l-5.781-13.4h-6.7l9.444,20.019-5.408,11.908h6.447l14.359-31.927h-6.7Z" transform="translate(-939.349 -299.489)" fill="#6e6e6e"/>
    <path id="패스_2" d="M970.362,307.86a11.4,11.4,0,1,0-.24,22.8h.253a8.961,8.961,0,0,0,6.327-2.784v2.291h5.248V319.981a11.643,11.643,0,0,0-11.175-12.094A2.215,2.215,0,0,0,970.362,307.86Zm0,17.276a5.872,5.872,0,1,1,5.62-6.114v.253a5.692,5.692,0,0,1-5.5,5.861.184.184,0,0,0-.12,0Z" transform="translate(-932.88 -299.655)" fill="#6e6e6e"/>
    <path id="패스_3" d="M991.868,307.86c-2.038,0-4.915.666-6.327,2.877v-2.624H979.92V330.17h5.874V317.6a4.494,4.494,0,0,1,4.409-4.582h.293a4.3,4.3,0,0,1,4.649,3.943c.013.2.013.4.013.586v12.614h5.874V317.21C1001.031,312.269,998.567,307.86,991.868,307.86Z" transform="translate(-925.882 -299.655)" fill="#6e6e6e"/>
    <path id="패스_4" d="M1010.261,307.86a11.4,11.4,0,1,0,11.4,11.4h0A11.423,11.423,0,0,0,1010.261,307.86Zm0,17.236a5.852,5.852,0,1,1,5.621-6.074v.253a5.67,5.67,0,0,1-5.514,5.821.145.145,0,0,0-.107,0Z" transform="translate(-919.594 -299.655)" fill="#6e6e6e"/>
    <rect id="사각형_5" width="5.821" height="30.502" transform="translate(106.651 0.001)" fill="#6e6e6e"/>
    <path id="패스_5" d="M1029.192,329.235c0,4-2.411,5.288-4.622,5.288v5.741c3.33,0,10.323-.919,10.363-10.949V308.39h-5.741Z" transform="translate(-911.06 -299.479)" fill="#6e6e6e"/>
    <path id="패스_6" d="M1046.911,307.86a11.4,11.4,0,1,0-.24,22.8h.253a8.962,8.962,0,0,0,6.327-2.784v2.291h5.248V319.981a11.643,11.643,0,0,0-11.175-12.094A2.36,2.36,0,0,0,1046.911,307.86Zm0,17.276a5.872,5.872,0,1,1,5.621-6.114v.253a5.692,5.692,0,0,1-5.5,5.861.186.186,0,0,0-.12,0Z" transform="translate(-907.468 -299.655)" fill="#6e6e6e"/>
  </g>
</svg>
