<svg xmlns="http://www.w3.org/2000/svg" xmlns:xlink="http://www.w3.org/1999/xlink" width="26" height="26" viewBox="0 0 26 26">
  <defs>
    <clipPath id="clip-path">
      <rect id="사각형_157" data-name="사각형 157" width="26" height="26" transform="translate(1386 3802)" fill="#fff" stroke="#707070" stroke-width="1"/>
    </clipPath>
  </defs>
  <g id="마스크_그룹_2057" data-name="마스크 그룹 2057" transform="translate(-1386 -3802)" clip-path="url(#clip-path)">
    <path id="iconmonstr-facebook-6" d="M24.565,0H1.435A1.435,1.435,0,0,0,0,1.435v23.13A1.435,1.435,0,0,0,1.435,26H13.888V15.931H10.5V12.008h3.389V9.114c0-3.358,2.051-5.187,5.047-5.187a27.8,27.8,0,0,1,3.028.155v3.51H19.886c-1.629,0-1.945.775-1.945,1.91v2.506h3.886l-.506,3.924h-3.38V26h6.626A1.435,1.435,0,0,0,26,24.565V1.435A1.435,1.435,0,0,0,24.565,0Z" transform="translate(1386 3802)" fill="#fff"/>
  </g>
</svg>
