<svg xmlns="http://www.w3.org/2000/svg" xmlns:xlink="http://www.w3.org/1999/xlink" width="26" height="26" viewBox="0 0 26 26">
  <defs>
    <clipPath id="clip-path">
      <rect id="사각형_155" data-name="사각형 155" width="26" height="26" transform="translate(1422 3802)" fill="#fff" stroke="#707070" stroke-width="1"/>
    </clipPath>
  </defs>
  <g id="마스크_그룹_2056" data-name="마스크 그룹 2056" transform="translate(-1422 -3802)" clip-path="url(#clip-path)">
    <path id="iconmonstr-instagram-11" d="M13,2.343c3.471,0,3.883.013,5.254.076,3.523.16,5.169,1.832,5.329,5.329.063,1.37.075,1.782.075,5.253s-.013,3.883-.075,5.253c-.161,3.494-1.8,5.169-5.329,5.329-1.372.063-1.781.076-5.254.076s-3.883-.013-5.253-.076c-3.532-.161-5.169-1.841-5.329-5.33-.063-1.37-.076-1.781-.076-5.253s.014-3.882.076-5.253c.161-3.5,1.8-5.169,5.329-5.329C9.118,2.356,9.529,2.343,13,2.343ZM13,0C9.469,0,9.027.015,7.641.078,2.92.295.3,2.914.079,7.64.015,9.027,0,9.469,0,13s.015,3.974.078,5.36c.217,4.721,2.836,7.345,7.562,7.562C9.027,25.985,9.469,26,13,26s3.974-.015,5.36-.078c4.717-.217,7.347-2.836,7.561-7.562.064-1.387.079-1.83.079-5.36s-.015-3.973-.078-5.359C25.71,2.924,23.087.3,18.361.079,16.974.015,16.531,0,13,0Zm0,6.325A6.676,6.676,0,1,0,19.676,13,6.676,6.676,0,0,0,13,6.325Zm0,11.009A4.333,4.333,0,1,1,17.333,13,4.333,4.333,0,0,1,13,17.333ZM19.94,4.5A1.56,1.56,0,1,0,21.5,6.061,1.561,1.561,0,0,0,19.94,4.5Z" transform="translate(1422 3802)" fill="#fff"/>
  </g>
</svg>
