<svg xmlns="http://www.w3.org/2000/svg" width="298.858" height="340.741" viewBox="0 0 298.858 340.741">
  <g id="그룹_1514" data-name="그룹 1514" transform="translate(-650.495 -226.908)">
    <g id="그룹_3442" data-name="그룹 3442" transform="translate(764.587 351.565)">
      <g id="그룹_169" data-name="그룹 169" transform="matrix(0.643, 0.766, -0.766, 0.643, 115.755, 0)">
        <g id="그룹_163" data-name="그룹 163" transform="translate(0 0)">
          <path id="패스_98" data-name="패스 98" d="M8.023,59.96l43.1-53.118C59.648-3.539,78.345-1.8,82.425,9.957l24.937,88.75-24.484-1.4-19-51.757L43.393,92.321,10.046,86.149,0,67.318Z" fill="#e5a189"/>
        </g>
        <g id="그룹_164" data-name="그룹 164" transform="translate(0 33.617)">
          <path id="패스_99" data-name="패스 99" d="M27.651,0,8.023,26.343,0,33.7,10.046,52.532,43.393,58.7,61.6,28.819C51.625,26.029,25.989,2.995,27.651,0Z" fill="#f86867"/>
        </g>
        <g id="그룹_165" data-name="그룹 165" transform="translate(57.3 57.735)">
          <path id="패스_100" data-name="패스 100" d="M0,2.832,1.241,0S4.51,2.652,4.3,4.7A21.9,21.9,0,0,1,0,2.832Z" fill="#253e56"/>
        </g>
        <g id="그룹_166" data-name="그룹 166" transform="translate(27.577 33.42)">
          <path id="패스_101" data-name="패스 101" d="M.075.2S.682-.337,1.7.352L.465,1.867C.054,1.132-.108.553.075.2Z" fill="#253e56"/>
        </g>
        <g id="그룹_167" data-name="그룹 167" transform="translate(63.572 33.393)">
          <rect id="사각형_5" data-name="사각형 5" width="12.179" height="0.608" transform="translate(0 12.132) rotate(-84.935)" fill="#253e56"/>
        </g>
        <g id="그룹_168" data-name="그룹 168" transform="translate(23.997 38.049)">
          <path id="패스_102" data-name="패스 102" d="M35.116,28.646C22.427,25.618,1.746,6.882,0,.152L.589,0C2.3,6.617,22.72,25.063,35.26,28.057Z" fill="#253e56"/>
        </g>
      </g>
      <g id="그룹_199" data-name="그룹 199" transform="matrix(0.643, 0.766, -0.766, 0.643, 41.86, 18.939)">
        <g id="그룹_186" data-name="그룹 186" transform="translate(0 12.102)">
          <path id="패스_116" data-name="패스 116" d="M26.243,0,12.036,22.8,0,42.11H185.8l5.023-18.272Z" fill="#e5a189"/>
        </g>
        <g id="그룹_187" data-name="그룹 187" transform="translate(0.001 9.298)">
          <path id="패스_117" data-name="패스 117" d="M77.154,7.1,29.439,0C16.223,2.411,8.025,11.844,3.348,22.877L0,44.914H66.972C65.665,33.651,70.793,11.054,77.154,7.1Z" fill="#f86867"/>
        </g>
        <g id="그룹_188" data-name="그룹 188" transform="translate(74.54 16.394)">
          <path id="패스_118" data-name="패스 118" d="M2.615,0A3.638,3.638,0,0,1,4.12,3.3L0,2.717A9.459,9.459,0,0,1,2.615,0Z" fill="#253e56"/>
        </g>
        <g id="그룹_189" data-name="그룹 189" transform="translate(185.8 1.907)">
          <path id="패스_119" data-name="패스 119" d="M0,52.305H10.747c3.07,0,8.106-1.361,9.507-6.382.673-2.4,5.811-44.7,5.811-44.7C23.173.153,20.663-2.244,16.056,5.3L.78,35.019Z" fill="#e5a189"/>
        </g>
        <g id="그룹_190" data-name="그룹 190" transform="translate(37.35 10.181)">
          <rect id="사각형_7" data-name="사각형 7" width="0.608" height="30.412" transform="translate(0 0.602) rotate(-81.543)" fill="#253e56"/>
        </g>
        <g id="그룹_191" data-name="그룹 191" transform="translate(96.209 21.899)">
          <path id="패스_120" data-name="패스 120" d="M26.041,4.416,0,.6.089,0,26.13,3.814Z" fill="#253e56"/>
        </g>
        <g id="그룹_192" data-name="그룹 192" transform="translate(192.026 13.553)">
          <path id="패스_121" data-name="패스 121" d="M19.838,5.44,5.442,0,0,11.507l18.678,4.812Z" fill="#ffd317"/>
        </g>
        <g id="그룹_193" data-name="그룹 193" transform="translate(205.592 0)">
          <rect id="사각형_8" data-name="사각형 8" width="4.26" height="54.507" rx="0.359" transform="translate(5.99 0) rotate(6.309)" fill="#ffd317"/>
        </g>
        <g id="그룹_194" data-name="그룹 194" transform="translate(187.129 35.223)">
          <path id="패스_122" data-name="패스 122" d="M3.477,3.964,0,.427.433,0,3.911,3.537Z" fill="#253e56"/>
        </g>
        <g id="그룹_195" data-name="그룹 195" transform="translate(1.98 27.82)">
          <path id="패스_123" data-name="패스 123" d="M.225,16.247,0,15.684c3.706-1.474,5.895-4.523,6.507-9.065A20.855,20.855,0,0,0,6.3.131L6.9,0a21.1,21.1,0,0,1,.215,6.683C6.481,11.4,4.1,14.708.225,16.247Z" fill="#253e56"/>
        </g>
        <g id="그룹_196" data-name="그룹 196" transform="translate(18.434 8.856)">
          <path id="패스_124" data-name="패스 124" d="M.594,14.7,0,14.574A21.408,21.408,0,0,1,9.47.966c-2.227.387-6.313,1.4-8.638,3.843L.393,4.39C3.85.759,10.693.165,10.983.141L12.729,0l-1.6.722A20.665,20.665,0,0,0,.594,14.7Z" fill="#253e56"/>
        </g>
        <g id="그룹_197" data-name="그룹 197" transform="translate(61.481 15.289)">
          <path id="패스_125" data-name="패스 125" d="M.17,38.946C-.979,23.927,3.827,5.363,10.253,0l.39.466C4.455,5.63-.34,24.307.775,38.9Z" fill="#253e56"/>
        </g>
        <g id="그룹_198" data-name="그룹 198" transform="translate(207.825 18.089)">
          <path id="패스_126" data-name="패스 126" d="M.6,11.159l-.6-.08L1.452,0l.6.08Z" fill="#253e56"/>
        </g>
      </g>
    </g>
    <g id="그룹_109" data-name="그룹 109" transform="translate(749.858 236.141)">
      <path id="패스_56" data-name="패스 56" d="M676.88,289.776h61.751c4.276-2.283,6.65-7.926,7.856-12.308a55.236,55.236,0,0,0,.4-26.1,36.84,36.84,0,0,0-7.217-15.633,17.118,17.118,0,0,0-8.67-5.612c-6.007-1.645-12.789-1.05-17.892,2.874a27.854,27.854,0,0,0-8.094,10c-1.97,4.1-2.287,8.8-4.711,12.707-5.573,8.983-14.419,11.83-20,20.692a21.233,21.233,0,0,0-3.446,13.232C676.86,289.678,676.876,289.729,676.88,289.776Z" transform="translate(-676.773 -229.266)" fill="#151515"/>
    </g>
    <g id="그룹_112" data-name="그룹 112" transform="translate(682.82 327.437)">
      <g id="그룹_110" data-name="그룹 110" transform="translate(58.594 5.022)">
        <path id="패스_57" data-name="패스 57" d="M730.367,280.413c-31.8-5.024-56.743-14.348-55.721-20.817s27.631-7.64,59.425-2.612,56.743,14.348,55.721,20.818S762.161,285.441,730.367,280.413Z" transform="translate(-674.616 -253.862)" fill="#e573b5"/>
      </g>
      <g id="그룹_111" data-name="그룹 111">
        <path id="패스_58" data-name="패스 58" d="M780.158,255.895c-62.347-9.857-116.192,3.008-120.26,28.732s43.174,54.569,105.521,64.426,116.188-3,120.256-28.728S842.5,265.751,780.158,255.895Zm-4.28,27.036c-30.044-4.75-53.665-13.252-52.756-18.989s26-6.532,56.042-1.782,53.665,13.252,52.76,18.985S805.925,287.681,775.878,282.931Z" transform="translate(-659.654 -252.579)" fill="#f86867"/>
      </g>
    </g>
    <g id="그룹_113" data-name="그룹 113" transform="translate(764.589 284.677)">
      <path id="패스_59" data-name="패스 59" d="M684.805,339.474s60.49.627,63.545-.505c-.188-13.216-3.337-21.452-5.823-31.344-4.39-25.34,5.4-39.783,5.4-39.783s-13-20.191-18.526-23.625a40.486,40.486,0,0,0-6.168-2.35s-9.947,2.428-15.735-.208c0,0-12.5,2.432-18.758,5.905s-6.947,11.8-3.054,26.39C687.319,306.979,673.993,320.336,684.805,339.474Z" transform="translate(-680.535 -241.66)" fill="#e5a189"/>
    </g>
    <g id="그룹_114" data-name="그룹 114" transform="translate(845.919 359.895)">
      <path id="패스_60" data-name="패스 60" d="M721.224,283.377c-2.647-8.744-19.748-21.82-19.921-21.953l.427-.556c.709.54,17.454,13.342,20.163,22.305Z" transform="translate(-701.303 -260.868)" fill="#253e56"/>
    </g>
    <g id="그룹_121" data-name="그룹 121" transform="translate(803.109 305.244)">
      <path id="패스_65" data-name="패스 65" d="M694.244,254.255a9.653,9.653,0,0,0-3.873-6.751l.384-.591a10.239,10.239,0,0,1,4.186,7.272Z" transform="translate(-690.371 -246.912)" fill="#253e56"/>
    </g>
    <g id="그룹_134" data-name="그룹 134" transform="translate(778.328 226.908)">
      <g id="그룹_122" data-name="그룹 122" transform="translate(0 14.07)">
        <path id="패스_66" data-name="패스 66" d="M691.977,258.265l-.294,20.845,21.855-1.253-1.018-7.382c13.659-5.835,12.864-32.236-.975-39.974-2.283,7.855-10.992,14.376-21.35,15.766C680.065,243.772,683.718,259.037,691.977,258.265Z" transform="translate(-684.043 -230.501)" fill="#e5a189"/>
      </g>
      <g id="그룹_123" data-name="그룹 123" transform="translate(14.772 50.43)">
        <path id="패스_67" data-name="패스 67" d="M698.443,244.105a18.7,18.7,0,0,1-10.628-3.771l.438-.548c.063.047,6.246,4.911,13.185,3.274l.164.681A13.772,13.772,0,0,1,698.443,244.105Z" transform="translate(-687.815 -239.786)" fill="#253e56"/>
      </g>
      <g id="그룹_124" data-name="그룹 124" transform="translate(1.411 31.165)">
        <path id="패스_68" data-name="패스 68" d="M685.408,240.617c-1.092-1.715-1.312-3.509-.572-4.68a2.371,2.371,0,0,1,2.408-1.046l-.082.7a1.69,1.69,0,0,0-1.735.725c-.579.924-.356,2.463.576,3.928Z" transform="translate(-684.403 -234.866)" fill="#253e56"/>
      </g>
      <g id="그룹_125" data-name="그룹 125" transform="translate(6.497)">
        <path id="패스_69" data-name="패스 69" d="M704.162,235.613a9.237,9.237,0,1,1-9.751-8.69A9.238,9.238,0,0,1,704.162,235.613Z" transform="translate(-685.702 -226.908)" fill="#151515"/>
      </g>
      <g id="그룹_132" data-name="그룹 132" transform="translate(8.91 23.175)">
        <g id="그룹_129" data-name="그룹 129">
          <g id="그룹_126" data-name="그룹 126">
            <path id="패스_70" data-name="패스 70" d="M720.743,232.9a70.927,70.927,0,0,0-10.7,3.908c-3.4,1.751-4.66,1.884-4.954,1.888v0l-.035,0-.035,0v0c-.29,0-1.547-.137-4.954-1.888a70.948,70.948,0,0,0-10.7-3.908c-2.334-.4-3.274.909-3,3.7,0,0,1.139,11.881,9.234,11.881,5.349,0,7.628-6.07,7.628-6.07.431-1.128.979-1.688,1.825-1.809.85.121,1.394.681,1.825,1.809,0,0,2.279,6.07,7.632,6.07,8.094,0,9.234-11.881,9.234-11.881C724.013,233.805,723.073,232.5,720.743,232.9Z" transform="translate(-686.318 -232.826)" fill="#ff3478"/>
          </g>
          <g id="그룹_127" data-name="그룹 127" transform="translate(3.897 3.543)">
            <path id="패스_71" data-name="패스 71" d="M694.02,234.722c5.341,2.107,5,3.744,5,3.744.008,3.235-3.6,5.443-7.021,4.817,0,0-5.02-.846-4.668-7.1C687.331,234.742,688.451,232.377,694.02,234.722Z" transform="translate(-687.313 -233.731)" fill="#253e56"/>
          </g>
          <g id="그룹_128" data-name="그룹 128" transform="translate(21.858 3.543)">
            <path id="패스_72" data-name="패스 72" d="M696.9,234.722c-5.338,2.107-5,3.744-5,3.744,0,3.235,3.607,5.443,7.025,4.817,0,0,5.016-.846,4.668-7.1C703.6,234.742,702.477,232.377,696.9,234.722Z" transform="translate(-691.9 -233.731)" fill="#253e56"/>
          </g>
        </g>
        <g id="그룹_130" data-name="그룹 130" transform="translate(18.432 8.498)">
          <path id="패스_73" data-name="패스 73" d="M691.28,240.76l-.255-.654c.669-.266,1.676-.815,1.809-1.206.082-.337-.74-1.946-1.8-3.513l.583-.392c.654.971,2.15,3.317,1.88,4.124C693.222,239.962,691.6,240.635,691.28,240.76Z" transform="translate(-691.025 -234.996)" fill="#253e56"/>
        </g>
        <g id="그룹_131" data-name="그룹 131" transform="translate(14.359 17.696)">
          <path id="패스_74" data-name="패스 74" d="M695.264,239.632c-3.7,0-5.2-1.743-5.279-1.837l.54-.45-.27.227.27-.227c.02.023,2.189,2.5,7.863,1.206l.153.685A14.81,14.81,0,0,1,695.264,239.632Z" transform="translate(-689.985 -237.345)" fill="#253e56"/>
        </g>
      </g>
      <g id="그룹_133" data-name="그룹 133" transform="translate(7.903 39.982)">
        <path id="패스_75" data-name="패스 75" d="M686.092,238.97a3.05,3.05,0,0,0,2.3-1.852,4.606,4.606,0,0,1-2.33,3.9Z" transform="translate(-686.061 -237.118)" fill="#d6937f"/>
      </g>
    </g>
    <g id="그룹_138" data-name="그룹 138" transform="translate(768.926 307.447)">
      <g id="그룹_135" data-name="그룹 135" transform="translate(0.019 0.372)">
        <path id="패스_76" data-name="패스 76" d="M681.647,265.807a7.61,7.61,0,0,0,6.105-3.775c2.263-4.272,4.566-8.353,8.643-11.309a17.216,17.216,0,0,1,16.232-2c2.275.811,4.312,2.056,6.728,2.51,3.113.591,6.751-.008,8.893-2.432l2.373,19.306c-9.031,1.613-27.31,1.774-48.974.744Z" transform="translate(-681.647 -247.57)" fill="#ffd317"/>
      </g>
      <g id="그룹_136" data-name="그룹 136" transform="translate(0 19.24)">
        <path id="패스_77" data-name="패스 77" d="M702.839,254.2q-10,0-21.2-.505l.035-.7c18.479.838,34.625.634,47.979-.607l.067.7C721.722,253.829,712.731,254.2,702.839,254.2Z" transform="translate(-681.642 -252.388)" fill="#253e56"/>
      </g>
      <g id="그룹_137" data-name="그룹 137" transform="translate(5.807)">
        <path id="패스_78" data-name="패스 78" d="M683.755,262.466l-.63-.313c5.772-11.646,13.271-16.291,22.944-14.188l-.149.685C696.483,246.61,689.441,250.992,683.755,262.466Z" transform="translate(-683.125 -247.475)" fill="#253e56"/>
      </g>
    </g>
    <g id="그룹_139" data-name="그룹 139" transform="translate(789.233 286.54)">
      <path id="패스_79" data-name="패스 79" d="M693.412,245.508l-6.584-2.724.269-.648,6.585,2.724Z" transform="translate(-686.828 -242.136)" fill="#253e56"/>
    </g>
    <g id="그룹_140" data-name="그룹 140" transform="translate(803.947 287.214)">
      <path id="패스_80" data-name="패스 80" d="M691.021,244.958l-.436-.552,2.649-2.1.436.552Z" transform="translate(-690.585 -242.308)" fill="#253e56"/>
    </g>
    <g id="그룹_146" data-name="그룹 146" transform="translate(682.82 327.643)">
      <g id="그룹_141" data-name="그룹 141">
        <path id="패스_81" data-name="패스 81" d="M813.578,263.2a57.776,57.776,0,0,0-3.262,5.7c13.585,4.076,22.161,8.6,21.609,12.1-.909,5.737-26,6.536-56.046,1.786s-53.665-13.252-52.756-18.989c.3-1.876,3.2-3.219,8-4.018q-.8-3.542-1.351-7.139c-38.655,1.66-66.963,13.467-69.869,31.841-4.069,25.724,43.174,54.569,105.521,64.426s116.188-3,120.256-28.728C888.98,299.3,858.5,276.371,813.578,263.2Z" transform="translate(-659.654 -252.632)" fill="#ffc7da"/>
      </g>
      <g id="그룹_142" data-name="그룹 142" transform="translate(14.968 34.915)">
        <path id="패스_82" data-name="패스 82" d="M801.076,306.551c-29.914,0-63.052-5.357-89.641-14-26.876-8.737-43.906-19.662-47.959-30.76l.658-.243c3.979,10.89,20.852,21.663,47.52,30.333,49.988,16.251,123.15,20.884,154.181.027l.4.584C851.569,302.345,827.588,306.551,801.076,306.551Z" transform="translate(-663.476 -261.548)" fill="#253e56"/>
      </g>
      <g id="그룹_143" data-name="그룹 143" transform="translate(12.079 14.53)">
        <path id="패스_83" data-name="패스 83" d="M675.261,257.011c.728,1.261-1.453,3.885-4.871,5.858s-6.783,2.549-7.511,1.288,1.453-3.885,4.872-5.858S674.532,255.75,675.261,257.011Z" transform="translate(-662.738 -256.342)" fill="#fff"/>
      </g>
      <g id="그룹_144" data-name="그룹 144" transform="translate(13.714 13.443)">
        <path id="패스_84" data-name="패스 84" d="M666.012,262.746c.709.435,3.8-1.457,3.626-2.291l-3-4.331c-.693-.372-3.61,1.069-3.473,2.248Z" transform="translate(-663.156 -256.065)" fill="#253e56"/>
      </g>
      <g id="그룹_145" data-name="그룹 145" transform="translate(13.676 13.483)">
        <path id="패스_85" data-name="패스 85" d="M663.569,258.6a2.1,2.1,0,0,1-.423-.039l.086-.431a3.5,3.5,0,0,0,2.612-.889,1.446,1.446,0,0,0,.6-1.128l.438-.035a1.839,1.839,0,0,1-.744,1.492A4.173,4.173,0,0,1,663.569,258.6Z" transform="translate(-663.146 -256.075)" fill="#6e6493"/>
      </g>
    </g>
    <g id="그룹_152" data-name="그룹 152" transform="translate(809.272 255.593)">
      <g id="그룹_147" data-name="그룹 147">
        <path id="패스_86" data-name="패스 86" d="M773.054,370.791a50.227,50.227,0,0,1,17.755,1.727c.286.086.568.192.85.282,5.615-40.895-68.268-62.64-68.847-87.437.987-13.714,7.389-19.784,18.895-22.959,3.618,7.8,11.074,12.676,21.174,15.535l14.99-9.817c4.037-15.441-7.315-30.169-26.245-32.252,0,0-39.716-11.584-55.063,26.891-9.508,25.564-2.894,42.657,6.853,53.61,15.75,18.656,33.137,26.966,33.137,26.966s14.434,18.848,29.973,28.508A36.119,36.119,0,0,1,773.054,370.791Z" transform="translate(-691.945 -234.233)" fill="#ffc7da"/>
      </g>
      <g id="그룹_148" data-name="그룹 148" transform="translate(70.935 33.888)">
        <path id="패스_87" data-name="패스 87" d="M710.059,252.7s6.042,8.776,4.675,19.7c-.274,2.228,1.582,2.867,3.391,1.872,9.438-5.627,13.8-14.7,6.924-31.387C718.706,243.286,713.783,246.721,710.059,252.7Z" transform="translate(-710.059 -242.887)" fill="#253e56"/>
      </g>
      <g id="그룹_149" data-name="그룹 149" transform="translate(48.347 18.698)">
        <path id="패스_88" data-name="패스 88" d="M705.376,248.6a20.231,20.231,0,0,1-.83-9.594l.693.117a19.979,19.979,0,0,0,.795,9.234Z" transform="translate(-704.291 -239.008)" fill="#253e56"/>
      </g>
      <g id="그룹_150" data-name="그룹 150" transform="translate(60.237 18.472)">
        <path id="패스_89" data-name="패스 89" d="M717.253,244.722a4.993,4.993,0,1,1-4.151-5.71A4.992,4.992,0,0,1,717.253,244.722Z" transform="translate(-707.327 -238.95)" fill="#fff"/>
      </g>
      <g id="그룹_151" data-name="그룹 151" transform="translate(64.739 22.993)">
        <path id="패스_90" data-name="패스 90" d="M711.736,242a1.639,1.639,0,1,1-1.363-1.876A1.641,1.641,0,0,1,711.736,242Z" transform="translate(-708.477 -240.105)" fill="#253e56"/>
      </g>
    </g>
    <g id="그룹_153" data-name="그룹 153" transform="translate(874.328 342.367)">
      <path id="패스_91" data-name="패스 91" d="M730.457,273.442s-4.488,4.989-9.6,2.15c-13.377-8.693-13.142-14.669-11.548-18.64C712.236,253.534,731.769,266.6,730.457,273.442Z" transform="translate(-708.558 -256.392)" fill="#e5a189"/>
    </g>
    <g id="그룹_161" data-name="그룹 161" transform="translate(694.501 291.93)">
      <g id="그룹_154" data-name="그룹 154" transform="matrix(0.174, 0.985, -0.985, 0.174, 83.331, 0)">
        <path id="패스_92" data-name="패스 92" d="M34.841,6.225c6.093,4.543,14.94,9.963,17.966,17.309a29.687,29.687,0,0,1,1.821,8.177c.9,8.49.384,17.047.866,25.556.489,8.615.521,17.286.771,25.917L40.848,84.617,33.333,33.081.275,8.8C-3-2.991,23.837-1.987,34.841,6.225Z" transform="translate(0 0)" fill="#e5a189"/>
      </g>
      <g id="그룹_158" data-name="그룹 158" transform="translate(57.764 39.539)">
        <path id="패스_96" data-name="패스 96" d="M679.679,259.558l-.893-.579a5.663,5.663,0,0,0-5.455-.176l-.341-.615a6.446,6.446,0,0,1,5.224-.3,6.274,6.274,0,0,0-1.582-1.958l.423-.56a8.015,8.015,0,0,1,2.252,3.192Z" transform="translate(-672.99 -255.368)" fill="#253e56"/>
      </g>
    </g>
    <ellipse id="타원_17" data-name="타원 17" cx="60.698" cy="8.482" rx="60.698" ry="8.482" transform="translate(676.344 506.542)" fill="#fff" opacity="0.903"/>
    <path id="패스_689" data-name="패스 689" d="M849.249,308.23c0,2.162-39.156,3.912-87.456,3.912s-87.46-1.75-87.46-3.912,39.156-3.916,87.46-3.916S849.249,306.068,849.249,308.23Z" transform="translate(65.971 225.716)" fill="#fff" opacity="0.781"/>
    <g id="그룹_1848" data-name="그룹 1848" transform="translate(650.495 316.051)">
      <g id="그룹_1844" data-name="그룹 1844" transform="translate(0)">
        <g id="그룹_1835" data-name="그룹 1835" transform="translate(16.752 36.097)">
          <g id="그룹_1834" data-name="그룹 1834">
            <g id="그룹_1833" data-name="그룹 1833">
              <path id="패스_346" data-name="패스 346" d="M348.028,165.283H276.107a3.686,3.686,0,0,0-3.726,3.541,3.607,3.607,0,0,0,3.607,3.675h79.886l-1.2-2.819A7.221,7.221,0,0,0,348.028,165.283Z" transform="translate(-272.38 -165.283)" fill="#2b2b39"/>
            </g>
          </g>
        </g>
        <g id="그룹_1838" data-name="그룹 1838" transform="translate(6.724)">
          <g id="그룹_1837" data-name="그룹 1837">
            <g id="그룹_1836" data-name="그룹 1836">
              <path id="패스_347" data-name="패스 347" d="M343.863,176.2H283.525a3.645,3.645,0,0,1-3.315-2.128l-16.495-36.02a3.646,3.646,0,0,1,3.315-5.164h60.338a3.645,3.645,0,0,1,3.315,2.128l16.5,36.02A3.647,3.647,0,0,1,343.863,176.2Z" transform="translate(-263.38 -132.886)" fill="#2b2b39"/>
            </g>
          </g>
        </g>
        <g id="그룹_1840" data-name="그룹 1840">
          <g id="그룹_1839" data-name="그룹 1839">
            <path id="패스_348" data-name="패스 348" d="M337.829,176.2H277.491a3.645,3.645,0,0,1-3.315-2.128l-16.5-36.02A3.647,3.647,0,0,1,261,132.886h60.338a3.645,3.645,0,0,1,3.315,2.128l16.495,36.02A3.646,3.646,0,0,1,337.829,176.2Z" transform="translate(-257.345 -132.886)" fill="#002c79"/>
          </g>
        </g>
        <g id="그룹_1843" data-name="그룹 1843" transform="translate(33.606 16.418)">
          <g id="그룹_1842" data-name="그룹 1842">
            <g id="그룹_1841" data-name="그룹 1841">
              <path id="패스_349" data-name="패스 349" d="M297.983,152.86a5.238,5.238,0,1,1-5.239-5.239A5.239,5.239,0,0,1,297.983,152.86Z" transform="translate(-287.506 -147.621)" fill="#fff"/>
            </g>
          </g>
        </g>
      </g>
      <g id="그룹_1847" data-name="그룹 1847" transform="translate(32.052 31.888)">
        <g id="그룹_1846" data-name="그룹 1846">
          <g id="그룹_1845" data-name="그룹 1845">
            <path id="패스_350" data-name="패스 350" d="M319.2,176.906a8.185,8.185,0,0,1-7.93,3.1,16.513,16.513,0,0,1-4.787-1.552c-1.169-.594-2.611-1.653-3.63-1.542-2.528.275-3.45-1.472-4.093-1.631a4.53,4.53,0,0,1-2.476.428,8.4,8.4,0,0,1-3.047-.969h0c-2.516-.03-4.711.065-5.421-.43-1.417-.984-2.8-10.661-.381-11.061,3.2-.528,1.574,6.607,4.495,7.957,0,0-2.2-9.018,1.4-9.686,2.457-.454,2.851,8.54,5.463,10.169,0,0-2.475-8.355.181-9.695s2.648,8.733,5.361,8.993c.554.051-2.2-7.135.986-7.522s1.4,8.2,10.817,8C319.946,171.395,321.494,173.808,319.2,176.906Z" transform="translate(-286.112 -161.505)" fill="#e5a189"/>
          </g>
        </g>
      </g>
    </g>
  </g>
</svg>
