<svg xmlns="http://www.w3.org/2000/svg" width="218.444" height="309.789" viewBox="0 0 218.444 309.789">
  <g id="그룹_11958" data-name="그룹 11958" transform="translate(-1629.517 -3300.08)">
    <g id="그룹_1147" data-name="그룹 1147" transform="matrix(0.996, 0.087, -0.087, 0.996, 1376.902, 3109.658)">
      <g id="그룹_1077" data-name="그룹 1077">
        <g id="그룹_1076" data-name="그룹 1076">
          <g id="그룹_1075" data-name="그룹 1075">
            <path id="패스_212" data-name="패스 212" d="M345.435,430.9l-3.073,7.35-12.681-3.468,3.073-7.35Z" fill="#c1725c"/>
          </g>
        </g>
      </g>
      <g id="그룹_1079" data-name="그룹 1079">
        <g id="그룹_1078" data-name="그룹 1078">
          <path id="패스_213" data-name="패스 213" d="M293.867,446.547l46.172,12.626a6.683,6.683,0,0,0,1.3-2.4c1.345-3.836,1.787-10.426,2.24-14.532.05-.481.1-.928.158-1.33a13.831,13.831,0,0,1,.3-1.646c.867-3.216-2.12-3.441-2.12-3.441-5.912,3.315-9.344-5.019-13.043-3.605,0,0-1.588.592-6.146,2.9s-11.381,2.781-17.289,3.556c-7.626,1-10.343,3.334-11.256,5.206A3.753,3.753,0,0,0,293.867,446.547Z" fill="#173d7a"/>
        </g>
      </g>
      <g id="그룹_1082" data-name="그룹 1082">
        <g id="그룹_1081" data-name="그룹 1081">
          <path id="패스_214" data-name="패스 214" d="M293.867,446.547l46.172,12.626a6.683,6.683,0,0,0,1.3-2.4l-47.159-12.9A3.753,3.753,0,0,0,293.867,446.547Z" fill="#253f3d"/>
        </g>
      </g>
      <g id="그룹_1096" data-name="그룹 1096">
        <g id="그룹_1095" data-name="그룹 1095">
          <g id="그룹_1094" data-name="그룹 1094">
            <g id="그룹_1093" data-name="그룹 1093">
              <g id="그룹_1092" data-name="그룹 1092">
                <g id="그룹_1091" data-name="그룹 1091">
                  <g id="그룹_1090" data-name="그룹 1090">
                    <g id="그룹_1089" data-name="그룹 1089">
                      <g id="그룹_1088" data-name="그룹 1088">
                        <g id="그룹_1087" data-name="그룹 1087">
                          <g id="그룹_1086" data-name="그룹 1086">
                            <g id="그룹_1085" data-name="그룹 1085">
                              <g id="그룹_1084" data-name="그룹 1084">
                                <path id="패스_215" data-name="패스 215" d="M335.328,457.885l1.372.375a10.559,10.559,0,0,1-.482-8.09,13.468,13.468,0,0,1,7.362-7.933c.05-.481.1-.928.158-1.33a14.634,14.634,0,0,0-8.6,8.907A11.682,11.682,0,0,0,335.328,457.885Z" fill="#edebf6"/>
                              </g>
                            </g>
                          </g>
                        </g>
                      </g>
                    </g>
                  </g>
                </g>
              </g>
            </g>
          </g>
        </g>
      </g>
      <g id="그룹_1099" data-name="그룹 1099">
        <g id="그룹_1098" data-name="그룹 1098">
          <path id="패스_216" data-name="패스 216" d="M322.772,438.056a.79.79,0,0,0,.588-1.453l-2.691-1.507a.785.785,0,0,0-1.072.3.794.794,0,0,0,.306,1.076l2.691,1.506A.762.762,0,0,0,322.772,438.056Z" fill="#fff"/>
        </g>
      </g>
      <g id="그룹_1102" data-name="그룹 1102">
        <g id="그룹_1101" data-name="그룹 1101">
          <path id="패스_217" data-name="패스 217" d="M326.109,436.6a.79.79,0,0,0,.589-1.454l-2.691-1.506a.785.785,0,0,0-1.072.3.793.793,0,0,0,.306,1.076l2.691,1.506A.773.773,0,0,0,326.109,436.6Z" fill="#fff"/>
        </g>
      </g>
      <g id="그룹_1115" data-name="그룹 1115">
        <g id="그룹_1114" data-name="그룹 1114">
          <g id="그룹_1113" data-name="그룹 1113">
            <g id="그룹_1112" data-name="그룹 1112">
              <g id="그룹_1111" data-name="그룹 1111">
                <g id="그룹_1110" data-name="그룹 1110">
                  <g id="그룹_1109" data-name="그룹 1109">
                    <g id="그룹_1108" data-name="그룹 1108">
                      <g id="그룹_1107" data-name="그룹 1107">
                        <g id="그룹_1106" data-name="그룹 1106">
                          <g id="그룹_1105" data-name="그룹 1105">
                            <g id="그룹_1104" data-name="그룹 1104">
                              <path id="패스_218" data-name="패스 218" d="M319.434,438.948a.79.79,0,0,0,.588-1.454l-2.69-1.506a.786.786,0,0,0-1.073.3.794.794,0,0,0,.306,1.076l2.691,1.507A.8.8,0,0,0,319.434,438.948Z" fill="#fff"/>
                            </g>
                          </g>
                        </g>
                      </g>
                    </g>
                  </g>
                </g>
              </g>
            </g>
          </g>
        </g>
      </g>
      <g id="그룹_1118" data-name="그룹 1118">
        <g id="그룹_1117" data-name="그룹 1117">
          <path id="패스_219" data-name="패스 219" d="M316.113,439.775a.79.79,0,0,0,.589-1.454l-2.691-1.506a.785.785,0,0,0-1.072.3.793.793,0,0,0,.306,1.076l2.691,1.506A.773.773,0,0,0,316.113,439.775Z" fill="#fff"/>
        </g>
      </g>
      <g id="그룹_1131" data-name="그룹 1131">
        <g id="그룹_1130" data-name="그룹 1130">
          <g id="그룹_1129" data-name="그룹 1129">
            <g id="그룹_1128" data-name="그룹 1128">
              <g id="그룹_1127" data-name="그룹 1127">
                <g id="그룹_1126" data-name="그룹 1126">
                  <g id="그룹_1125" data-name="그룹 1125">
                    <g id="그룹_1124" data-name="그룹 1124">
                      <g id="그룹_1123" data-name="그룹 1123">
                        <g id="그룹_1122" data-name="그룹 1122">
                          <g id="그룹_1121" data-name="그룹 1121">
                            <g id="그룹_1120" data-name="그룹 1120">
                              <path id="패스_220" data-name="패스 220" d="M312.565,440.409a.79.79,0,0,0,.589-1.453l-2.691-1.507a.789.789,0,1,0-.766,1.38l2.691,1.507A.816.816,0,0,0,312.565,440.409Z" fill="#fff"/>
                            </g>
                          </g>
                        </g>
                      </g>
                    </g>
                  </g>
                </g>
              </g>
            </g>
          </g>
        </g>
      </g>
      <g id="그룹_1134" data-name="그룹 1134">
        <g id="그룹_1133" data-name="그룹 1133">
          <path id="패스_221" data-name="패스 221" d="M308.811,440.751a.79.79,0,0,0,.588-1.454l-2.69-1.506a.789.789,0,1,0-.766,1.38l2.69,1.506A.781.781,0,0,0,308.811,440.751Z" fill="#fff"/>
        </g>
      </g>
      <g id="그룹_1138" data-name="그룹 1138">
        <g id="그룹_1137" data-name="그룹 1137">
          <path id="패스_222" data-name="패스 222" d="M420.845,316.731s-56.877,14.389-64.509,20.859-24.622,85.378-24.737,89.839c-.011.412,14.835,4.623,14.835,4.623s29.183-61.079,30.789-69.916c0,0,33.423-4.017,48.645-12.854s20.821-17.887,20.821-17.887Z" fill="#ffc7da"/>
        </g>
      </g>
      <g id="그룹_1140" data-name="그룹 1140">
        <g id="그룹_1139" data-name="그룹 1139">
          <path id="패스_223" data-name="패스 223" d="M355.792,338.584a11.835,11.835,0,0,0,6.133,5.367c.467.213.876-.48.4-.693-2.422-1.1-4.663-2.615-5.844-5.079-.224-.467-.917-.059-.694.405Z" fill="#39252b"/>
        </g>
      </g>
      <g id="그룹_1143" data-name="그룹 1143">
        <g id="그룹_1142" data-name="그룹 1142">
          <g id="그룹_1141" data-name="그룹 1141">
            <path id="패스_224" data-name="패스 224" d="M333.211,422.045a77.074,77.074,0,0,1,14.69,4.885c.468.21.877-.482.406-.694a78.131,78.131,0,0,0-14.882-4.965c-.5-.113-.719.661-.214.774Z" fill="#39252b"/>
          </g>
        </g>
      </g>
      <g id="그룹_1146" data-name="그룹 1146">
        <g id="그룹_1145" data-name="그룹 1145">
          <g id="그룹_1144" data-name="그룹 1144">
            <path id="패스_225" data-name="패스 225" d="M346.5,425.715c8.395-17.468,16.486-35.127,23.392-53.244,1.851-4.857,3.605-9.751,5.213-14.694l-.387.295a81.152,81.152,0,0,0,21.966-3.09c5.806-1.765,11.287-4.395,16.8-6.884.471-.213.063-.9-.4-.694-5.457,2.461-10.873,5.059-16.614,6.8a80.336,80.336,0,0,1-21.752,3.061.415.415,0,0,0-.388.295c-5.926,18.218-13.634,35.851-21.669,53.223q-3.371,7.289-6.855,14.522c-.223.464.47.872.694.406Z" fill="#39252b"/>
          </g>
        </g>
      </g>
    </g>
    <g id="그룹_1329" data-name="그룹 1329" transform="matrix(0.996, 0.087, -0.087, 0.996, 1376.902, 3109.658)">
      <g id="그룹_1204" data-name="그룹 1204">
        <g id="그룹_1148" data-name="그룹 1148">
          <path id="패스_226" data-name="패스 226" d="M390.08,257.019s-7.33,36.778-6.593,45.292S399.414,319.3,399.414,319.3l10.574-2.255s-4.9-14.627-8.927-18.842l6.724-32.307Z" fill="#c1725c"/>
        </g>
        <g id="그룹_1149" data-name="그룹 1149">
          <path id="패스_227" data-name="패스 227" d="M408.44,268.115a13.252,13.252,0,0,1-3.5.49c-.27,0-.54,0-.81-.02-4.48-.24-8.79-2.57-12.15-5.03-.21-.15-.42-.3-.62-.46a42.68,42.68,0,0,1-6-5.53c.38-.82.77-1.7,1.15-2.63.1-.24.19-.47.29-.72,1.8-4.53,3.53-10.09,4.96-15.16.09-.31.17-.62.26-.93,2.08-7.46,3.48-13.66,3.48-13.66Z" fill="#002c79"/>
        </g>
        <g id="그룹_1153" data-name="그룹 1153">
          <g id="그룹_1152" data-name="그룹 1152">
            <g id="그룹_1151" data-name="그룹 1151">
              <g id="그룹_1150" data-name="그룹 1150">
                <path id="패스_228" data-name="패스 228" d="M396.68,246.765c-.21-2.28-1.53-4.25-2.76-6.12l-.02-.03c-.01-.02-.01-.03-.02-.04-.58-.8-1.19-1.64-1.86-2.45-.09.31-.17.62-.26.93.53.67,1.02,1.35,1.47,1.97,1.99,3.03,3.84,6.42,1.72,9.94-1.62,2.7-5.13,3.81-8.15,3.25-.1.25-.19.48-.29.72a9,9,0,0,0,8.02-2.19A7.539,7.539,0,0,0,396.68,246.765Z" fill="#9f9ffb"/>
              </g>
            </g>
          </g>
        </g>
        <g id="그룹_1157" data-name="그룹 1157">
          <g id="그룹_1156" data-name="그룹 1156">
            <g id="그룹_1155" data-name="그룹 1155">
              <g id="그룹_1154" data-name="그룹 1154">
                <path id="패스_229" data-name="패스 229" d="M399.45,260.555c-3.16-1.28-6.1.18-8.09,2.54.2.16.41.31.62.46a6.176,6.176,0,0,1,6.03-2.6c3.81.66,5.38,4.11,6.12,7.63.27.02.54.02.81.02C404.27,265.2,402.86,261.935,399.45,260.555Z" fill="#9f9ffb"/>
              </g>
            </g>
          </g>
        </g>
        <g id="그룹_1162" data-name="그룹 1162">
          <g id="그룹_1161" data-name="그룹 1161">
            <g id="그룹_1160" data-name="그룹 1160">
              <g id="그룹_1159" data-name="그룹 1159">
                <g id="그룹_1158" data-name="그룹 1158">
                  <path id="패스_230" data-name="패스 230" d="M475.467,312.933a.63.63,0,0,1-.027.067,2.3,2.3,0,0,1-.578.743c-2.262,2.057-9.95,4.212-19.265,5.79l-1.092.185h0c-3.437.557-7.077,1.032-10.727,1.4-.3.027-.6.058-.895.085-16.04,1.512-32.053.772-32.473-5.025-.047-.665-.1-1.328-.145-1.995-.025-.345-.052-.692-.077-1.042-.155-2.153-.318-4.408-.493-7.01v0c-.022-.345-.045-.692-.07-1.05v0c-.225-3.41-.472-7.418-.76-12.508-.02-.37-.04-.745-.065-1.127-.057-1.023-.115-2.085-.175-3.195-.04-.715-.077-1.433-.12-2.15-.017-.31-.035-.623-.057-.93-.018-.393-.045-.783-.068-1.175-.142-2.276-.305-4.543-.5-6.748-.03-.387-.065-.77-.1-1.153v0a78,78,0,0,0-2.52-14.97v0c-.052-.173-.107-.338-.162-.505s-.115-.348-.173-.523c-.922-2.787-1.855-5.41-2.762-7.883v0c-.17-.465-.34-.927-.508-1.382-2.61-7.04-4.94-12.793-6.115-17.513-.085-.342-.165-.68-.237-1.012a19.407,19.407,0,0,1-.528-5.73.208.208,0,0,1,0-.043,4.119,4.119,0,0,1,.232-1c.628-1.768,2.4-3.75,4.563-5.653.225-.2.452-.395.687-.59a86.559,86.559,0,0,1,11.513-7.855l17.177-7.92a135.576,135.576,0,0,1,13.823,1.533h0c.3.05.6.1.9.157a48.783,48.783,0,0,1,8.26,2.12c.287.1.567.218.837.335.45.188.873.388,1.263.6,5.575,2.972,8.392,15.265,10.462,27.915q.147.878.288,1.76c.837,5.292,1.562,10.575,2.32,15.19.062.4.127.785.192,1.167.443,2.592.9,4.948,1.4,6.935.57,2.26,1.237,4.8,1.942,7.523.1.39.2.782.305,1.182,2.27,8.823,4.818,19.337,5.623,28.38q.068.78.12,1.543C477.025,304.962,476.75,309.525,475.467,312.933Z" fill="#002c79"/>
                </g>
              </g>
            </g>
          </g>
        </g>
        <g id="그룹_1195" data-name="그룹 1195">
          <g id="그룹_1166" data-name="그룹 1166">
            <g id="그룹_1165" data-name="그룹 1165">
              <g id="그룹_1164" data-name="그룹 1164">
                <g id="그룹_1163" data-name="그룹 1163">
                  <path id="패스_231" data-name="패스 231" d="M399.569,219.87a22.633,22.633,0,0,0,10.511,5.477,27.078,27.078,0,0,0,22.061-4.849,36,36,0,0,0,11.529-15.3c-.3-.054-.6-.108-.9-.158h0a38.077,38.077,0,0,1-3.893,7.157c-4.389,6.312-10.919,11.2-18.592,12.521-7.07,1.219-14.708-.52-20.028-5.435C400.023,219.474,399.794,219.672,399.569,219.87Z" fill="#9f9ffb"/>
                </g>
              </g>
            </g>
          </g>
          <g id="그룹_1170" data-name="그룹 1170">
            <g id="그룹_1169" data-name="그룹 1169">
              <g id="그룹_1168" data-name="그룹 1168">
                <g id="그룹_1167" data-name="그룹 1167">
                  <path id="패스_232" data-name="패스 232" d="M446.81,242.915c-.213-2.276-1.535-4.254-2.757-6.116l-.023-.036c-.008-.012-.015-.022-.025-.035-2.645-3.689-6.217-8.19-11.349-7.458-4.835.691-6.455,6.007-5.713,10.209.755,4.266,3.218,8.634,7.144,10.708a9.22,9.22,0,0,0,10.573-1.294A7.533,7.533,0,0,0,446.81,242.915Zm-1.733,4.2c-1.842,3.059-6.111,4.076-9.349,2.939-3.751-1.317-6.286-4.91-7.469-8.564-1.236-3.817-1.14-9.48,3.348-11.15,5.115-1.907,9.186,3.255,11.754,6.838C445.348,240.21,447.2,243.6,445.077,247.116Z" fill="#9f9ffb"/>
                </g>
              </g>
            </g>
          </g>
          <g id="그룹_1174" data-name="그룹 1174">
            <g id="그룹_1173" data-name="그룹 1173">
              <g id="그룹_1172" data-name="그룹 1172">
                <g id="그룹_1171" data-name="그룹 1171">
                  <path id="패스_233" data-name="패스 233" d="M404.922,260.085q.088.261.174.522c.054.167.108.334.162.506q3.6-4.677,7.523-9.1c1.754-1.979,3.509-4.037,5.451-5.837,1.005-.932,3.156-2.078,3.973-.243.491,1.1.009,2.744-.183,3.89a45,45,0,0,1-4.449,13.265,51.938,51.938,0,0,1-9.8,12.995v0c.038.381.073.766.1,1.152a56.752,56.752,0,0,0,4.772-5.128,48.937,48.937,0,0,0,7.471-12.387,45.585,45.585,0,0,0,2.33-7.429,39.156,39.156,0,0,0,.762-4.505,4.132,4.132,0,0,0-.337-2.563c-1.1-1.84-3.535-1.164-4.877-.046a61.111,61.111,0,0,0-6.294,6.69Q408.184,255.871,404.922,260.085Z" fill="#9f9ffb"/>
                </g>
              </g>
            </g>
          </g>
          <g id="그룹_1178" data-name="그룹 1178">
            <g id="그룹_1177" data-name="그룹 1177">
              <g id="그룹_1176" data-name="그룹 1176">
                <g id="그룹_1175" data-name="그룹 1175">
                  <path id="패스_234" data-name="패스 234" d="M408.445,285.163c.022.308.04.619.057.929a53.276,53.276,0,0,0,7.144-4.13c6.367-4.343,11.825-9.836,17.284-15.235,2.8-2.772,5.616-5.534,8.577-8.136a34.283,34.283,0,0,1,9.4-6.4c5.562-2.256,11.5-.986,16.382,2.084q-.1-.574-.193-1.166c-4.979-2.91-10.915-4.014-16.446-1.779a32.788,32.788,0,0,0-8.836,5.806c-3.1,2.652-6.032,5.5-8.934,8.37C425.629,272.675,417.748,280.6,408.445,285.163Z" fill="#9f9ffb"/>
                </g>
              </g>
            </g>
          </g>
          <g id="그룹_1182" data-name="그룹 1182">
            <g id="그룹_1181" data-name="그룹 1181">
              <g id="그룹_1180" data-name="그룹 1180">
                <g id="그룹_1179" data-name="그룹 1179">
                  <path id="패스_235" data-name="패스 235" d="M454.871,285.892c3.312,1.91,7.021,2.981,10.426,4.7a34.486,34.486,0,0,1,8.292,5.887,35.335,35.335,0,0,1,3.091,3.364q-.053-.764-.12-1.544-.887-1.027-1.854-1.987a35.944,35.944,0,0,0-7.009-5.431,87.641,87.641,0,0,0-9.369-4.267c-3.161-1.4-6.24-3.208-8.158-6.18a8.059,8.059,0,0,1,.062-9.361c4.455-6.089,13.392-4.763,19.321-1.881q.7.344,1.383.727-.153-.6-.3-1.183a26.726,26.726,0,0,0-2.576-1.176c-6.03-2.373-14.217-2.855-18.51,2.934C445.275,276.254,449.523,282.807,454.871,285.892Z" fill="#9f9ffb"/>
                </g>
              </g>
            </g>
          </g>
          <g id="그룹_1186" data-name="그룹 1186">
            <g id="그룹_1185" data-name="그룹 1185">
              <g id="그룹_1184" data-name="그룹 1184">
                <g id="그룹_1183" data-name="그룹 1183">
                  <path id="패스_236" data-name="패스 236" d="M447.15,311.707c2.33,2.761,4.808,5.421,7.352,8.009h0c.368-.06.731-.12,1.094-.182-2.607-2.648-5.154-5.363-7.57-8.176-2.881-3.352-5.793-8.185-3.018-12.5,2.97-4.618,9.525-1.225,13.2.639a46.711,46.711,0,0,1,16.653,14.246,2.274,2.274,0,0,0,.578-.744,47.367,47.367,0,0,0-20.4-15.924c-2.255-.91-4.78-1.845-7.241-1.267a6.116,6.116,0,0,0-4.182,3.814C441.833,304.066,444.327,308.363,447.15,311.707Z" fill="#9f9ffb"/>
                </g>
              </g>
            </g>
          </g>
          <g id="그룹_1190" data-name="그룹 1190">
            <g id="그룹_1189" data-name="그룹 1189">
              <g id="그룹_1188" data-name="그룹 1188">
                <g id="그룹_1187" data-name="그룹 1187">
                  <path id="패스_237" data-name="패스 237" d="M438.383,282.775c-.48,2.925-3.923,4.651-6.109,6.205l-22.651,16.094v0c.023.357.046.7.069,1.049l11.875-8.436q4.283-3.047,8.566-6.089l4.471-3.175a19.2,19.2,0,0,0,3.085-2.489c1.451-1.576,2.355-4.133.961-6.048-1.456-2-4.264-1.567-6.317-1.007A61.784,61.784,0,0,0,408.8,291.437c.023.382.044.757.063,1.128a61.851,61.851,0,0,1,23.364-12.718,8.286,8.286,0,0,1,4.088-.437A2.792,2.792,0,0,1,438.383,282.775Z" fill="#9f9ffb"/>
                </g>
              </g>
            </g>
          </g>
          <g id="그룹_1194" data-name="그룹 1194">
            <g id="그룹_1193" data-name="그룹 1193">
              <g id="그룹_1192" data-name="그룹 1192">
                <g id="그룹_1191" data-name="그룹 1191">
                  <path id="패스_238" data-name="패스 238" d="M410.186,313.137c.025.349.05.7.075,1.042a49.187,49.187,0,0,1,8.155-5.765A17.051,17.051,0,0,1,442.878,321.2l.9-.087a18.448,18.448,0,0,0-4.134-9.125,18.075,18.075,0,0,0-20.732-4.79C415.683,308.6,412.961,310.933,410.186,313.137Z" fill="#9f9ffb"/>
                </g>
              </g>
            </g>
          </g>
        </g>
        <g id="그룹_1203" data-name="그룹 1203">
          <g id="그룹_1202" data-name="그룹 1202">
            <g id="그룹_1201" data-name="그룹 1201">
              <g id="그룹_1200" data-name="그룹 1200">
                <g id="그룹_1199" data-name="그룹 1199">
                  <g id="그룹_1198" data-name="그룹 1198">
                    <g id="그룹_1197" data-name="그룹 1197">
                      <g id="그룹_1196" data-name="그룹 1196">
                        <path id="패스_239" data-name="패스 239" d="M420.752,219a16.631,16.631,0,0,1-9.594-3.33.583.583,0,0,1,.723-.916c.068.054,4.867,3.762,10.188,2.968,3.043-.454,5.7-2.289,7.9-5.453a.583.583,0,1,1,.957.666c-2.395,3.442-5.321,5.441-8.7,5.942A11.767,11.767,0,0,1,420.752,219Z" fill="#9f9ffb"/>
                      </g>
                    </g>
                  </g>
                </g>
              </g>
            </g>
          </g>
        </g>
      </g>
      <g id="그룹_1207" data-name="그룹 1207">
        <g id="그룹_1206" data-name="그룹 1206">
          <g id="그룹_1205" data-name="그룹 1205">
            <path id="패스_240" data-name="패스 240" d="M401.282,171.745s-5.479,4.276-4.488,8.417,5.529,8.562,5.529,8.562S403.591,178.657,401.282,171.745Z" fill="#39252b"/>
          </g>
        </g>
      </g>
      <g id="그룹_1211" data-name="그룹 1211">
        <g id="그룹_1210" data-name="그룹 1210">
          <g id="그룹_1209" data-name="그룹 1209">
            <g id="그룹_1208" data-name="그룹 1208">
              <path id="패스_241" data-name="패스 241" d="M401.84,186.191a2.706,2.706,0,0,0-1.821,2.866c.007,2.419,1.8,6.182,4.121,5.33S401.84,186.191,401.84,186.191Z" fill="#7d351d"/>
            </g>
          </g>
        </g>
      </g>
      <g id="그룹_1215" data-name="그룹 1215">
        <g id="그룹_1214" data-name="그룹 1214">
          <g id="그룹_1213" data-name="그룹 1213">
            <g id="그룹_1212" data-name="그룹 1212">
              <path id="패스_242" data-name="패스 242" d="M411.988,212.6a14.075,14.075,0,0,0,4.158,2.373,9.673,9.673,0,0,0,4.655.514l.758-.11.79-.209a13.868,13.868,0,0,0,2.48-.985,13.356,13.356,0,0,0,5.621-5.46,17.162,17.162,0,0,0,1.878-4.441c-.339-.632-.666-1.282-.988-1.947-1.439-2.965-2.735-6.208-4.022-9.465l.051-.28-.3-.618-.264-.536-.559.466-.829.684-14.367,11.894.288,2.469.151,1.3.258,2.234v0Z" fill="#c1725c"/>
            </g>
          </g>
        </g>
      </g>
      <g id="그룹_1217" data-name="그룹 1217">
        <g id="그룹_1216" data-name="그룹 1216">
          <path id="패스_243" data-name="패스 243" d="M427.553,191.931h0l-.089.023c-.023.211-.057.421-.092.635-.017.092-.033.186-.052.28q-.114.578-.292,1.167c-1.833,6.1-8.463,12.857-14.641,12.951a9.071,9.071,0,0,1-1.053-.042c-6.034-.582-8.43-7.043-8.447-12.165,0-.193,0-.384.009-.573,0,0-.058-.34-.17-.94-.092-.478-.216-1.124-.369-1.89-.463-2.286-1.2-5.654-2.128-8.948-1.628-5.773,1.124-14.981,12.843-18.642s17.371,4.566,17.828,10.8a23.467,23.467,0,0,1-.336,5.275c1.148-.068,2.444.394,3.361,2.31C435.615,185.715,431.76,190.939,427.553,191.931Z" fill="#c1725c"/>
        </g>
      </g>
      <g id="그룹_1227" data-name="그룹 1227">
        <g id="그룹_1221" data-name="그룹 1221">
          <g id="그룹_1220" data-name="그룹 1220">
            <g id="그룹_1219" data-name="그룹 1219">
              <g id="그룹_1218" data-name="그룹 1218">
                <path id="패스_244" data-name="패스 244" d="M404.47,187.971c.21.827.728,1.41,1.158,1.3s.607-.867.4-1.694-.728-1.41-1.157-1.3S404.26,187.144,404.47,187.971Z" fill="#2b2b39"/>
              </g>
            </g>
          </g>
        </g>
        <g id="그룹_1226" data-name="그룹 1226">
          <g id="그룹_1225" data-name="그룹 1225">
            <g id="그룹_1224" data-name="그룹 1224">
              <g id="그룹_1223" data-name="그룹 1223">
                <g id="그룹_1222" data-name="그룹 1222">
                  <path id="패스_245" data-name="패스 245" d="M407,186.491a.226.226,0,0,0-.015-.4c-.094-.044-2.334-1.06-3.9.495a.226.226,0,1,0,.318.32c1.343-1.335,3.371-.415,3.391-.405A.227.227,0,0,0,407,186.491Z" fill="#2b2b39"/>
                </g>
              </g>
            </g>
          </g>
        </g>
      </g>
      <g id="그룹_1237" data-name="그룹 1237">
        <g id="그룹_1231" data-name="그룹 1231">
          <g id="그룹_1230" data-name="그룹 1230">
            <g id="그룹_1229" data-name="그룹 1229">
              <g id="그룹_1228" data-name="그룹 1228">
                <path id="패스_246" data-name="패스 246" d="M411.7,186.362c.21.828.728,1.41,1.158,1.3s.608-.867.4-1.694-.729-1.41-1.158-1.3S411.489,185.535,411.7,186.362Z" fill="#2b2b39"/>
              </g>
            </g>
          </g>
        </g>
        <g id="그룹_1236" data-name="그룹 1236">
          <g id="그룹_1235" data-name="그룹 1235">
            <g id="그룹_1234" data-name="그룹 1234">
              <g id="그룹_1233" data-name="그룹 1233">
                <g id="그룹_1232" data-name="그룹 1232">
                  <path id="패스_247" data-name="패스 247" d="M414.225,184.882a.226.226,0,0,0-.014-.4c-.1-.044-2.335-1.06-3.9.5a.226.226,0,1,0,.319.32c1.342-1.335,3.37-.415,3.39-.4A.227.227,0,0,0,414.225,184.882Z" fill="#2b2b39"/>
                </g>
              </g>
            </g>
          </g>
        </g>
      </g>
      <g id="그룹_1241" data-name="그룹 1241" opacity="0.5">
        <g id="그룹_1240" data-name="그룹 1240">
          <g id="그룹_1239" data-name="그룹 1239">
            <g id="그룹_1238" data-name="그룹 1238">
              <path id="패스_248" data-name="패스 248" d="M413.866,190.005c.112.555,1.587.727,3.294.382s3-1.074,2.889-1.63-1.588-.727-3.3-.382S413.753,189.449,413.866,190.005Z" fill="#7d351d"/>
            </g>
          </g>
        </g>
      </g>
      <g id="그룹_1245" data-name="그룹 1245" opacity="0.5">
        <g id="그룹_1244" data-name="그룹 1244">
          <g id="그룹_1243" data-name="그룹 1243">
            <g id="그룹_1242" data-name="그룹 1242">
              <path id="패스_249" data-name="패스 249" d="M402.723,193.268c1.162-.379,1.937-.92,1.849-1.356s-1.005-.633-2.218-.535C402.508,192.143,402.632,192.79,402.723,193.268Z" fill="#7d351d"/>
            </g>
          </g>
        </g>
      </g>
      <g id="그룹_1251" data-name="그룹 1251">
        <g id="그룹_1250" data-name="그룹 1250">
          <g id="그룹_1249" data-name="그룹 1249">
            <g id="그룹_1248" data-name="그룹 1248">
              <g id="그룹_1247" data-name="그룹 1247">
                <g id="그룹_1246" data-name="그룹 1246">
                  <path id="패스_250" data-name="패스 250" d="M406.527,191.691a.469.469,0,0,1-.292-.189,1.058,1.058,0,0,1-.11-.045,4.291,4.291,0,0,1-1.778,1.39,4.355,4.355,0,1,1,2.615-3.412c.094-.045.189-.09.284-.133a3.43,3.43,0,0,1,.571-.213,5.161,5.161,0,1,0-.9,2.677C406.787,191.742,406.657,191.72,406.527,191.691Z" fill="#ff3478"/>
                </g>
              </g>
            </g>
          </g>
        </g>
      </g>
      <g id="그룹_1268" data-name="그룹 1268">
        <g id="그룹_1257" data-name="그룹 1257">
          <g id="그룹_1256" data-name="그룹 1256">
            <g id="그룹_1255" data-name="그룹 1255">
              <g id="그룹_1254" data-name="그룹 1254">
                <g id="그룹_1253" data-name="그룹 1253">
                  <g id="그룹_1252" data-name="그룹 1252">
                    <path id="패스_251" data-name="패스 251" d="M415.682,190.856a5.158,5.158,0,1,1,2.763-6.752A5.165,5.165,0,0,1,415.682,190.856Zm-3.671-8.758a4.338,4.338,0,1,0,5.677,2.324A4.342,4.342,0,0,0,412.011,182.1Z" fill="#ff3478"/>
                  </g>
                </g>
              </g>
            </g>
          </g>
        </g>
        <g id="그룹_1262" data-name="그룹 1262">
          <g id="그룹_1261" data-name="그룹 1261">
            <g id="그룹_1260" data-name="그룹 1260">
              <g id="그룹_1259" data-name="그룹 1259">
                <g id="그룹_1258" data-name="그룹 1258">
                  <path id="패스_252" data-name="패스 252" d="M398.976,190.906a.413.413,0,0,1-.382-.034.409.409,0,0,1-.123-.565,5.272,5.272,0,0,1,2.568-1.845.411.411,0,1,1,.285.77,4.581,4.581,0,0,0-2.163,1.52A.416.416,0,0,1,398.976,190.906Z" fill="#ff3478"/>
                </g>
              </g>
            </g>
          </g>
        </g>
        <g id="그룹_1267" data-name="그룹 1267">
          <g id="그룹_1266" data-name="그룹 1266">
            <g id="그룹_1265" data-name="그룹 1265">
              <g id="그룹_1264" data-name="그룹 1264">
                <g id="그룹_1263" data-name="그룹 1263">
                  <path id="패스_253" data-name="패스 253" d="M417.21,182.456a11.49,11.49,0,0,1,7.1-2.517l.073.833a10.68,10.68,0,0,0-6.693,2.351.411.411,0,0,1-.479-.667Z" fill="#ff3478"/>
                </g>
              </g>
            </g>
          </g>
        </g>
      </g>
      <g id="그룹_1272" data-name="그룹 1272">
        <g id="그룹_1271" data-name="그룹 1271">
          <g id="그룹_1270" data-name="그룹 1270">
            <g id="그룹_1269" data-name="그룹 1269">
              <path id="패스_254" data-name="패스 254" d="M411.988,212.6a17,17,0,0,0,10.039-10.505c-2.783,2.818-6.279,4.84-9.642,4.894a9.01,9.01,0,0,1-1.051-.044Z" fill="#2b2b39"/>
            </g>
          </g>
        </g>
      </g>
      <g id="그룹_1275" data-name="그룹 1275">
        <g id="그룹_1274" data-name="그룹 1274">
          <g id="그룹_1273" data-name="그룹 1273">
            <path id="패스_255" data-name="패스 255" d="M406.879,172.5c4.17-3.293,8.853-3.431,11.137-2.656,1.325.45,3.677,2.883,2.977,5.36s1.692,2.487,2.437,3.535-1.386,4.99-1.386,4.99l2.92,1.433s.409-1.179,1.1-2.717,4.5-2.581,4.5-2.581a21.165,21.165,0,0,0,1.145-7.49c-.141-4.138-7.968-12.393-19.908-10.25,0,0-3.287-5.871-6.787-5.229a3.9,3.9,0,0,0-3.328,3.983s-4.331-2.763-6.2.432S397.2,167.9,397.2,167.9s-5.438-.518-5.108,2.824,7.09,4.768,7.09,4.768S402.051,176.312,406.879,172.5Z" fill="#39252b"/>
          </g>
        </g>
      </g>
      <g id="그룹_1278" data-name="그룹 1278">
        <g id="그룹_1277" data-name="그룹 1277">
          <g id="그룹_1276" data-name="그룹 1276">
            <path id="패스_256" data-name="패스 256" d="M426.191,166.941s3.695-4.036,5.972-2.5c2.1,1.415-1.313,3.728-1.313,3.728s3.3-.783,3.829,1.133c.57,2.052-3.976,3.238-3.976,3.238Z" fill="#39252b"/>
          </g>
        </g>
      </g>
      <g id="그룹_1283" data-name="그룹 1283">
        <g id="그룹_1282" data-name="그룹 1282">
          <g id="그룹_1281" data-name="그룹 1281">
            <g id="그룹_1280" data-name="그룹 1280">
              <g id="그룹_1279" data-name="그룹 1279">
                <path id="패스_257" data-name="패스 257" d="M424.331,191.833a3.191,3.191,0,0,0,1.081.753,4.093,4.093,0,0,0,1.906.283c.019-.093.035-.187.05-.278.039-.214.071-.426.093-.637l.089-.021a4.446,4.446,0,0,1-.484.04,3.28,3.28,0,0,1-.824-.073,2.42,2.42,0,0,1-1.255-.688.452.452,0,0,0-.656.621Z" fill="#7d351d"/>
              </g>
            </g>
          </g>
        </g>
      </g>
      <g id="그룹_1292" data-name="그룹 1292" transform="translate(0 -3.317)">
        <g id="그룹_1291" data-name="그룹 1291" transform="translate(410.561 198.263)">
          <g id="그룹_1290" data-name="그룹 1290">
            <g id="그룹_1289" data-name="그룹 1289">
              <g id="그룹_1288" data-name="그룹 1288">
                <path id="패스_259" data-name="패스 259" d="M413.123,201.118a3.968,3.968,0,0,0,1.82-1.878.719.719,0,0,0-.314-.915.612.612,0,0,0-.837.338,2.558,2.558,0,0,1-2.556,1.426.651.651,0,0,0-.674.641.673.673,0,0,0,.588.737A3.849,3.849,0,0,0,413.123,201.118Z" transform="translate(-410.561 -198.263)" fill="#7d351d"/>
              </g>
            </g>
          </g>
        </g>
      </g>
      <g id="그룹_1297" data-name="그룹 1297">
        <g id="그룹_1296" data-name="그룹 1296">
          <g id="그룹_1295" data-name="그룹 1295">
            <g id="그룹_1294" data-name="그룹 1294">
              <g id="그룹_1293" data-name="그룹 1293">
                <path id="패스_260" data-name="패스 260" d="M428.007,188.738a.452.452,0,0,0,.284-.432c-.089-3.2,3.286-5.344,3.32-5.365a.451.451,0,0,0-.476-.767c-.158.1-3.851,2.429-3.747,6.157a.453.453,0,0,0,.464.439A.465.465,0,0,0,428.007,188.738Z" fill="#7d351d"/>
              </g>
            </g>
          </g>
        </g>
      </g>
      <g id="그룹_1302" data-name="그룹 1302">
        <g id="그룹_1301" data-name="그룹 1301">
          <g id="그룹_1300" data-name="그룹 1300">
            <g id="그룹_1299" data-name="그룹 1299">
              <g id="그룹_1298" data-name="그룹 1298">
                <path id="패스_261" data-name="패스 261" d="M431.464,186.176a.461.461,0,0,0,.146-.094.453.453,0,0,0,.012-.639,3.1,3.1,0,0,0-2.953-.729.451.451,0,1,0,.23.873,2.193,2.193,0,0,1,2.072.483A.452.452,0,0,0,431.464,186.176Z" fill="#7d351d"/>
              </g>
            </g>
          </g>
        </g>
      </g>
      <g id="그룹_1307" data-name="그룹 1307">
        <g id="그룹_1306" data-name="그룹 1306">
          <g id="그룹_1305" data-name="그룹 1305">
            <g id="그룹_1304" data-name="그룹 1304">
              <g id="그룹_1303" data-name="그룹 1303">
                <path id="패스_262" data-name="패스 262" d="M408.92,192.827a.452.452,0,0,0-.055-.825l-2.838-1.031,1.885-1.25a.45.45,0,0,0,.2-.321l.7-5.716a.451.451,0,1,0-.9-.11l-.675,5.509-2.458,1.63a.452.452,0,0,0,.1.8l3.681,1.337A.457.457,0,0,0,408.92,192.827Z" fill="#7d351d"/>
              </g>
            </g>
          </g>
        </g>
      </g>
      <g id="그룹_1312" data-name="그룹 1312">
        <g id="그룹_1311" data-name="그룹 1311">
          <g id="그룹_1310" data-name="그룹 1310">
            <g id="그룹_1309" data-name="그룹 1309">
              <g id="그룹_1308" data-name="그룹 1308">
                <path id="패스_263" data-name="패스 263" d="M409,185.663a.408.408,0,0,1-.382-.034,1.026,1.026,0,0,0-1.482.3.411.411,0,0,1-.679-.462,1.834,1.834,0,0,1,2.61-.527.41.41,0,0,1-.067.721Z" fill="#ff3478"/>
              </g>
            </g>
          </g>
        </g>
      </g>
      <g id="그룹_1317" data-name="그룹 1317">
        <g id="그룹_1316" data-name="그룹 1316">
          <g id="그룹_1315" data-name="그룹 1315">
            <g id="그룹_1314" data-name="그룹 1314">
              <g id="그룹_1313" data-name="그룹 1313">
                <path id="패스_264" data-name="패스 264" d="M416.354,180.279a1.243,1.243,0,0,0-.4-2.09c-.153-.057-3.777-1.355-6.173,1.423a1.242,1.242,0,1,0,1.881,1.623c1.284-1.49,3.409-.724,3.43-.716A1.244,1.244,0,0,0,416.354,180.279Z" fill="#2b2b39"/>
              </g>
            </g>
          </g>
        </g>
      </g>
      <g id="그룹_1322" data-name="그룹 1322">
        <g id="그룹_1321" data-name="그룹 1321">
          <g id="그룹_1320" data-name="그룹 1320">
            <g id="그룹_1319" data-name="그룹 1319">
              <g id="그룹_1318" data-name="그룹 1318">
                <path id="패스_265" data-name="패스 265" d="M401.668,183.162a1.241,1.241,0,0,0,.88-.608c.525-.911,2.262-.875,2.7-.816a1.242,1.242,0,1,0,.336-2.461c-1.383-.188-4.031.029-5.187,2.039a1.243,1.243,0,0,0,1.273,1.846Z" fill="#2b2b39"/>
              </g>
            </g>
          </g>
        </g>
      </g>
    </g>
    <g id="그룹_1331" data-name="그룹 1331" transform="matrix(0.996, 0.087, -0.087, 0.996, 1376.902, 3109.658)">
      <g id="그룹_1330" data-name="그룹 1330">
        <path id="패스_266" data-name="패스 266" d="M476.051,311.027s-24.285,8.9-51.327,8.38c-10.812-.209-14.443-4.022-14.443-4.022-.535,2.632-2.94,4.114-6.3,5.819,0,0,30.749,10.849,55.7,4.883C479.867,327.942,476.051,311.027,476.051,311.027Z" fill="#ffc7da"/>
      </g>
    </g>
    <g id="그룹_1410" data-name="그룹 1410" transform="matrix(0.996, 0.087, -0.087, 0.996, 1376.902, 3109.658)">
      <g id="그룹_1333" data-name="그룹 1333">
        <g id="그룹_1332" data-name="그룹 1332">
          <path id="패스_267" data-name="패스 267" d="M413.792,436.928l-1.019,7.9-13.147.01,1.019-7.9Z" fill="#c1725c"/>
        </g>
      </g>
      <g id="그룹_1337" data-name="그룹 1337">
        <g id="그룹_1336" data-name="그룹 1336">
          <g id="그룹_1335" data-name="그룹 1335">
            <path id="패스_268" data-name="패스 268" d="M368.2,465.662l47.868-.038a6.7,6.7,0,0,0,.618-2.663c.283-4.055-1.035-10.527-1.684-14.607-.079-.477-.146-.922-.2-1.324a14.2,14.2,0,0,1-.15-1.666c-.013-3.331-2.954-2.758-2.954-2.758-4.824,4.761-10.339-2.369-13.532-.026,0,0-1.375.991-5.161,4.419s-10.24,5.692-15.732,8c-7.091,2.979-9.093,5.952-9.478,8A3.759,3.759,0,0,0,368.2,465.662Z" fill="#173d7a"/>
          </g>
        </g>
      </g>
      <g id="그룹_1340" data-name="그룹 1340">
        <g id="그룹_1339" data-name="그룹 1339">
          <g id="그룹_1338" data-name="그룹 1338">
            <path id="패스_269" data-name="패스 269" d="M368.2,465.662l47.868-.038a6.7,6.7,0,0,0,.618-2.663L367.8,463A3.759,3.759,0,0,0,368.2,465.662Z" fill="#253f3d"/>
          </g>
        </g>
      </g>
      <g id="그룹_1354" data-name="그룹 1354">
        <g id="그룹_1353" data-name="그룹 1353">
          <g id="그룹_1352" data-name="그룹 1352">
            <g id="그룹_1351" data-name="그룹 1351">
              <g id="그룹_1350" data-name="그룹 1350">
                <g id="그룹_1349" data-name="그룹 1349">
                  <g id="그룹_1348" data-name="그룹 1348">
                    <g id="그룹_1347" data-name="그룹 1347">
                      <g id="그룹_1346" data-name="그룹 1346">
                        <g id="그룹_1345" data-name="그룹 1345">
                          <g id="그룹_1344" data-name="그룹 1344">
                            <g id="그룹_1343" data-name="그룹 1343">
                              <g id="그룹_1342" data-name="그룹 1342">
                                <g id="그룹_1341" data-name="그룹 1341">
                                  <path id="패스_270" data-name="패스 270" d="M411.185,465.628h1.422a10.563,10.563,0,0,1-2.6-7.675,13.473,13.473,0,0,1,5-9.6c-.079-.477-.146-.922-.2-1.324a14.634,14.634,0,0,0-5.942,10.866A11.682,11.682,0,0,0,411.185,465.628Z" fill="#edebf6"/>
                                </g>
                              </g>
                            </g>
                          </g>
                        </g>
                      </g>
                    </g>
                  </g>
                </g>
              </g>
            </g>
          </g>
        </g>
      </g>
      <g id="그룹_1357" data-name="그룹 1357">
        <g id="그룹_1356" data-name="그룹 1356">
          <g id="그룹_1355" data-name="그룹 1355">
            <path id="패스_271" data-name="패스 271" d="M393.83,449.827a.79.79,0,0,0,.183-1.558l-2.993-.741a.789.789,0,0,0-.374,1.534l2.993.741A.84.84,0,0,0,393.83,449.827Z" fill="#fff"/>
          </g>
        </g>
      </g>
      <g id="그룹_1360" data-name="그룹 1360">
        <g id="그룹_1359" data-name="그룹 1359">
          <g id="그룹_1358" data-name="그룹 1358">
            <path id="패스_272" data-name="패스 272" d="M396.663,447.537a.79.79,0,0,0,.183-1.557l-2.993-.741a.784.784,0,0,0-.953.577.793.793,0,0,0,.579.957l2.993.741A.786.786,0,0,0,396.663,447.537Z" fill="#fff"/>
          </g>
        </g>
      </g>
      <g id="그룹_1373" data-name="그룹 1373">
        <g id="그룹_1372" data-name="그룹 1372">
          <g id="그룹_1371" data-name="그룹 1371">
            <g id="그룹_1370" data-name="그룹 1370">
              <g id="그룹_1369" data-name="그룹 1369">
                <g id="그룹_1368" data-name="그룹 1368">
                  <g id="그룹_1367" data-name="그룹 1367">
                    <g id="그룹_1366" data-name="그룹 1366">
                      <g id="그룹_1365" data-name="그룹 1365">
                        <g id="그룹_1364" data-name="그룹 1364">
                          <g id="그룹_1363" data-name="그룹 1363">
                            <g id="그룹_1362" data-name="그룹 1362">
                              <g id="그룹_1361" data-name="그룹 1361">
                                <path id="패스_273" data-name="패스 273" d="M390.847,451.57a.79.79,0,0,0,.183-1.557l-2.993-.742a.789.789,0,0,0-.374,1.534l2.993.741A.786.786,0,0,0,390.847,451.57Z" fill="#fff"/>
                              </g>
                            </g>
                          </g>
                        </g>
                      </g>
                    </g>
                  </g>
                </g>
              </g>
            </g>
          </g>
        </g>
      </g>
      <g id="그룹_1376" data-name="그룹 1376">
        <g id="그룹_1375" data-name="그룹 1375">
          <g id="그룹_1374" data-name="그룹 1374">
            <path id="패스_274" data-name="패스 274" d="M387.864,453.245a.79.79,0,0,0,.183-1.557l-2.993-.741a.789.789,0,1,0-.374,1.533l2.993.742A.784.784,0,0,0,387.864,453.245Z" fill="#fff"/>
          </g>
        </g>
      </g>
      <g id="그룹_1389" data-name="그룹 1389">
        <g id="그룹_1388" data-name="그룹 1388">
          <g id="그룹_1387" data-name="그룹 1387">
            <g id="그룹_1386" data-name="그룹 1386">
              <g id="그룹_1385" data-name="그룹 1385">
                <g id="그룹_1384" data-name="그룹 1384">
                  <g id="그룹_1383" data-name="그룹 1383">
                    <g id="그룹_1382" data-name="그룹 1382">
                      <g id="그룹_1381" data-name="그룹 1381">
                        <g id="그룹_1380" data-name="그룹 1380">
                          <g id="그룹_1379" data-name="그룹 1379">
                            <g id="그룹_1378" data-name="그룹 1378">
                              <g id="그룹_1377" data-name="그룹 1377">
                                <path id="패스_275" data-name="패스 275" d="M384.61,454.8a.79.79,0,0,0,.183-1.558L381.8,452.5a.789.789,0,0,0-.374,1.534l2.993.741A.787.787,0,0,0,384.61,454.8Z" fill="#fff"/>
                              </g>
                            </g>
                          </g>
                        </g>
                      </g>
                    </g>
                  </g>
                </g>
              </g>
            </g>
          </g>
        </g>
      </g>
      <g id="그룹_1392" data-name="그룹 1392">
        <g id="그룹_1391" data-name="그룹 1391">
          <g id="그룹_1390" data-name="그룹 1390">
            <path id="패스_276" data-name="패스 276" d="M381.08,456.118a.79.79,0,0,0,.182-1.557l-2.993-.741a.784.784,0,0,0-.953.577.794.794,0,0,0,.58.957l2.993.741A.786.786,0,0,0,381.08,456.118Z" fill="#fff"/>
          </g>
        </g>
      </g>
      <g id="그룹_1396" data-name="그룹 1396">
        <g id="그룹_1395" data-name="그룹 1395">
          <path id="패스_277" data-name="패스 277" d="M444.148,321.007s-34.279,14.779-45.18,25.846c-11.061,11.228-1.52,92.122-1.52,92.122a128.721,128.721,0,0,0,17.555.431c3.141-28.444,10.1-63.935,8.586-76.4,0,0,44.047-5.657,50.751-16.489,5.967-9.64,2.193-32.768,2.193-32.768Z" fill="#ffc7da"/>
        </g>
      </g>
      <g id="그룹_1398" data-name="그룹 1398">
        <g id="그룹_1397" data-name="그룹 1397">
          <path id="패스_278" data-name="패스 278" d="M396.3,354.652a29.934,29.934,0,0,0,10.454,1.085c.479-.035.482-.785,0-.75a29.305,29.305,0,0,1-10.255-1.058.375.375,0,0,0-.2.723Z" fill="#39252b"/>
        </g>
      </g>
      <g id="그룹_1401" data-name="그룹 1401">
        <g id="그룹_1400" data-name="그룹 1400">
          <g id="그룹_1399" data-name="그룹 1399">
            <path id="패스_279" data-name="패스 279" d="M397.731,434.984q8.633-.322,17.272-.322a.4.4,0,0,0,0-.8q-8.639,0-17.272.323c-.516.019-.518.823,0,.8Z" fill="#39252b"/>
          </g>
        </g>
      </g>
      <g id="그룹_1404" data-name="그룹 1404">
        <g id="그룹_1403" data-name="그룹 1403">
          <g id="그룹_1402" data-name="그룹 1402">
            <path id="패스_280" data-name="패스 280" d="M435.148,323.4c-6.434,3.731-13.17,6.926-19.719,10.446-6.186,3.326-12.39,6.814-16.585,12.63a26.77,26.77,0,0,0-4.711,11.663c-.077.505.7.724.775.213a27.675,27.675,0,0,1,12.2-18.706c5.726-3.9,12.1-6.9,18.24-10.079,3.427-1.773,6.865-3.537,10.2-5.473a.4.4,0,0,0-.406-.694Z" fill="#39252b"/>
          </g>
        </g>
      </g>
      <g id="그룹_1407" data-name="그룹 1407">
        <g id="그룹_1406" data-name="그룹 1406">
          <g id="그룹_1405" data-name="그룹 1405">
            <path id="패스_281" data-name="패스 281" d="M471.87,312.4a153.086,153.086,0,0,1,1.528,15.92c-.032,5.582-.483,13.134-5.1,17.04-2.058,1.74-4.874,2.744-7.378,3.627a91.065,91.065,0,0,1-9.466,2.694c-6.633,1.559-13.369,2.681-20.116,3.614-3.855.533-7.723,1.02-11.6,1.377a.408.408,0,0,0-.4.4,87.07,87.07,0,0,1,.029,16.869c-.426,4.107-1.244,8.15-1.959,12.213-.76,4.321-1.1,8.653-1.5,13.019-.5,5.583-1.066,11.16-1.608,16.739-.593,6.108-1.183,12.22-1.556,18.347-.032.516.772.514.8,0,.673-11.045,1.963-22.046,2.981-33.061.43-4.663.712-9.328,1.5-13.949.658-3.874,1.459-7.722,1.947-11.623a85.921,85.921,0,0,0,.193-18.2,239.486,239.486,0,0,0,30.124-4.661c5.859-1.318,12.347-2.751,17.475-6.037,5.01-3.211,6.048-10.161,6.354-15.615.248-4.423-.733-14.585-1.4-18.981Z" fill="#39252b"/>
          </g>
        </g>
      </g>
      <g id="그룹_1409" data-name="그룹 1409">
        <g id="그룹_1408" data-name="그룹 1408">
          <path id="패스_282" data-name="패스 282" d="M470.7,341.226a9.538,9.538,0,0,1-2.746-.442c-8.158-2.457-12.043-23.957-12.2-24.871l1.318-.232c.039.215,3.9,21.6,11.272,23.821,2.361.711,4.174.446,5.545-.81,5.947-5.448,1.557-26.948,1.512-27.165l1.311-.272c.19.914,4.586,22.465-1.918,28.424A5.851,5.851,0,0,1,470.7,341.226Z" fill="#fff"/>
        </g>
      </g>
    </g>
    <g id="그룹_1449" data-name="그룹 1449" transform="matrix(0.996, 0.087, -0.087, 0.996, 1376.902, 3109.658)">
      <g id="그룹_1414" data-name="그룹 1414">
        <g id="그룹_1413" data-name="그룹 1413">
          <g id="그룹_1412" data-name="그룹 1412">
            <g id="그룹_1411" data-name="그룹 1411">
              <rect id="사각형_4" data-name="사각형 4" width="64.374" height="8.389" rx="0.222" transform="translate(378.112 321.046) rotate(-9.206)" fill="#2b2b39"/>
            </g>
          </g>
        </g>
      </g>
      <g id="그룹_1418" data-name="그룹 1418">
        <g id="그룹_1417" data-name="그룹 1417">
          <g id="그룹_1416" data-name="그룹 1416">
            <g id="그룹_1415" data-name="그룹 1415">
              <path id="패스_283" data-name="패스 283" d="M372.822,330.4a5.349,5.349,0,0,1-5.737-3.091l-19.1-42.578a4.339,4.339,0,0,1,3.266-6.059l28.451-4.612a4.339,4.339,0,0,1,4.63,2.457L406.788,324.9Z" fill="#2b2b39"/>
            </g>
          </g>
        </g>
        <g id="logo" transform="translate(363.367 308.389)">
          <path id="패스_1" d="M3.06,2.946,1.259.64l-1.23.2L2.866,4.254,2.529,6.6l1.183-.185L4.6.108,3.363.3Z" transform="translate(0.25 4.89)" fill="#ff3478"/>
          <path id="패스_2" d="M2.154.418a1.934,1.934,0,0,0-.775.288,1.774,1.774,0,0,0-.541.553A1.84,1.84,0,0,0,.578,2a2.105,2.105,0,0,0,.07.847,2.436,2.436,0,0,0,.4.8,2.632,2.632,0,0,0,.644.6,2.558,2.558,0,0,0,.8.354,2.26,2.26,0,0,0,.869.045l.011,0,.011,0,.012,0,.012,0a1.543,1.543,0,0,0,.315-.09A1.461,1.461,0,0,0,4,4.4a1.4,1.4,0,0,0,.422-.459l.125.424.97-.153L4.961,2.324A2.465,2.465,0,0,0,4.575,1.5,2.683,2.683,0,0,0,3.932.864,2.629,2.629,0,0,0,3.121.481a2.331,2.331,0,0,0-.89-.07H2.21l-.02,0-.019,0Zm.948,3.2a1.144,1.144,0,0,1-.445,0,1.3,1.3,0,0,1-.419-.162,1.357,1.357,0,0,1-.346-.3,1.273,1.273,0,0,1-.227-.4,1.109,1.109,0,0,1-.059-.437.962.962,0,0,1,.112-.39.909.909,0,0,1,.261-.3.977.977,0,0,1,.388-.17,1.144,1.144,0,0,1,.445,0,1.3,1.3,0,0,1,.419.162,1.356,1.356,0,0,1,.346.3,1.269,1.269,0,0,1,.227.4l0,.011,0,.012,0,.012,0,.011a1.067,1.067,0,0,1,.052.422.929.929,0,0,1-.113.375.883.883,0,0,1-.256.288.952.952,0,0,1-.378.16H3.107l-.005,0Z" transform="translate(4.989 4.083)" fill="#ff3478"/>
          <path id="패스_3" d="M2.242.346a1.794,1.794,0,0,0-.3.075,1.517,1.517,0,0,0-.3.139A1.076,1.076,0,0,0,1.39.773a.829.829,0,0,0-.165.3L1.081.58.038.747l1.207,4.09,1.088-.171L1.647,2.334A.837.837,0,0,1,1.609,2,.733.733,0,0,1,1.7,1.7a.7.7,0,0,1,.208-.226.767.767,0,0,1,.3-.124l.013,0,.014,0,.014,0,.013,0A.825.825,0,0,1,2.6,1.331a.95.95,0,0,1,.312.108,1,1,0,0,1,.262.209.935.935,0,0,1,.177.292l.01.028.009.027.008.027.008.026L4.07,4.389l1.091-.172-.705-2.4a2.583,2.583,0,0,0-.284-.645A1.9,1.9,0,0,0,3.715.66a1.664,1.664,0,0,0-.64-.3A2.169,2.169,0,0,0,2.242.346Z" transform="translate(10.182 3.313)" fill="#ff3478"/>
          <path id="패스_4" d="M2.153.415a1.96,1.96,0,0,0-.779.3,1.8,1.8,0,0,0-.542.563,1.862,1.862,0,0,0-.258.747,2.115,2.115,0,0,0,.075.852,2.44,2.44,0,0,0,.408.8,2.633,2.633,0,0,0,.652.6,2.562,2.562,0,0,0,.808.347,2.277,2.277,0,0,0,.876.036,1.962,1.962,0,0,0,.78-.3A1.8,1.8,0,0,0,4.716,3.8a1.86,1.86,0,0,0,.26-.747A2.113,2.113,0,0,0,4.9,2.2h0a2.444,2.444,0,0,0-.409-.8A2.637,2.637,0,0,0,3.84.8,2.569,2.569,0,0,0,3.03.451,2.282,2.282,0,0,0,2.153.415Zm.938,3.21a1.145,1.145,0,0,1-.447,0,1.306,1.306,0,0,1-.42-.163,1.353,1.353,0,0,1-.346-.3,1.262,1.262,0,0,1-.225-.4A1.1,1.1,0,0,1,1.6,2.321a.966.966,0,0,1,.116-.39.922.922,0,0,1,.266-.3.991.991,0,0,1,.392-.169,1.146,1.146,0,0,1,.448,0,1.3,1.3,0,0,1,.421.163,1.353,1.353,0,0,1,.346.3,1.265,1.265,0,0,1,.225.405l0,.012,0,.012,0,.012,0,.012a1.066,1.066,0,0,1,.048.425.933.933,0,0,1-.118.376.891.891,0,0,1-.261.287.963.963,0,0,1-.382.158H3.1l-.005,0Z" transform="translate(14.868 2.51)" fill="#ff3478"/>
          <path id="사각형_5" d="M.007.275,1.1.1,2.751,5.8l-1.089.171Z" transform="translate(19.555 0.639)" fill="#ff3478"/>
          <path id="패스_5" d="M2.007,4.168a1.321,1.321,0,0,1,.059.48.7.7,0,0,1-.113.335.653.653,0,0,1-.231.208.9.9,0,0,1-.3.1l.31,1.068a2.589,2.589,0,0,0,.549-.144,1.568,1.568,0,0,0,.56-.363,1.305,1.305,0,0,0,.344-.7,2.563,2.563,0,0,0-.1-1.142L1.957.1.879.277Z" transform="translate(21.32 1.961)" fill="#ff3478"/>
          <path id="패스_6" d="M2.2.423A2,2,0,0,0,1.4.715a1.828,1.828,0,0,0-.557.56,1.874,1.874,0,0,0-.272.748,2.107,2.107,0,0,0,.062.856,2.424,2.424,0,0,0,.4.806,2.627,2.627,0,0,0,.649.61,2.579,2.579,0,0,0,.81.357A2.312,2.312,0,0,0,3.38,4.7l.011,0,.012,0,.012,0,.013,0A1.6,1.6,0,0,0,3.749,4.6a1.508,1.508,0,0,0,.286-.152,1.453,1.453,0,0,0,.243-.208,1.436,1.436,0,0,0,.192-.257l.123.428.989-.156L5.034,2.347a2.459,2.459,0,0,0-.385-.834A2.683,2.683,0,0,0,3.18.485a2.382,2.382,0,0,0-.905-.07H2.252l-.02,0-.019,0Zm.932,3.234a1.174,1.174,0,0,1-.453,0,1.318,1.318,0,0,1-.424-.163A1.351,1.351,0,0,1,1.9,3.2a1.264,1.264,0,0,1-.227-.407,1.109,1.109,0,0,1-.056-.441.977.977,0,0,1,.118-.394A.937.937,0,0,1,2,1.648a1.009,1.009,0,0,1,.4-.172,1.171,1.171,0,0,1,.453,0,1.317,1.317,0,0,1,.425.163,1.354,1.354,0,0,1,.35.3,1.265,1.265,0,0,1,.227.408l0,.012,0,.012,0,.012,0,.012a1.067,1.067,0,0,1,.048.427A.945.945,0,0,1,3.8,3.2a.911.911,0,0,1-.264.291.986.986,0,0,1-.386.163H3.133l-.005,0Z" transform="translate(23.972 1.043)" fill="#ff3478"/>
        </g>
      </g>
      <g id="그룹_1438" data-name="그룹 1438">
        <g id="그룹_1424" data-name="그룹 1424">
          <g id="그룹_1423" data-name="그룹 1423">
            <path id="패스_285" data-name="패스 285" d="M353.321,291.179c1.406,2.739,4.707,4.593,7.374,4.142s3.689-3.037,2.283-5.776-4.708-4.594-7.374-4.143S351.915,288.44,353.321,291.179Z" fill="#f0c86a"/>
          </g>
        </g>
        <g id="그룹_1432" data-name="그룹 1432">
          <g id="그룹_1429" data-name="그룹 1429">
            <g id="그룹_1428" data-name="그룹 1428">
              <g id="그룹_1427" data-name="그룹 1427">
                <g id="그룹_1426" data-name="그룹 1426">
                  <g id="그룹_1425" data-name="그룹 1425">
                    <path id="패스_286" data-name="패스 286" d="M358.46,289.278c.281.548.7.96.929.921s.192-.515-.089-1.063-.7-.96-.929-.921S358.179,288.73,358.46,289.278Z" fill="#2b2b39"/>
                  </g>
                </g>
              </g>
            </g>
          </g>
          <g id="그룹_1431" data-name="그룹 1431">
            <g id="그룹_1430" data-name="그룹 1430">
              <path id="패스_287" data-name="패스 287" d="M355.941,289.7c.281.548.7.96.929.921s.192-.515-.089-1.063-.7-.96-.929-.921S355.66,289.156,355.941,289.7Z" fill="#2b2b39"/>
            </g>
          </g>
        </g>
        <g id="그룹_1437" data-name="그룹 1437">
          <g id="그룹_1436" data-name="그룹 1436">
            <g id="그룹_1435" data-name="그룹 1435">
              <g id="그룹_1434" data-name="그룹 1434">
                <g id="그룹_1433" data-name="그룹 1433">
                  <path id="패스_288" data-name="패스 288" d="M359.347,292.784c2.077-.351,1.458-2.564,1.451-2.586a.343.343,0,0,0-.292-.23.152.152,0,0,0-.165.207c.023.081.518,1.884-1.215,2.178a3.586,3.586,0,0,1-3.078-1.452.3.3,0,0,0-.334-.121c-.1.044-.113.171-.029.283C355.7,291.084,357.27,293.135,359.347,292.784Z" fill="#2b2b39"/>
                </g>
              </g>
            </g>
          </g>
        </g>
      </g>
      <g id="그룹_1446" data-name="그룹 1446">
        <g id="그룹_1441" data-name="그룹 1441">
          <g id="그룹_1440" data-name="그룹 1440">
            <g id="그룹_1439" data-name="그룹 1439">
              <path id="패스_289" data-name="패스 289" d="M384.337,276.52,406.6,324.5l3.251-.527-22.266-47.979a4.343,4.343,0,0,0-4.632-2.459l-3.251.527A4.343,4.343,0,0,1,384.337,276.52Z" fill="#2b2b39"/>
            </g>
          </g>
        </g>
        <g id="그룹_1442" data-name="그룹 1442">
          <path id="패스_290" data-name="패스 290" d="M401.9,306.837a7.887,7.887,0,0,1,7.721-1.763c4.652,1.414,10.814,9.112,10.814,9.112l-14.066,2.28Z" fill="#c1725c"/>
        </g>
        <g id="그룹_1445" data-name="그룹 1445">
          <g id="그룹_1444" data-name="그룹 1444">
            <g id="그룹_1443" data-name="그룹 1443">
              <path id="패스_291" data-name="패스 291" d="M406.229,324.244a.426.426,0,0,0,.082-.03.483.483,0,0,0,.236-.641l-22.138-47.9a.483.483,0,1,0-.877.406l22.137,47.895A.485.485,0,0,0,406.229,324.244Z" fill="#5f5f75"/>
            </g>
          </g>
        </g>
      </g>
      <g id="그룹_1448" data-name="그룹 1448">
        <g id="그룹_1447" data-name="그룹 1447">
          <path id="패스_292" data-name="패스 292" d="M380.271,302.323a3.946,3.946,0,0,1-3.069,5.691,6.844,6.844,0,0,1-7.052-4.051,3.944,3.944,0,0,1,3.069-5.69A6.843,6.843,0,0,1,380.271,302.323Z" fill="#5f5f75"/>
        </g>
      </g>
    </g>
    <g id="그룹_1488" data-name="그룹 1488" transform="matrix(0.996, 0.087, -0.087, 0.996, 1376.902, 3109.658)">
      <g id="그룹_1472" data-name="그룹 1472">
        <g id="그룹_1452" data-name="그룹 1452">
          <g id="그룹_1451" data-name="그룹 1451">
            <g id="그룹_1450" data-name="그룹 1450">
              <path id="패스_293" data-name="패스 293" d="M445.755,228.245l.954,1.014,1.01,1.1c.677.735,1.356,1.478,2.028,2.228,1.343,1.5,2.686,3.01,3.993,4.545,2.63,3.053,5.164,6.17,7.565,9.317,2.38,3.158,4.651,6.345,6.6,9.555.966,1.606,1.879,3.2,2.663,4.771a35.066,35.066,0,0,1,1.913,4.547c.063.181.109.352.166.528l.042.131.009.03-.01-.047-.018-.1-.025-.179-.014-.158c-.023-.387.023-.523.048-.533a2.475,2.475,0,0,1-.134,1.068,16.944,16.944,0,0,1-.686,2.054c-.3.754-.655,1.547-1.046,2.359-.773,1.629-1.69,3.315-2.674,5q-.738,1.266-1.53,2.536t-1.6,2.548c-1.089,1.7-2.231,3.387-3.39,5.078s-2.344,3.379-3.554,5.055-2.429,3.356-3.663,5.025l-1.862,2.494-.93,1.242-.914,1.206-.1.134a6.381,6.381,0,0,0,9.425,8.531l1.233-1.144,1.2-1.125q1.182-1.133,2.347-2.279c1.553-1.53,3.074-3.09,4.59-4.665s2.99-3.2,4.461-4.833,2.9-3.323,4.328-5.042c.71-.861,1.417-1.731,2.114-2.619s1.381-1.8,2.06-2.719c1.359-1.851,2.69-3.767,3.971-5.851.637-1.044,1.256-2.136,1.857-3.3a35.979,35.979,0,0,0,1.712-3.837,22.327,22.327,0,0,0,1.3-5.119,15.975,15.975,0,0,0,.024-3.709c-.017-.172-.048-.368-.075-.551s-.059-.371-.1-.569l-.06-.291-.047-.211-.06-.254c-.081-.335-.157-.681-.245-1.008a53.039,53.039,0,0,0-2.533-7.368c-.974-2.288-2.024-4.463-3.16-6.542a117.272,117.272,0,0,0-7.35-11.726c-2.606-3.705-5.361-7.23-8.208-10.657-1.436-1.7-2.883-3.391-4.378-5.044-.747-.826-1.5-1.649-2.268-2.467l-1.17-1.223-1.252-1.279a10.217,10.217,0,0,0-14.747,14.143Z" fill="#c1725c"/>
            </g>
          </g>
        </g>
        <g id="그룹_1455" data-name="그룹 1455">
          <g id="그룹_1454" data-name="그룹 1454">
            <g id="그룹_1453" data-name="그룹 1453">
              <path id="패스_294" data-name="패스 294" d="M476.112,261.122a17.1,17.1,0,0,0-1.908,2.541c-.258.419.4.8.658.385a16.129,16.129,0,0,1,1.789-2.386c.329-.364-.209-.9-.539-.54Z" fill="#7d351d"/>
            </g>
          </g>
        </g>
        <g id="그룹_1459" data-name="그룹 1459">
          <g id="그룹_1458" data-name="그룹 1458">
            <g id="그룹_1457" data-name="그룹 1457">
              <g id="그룹_1456" data-name="그룹 1456">
                <path id="패스_295" data-name="패스 295" d="M472.666,265.115a9.353,9.353,0,0,1,6.223-2.819c.484-.028.505.725.021.753a8.531,8.531,0,0,0-5.7,2.584c-.34.346-.888-.171-.547-.518Z" fill="#7d351d"/>
              </g>
            </g>
          </g>
        </g>
        <g id="그룹_1471" data-name="그룹 1471">
          <g id="그룹_1467" data-name="그룹 1467">
            <g id="그룹_1466" data-name="그룹 1466">
              <g id="그룹_1465" data-name="그룹 1465">
                <g id="그룹_1464" data-name="그룹 1464">
                  <g id="그룹_1463" data-name="그룹 1463">
                    <g id="그룹_1462" data-name="그룹 1462">
                      <g id="그룹_1461" data-name="그룹 1461">
                        <g id="그룹_1460" data-name="그룹 1460">
                          <path id="패스_296" data-name="패스 296" d="M459.351,304.128a6.207,6.207,0,0,1-3.773,7.728,15.214,15.214,0,0,0-4.5,2.538c-2.739,2.5-5.28,6.218-7.021,7.09-2.569,1.287-1.7-1.687-1.542-2.041a42.93,42.93,0,0,1,2.956-5.151s-4.687,4.214-5.73,6.467-3.212,2.8-3.44.14,3.97-8.377,5.561-9.646a13.225,13.225,0,0,0-5.076,4.858c-1.514,3.005-2.459,3.877-3.6,4.627s-2.408-1.674-.187-5.815a14.852,14.852,0,0,1,6.011-6.448,24.856,24.856,0,0,0-4.593,1.657c-2.776,1.269-4.249,4.881-6.074,4.835-1.866-.047.014-4.133,2.058-5.922s3.38-3.265,6.667-4.388a43.845,43.845,0,0,1,8.6-2.283c2.13-.2,9.608-1.9,12.236-.293A3.806,3.806,0,0,1,459.351,304.128Z" fill="#c1725c"/>
                        </g>
                      </g>
                    </g>
                  </g>
                </g>
              </g>
            </g>
          </g>
          <g id="그룹_1470" data-name="그룹 1470">
            <g id="그룹_1469" data-name="그룹 1469">
              <g id="그룹_1468" data-name="그룹 1468">
                <path id="패스_297" data-name="패스 297" d="M451.551,301.682s-6.326-1.623-8.45-1.028-5.644.362-5.365,1.82,4.617,1.626,4.617,1.626Z" fill="#c1725c"/>
              </g>
            </g>
          </g>
        </g>
      </g>
      <g id="그룹_1475" data-name="그룹 1475">
        <g id="그룹_1474" data-name="그룹 1474">
          <g id="그룹_1473" data-name="그룹 1473">
            <path id="패스_298" data-name="패스 298" d="M440.364,226.666c1.091,5.138,10.3,11.726,15.218,17.719.213.258,1.694,1.825,1.9,2.071a31.2,31.2,0,0,1,3.054,4.1c8.116-5.061,12.12-8.183,15.608-13.8.173-.278.341-.559.5-.84a19.5,19.5,0,0,0,2.269-6.022,67.1,67.1,0,0,0-17.063-17.127c-.3-.2-.581-.4-.865-.586a47.712,47.712,0,0,0-7.528-4.229,22.11,22.11,0,0,0-7.284,3.825c-.256.206-.5.416-.744.634C441.211,216.181,439.241,221.384,440.364,226.666Z" fill="#002c79"/>
          </g>
        </g>
      </g>
      <g id="그룹_1479" data-name="그룹 1479">
        <g id="그룹_1478" data-name="그룹 1478">
          <g id="그룹_1477" data-name="그룹 1477">
            <g id="그룹_1476" data-name="그룹 1476">
              <path id="패스_299" data-name="패스 299" d="M464.367,226.189c3.047,4.386,7.373,7.605,11.774,10.567.173-.278.341-.559.5-.84-4.05-2.72-8.032-5.663-10.968-9.59-2.861-3.825-4.634-8.811-3.826-13.559-.3-.2-.581-.4-.865-.586C460.023,217.028,461.548,222.127,464.367,226.189Z" fill="#9f9ffb"/>
            </g>
          </g>
        </g>
      </g>
      <g id="그룹_1487" data-name="그룹 1487">
        <g id="그룹_1486" data-name="그룹 1486">
          <g id="그룹_1485" data-name="그룹 1485">
            <g id="그룹_1480" data-name="그룹 1480">
              <path id="패스_300" data-name="패스 300" d="M455.206,243.658a7.514,7.514,0,0,1,.755.727c1.427-4.425.51-9.688-.716-14.171-1.81-6.617-4.377-13.321-9.076-18.437q-.315-.345-.644-.68c-.442-.45-1.113.262-.671.712.194.2.385.4.571.6,4.34,4.7,6.794,10.82,8.55,16.9C455.238,233.69,456.491,239.127,455.206,243.658Z" fill="#9f9ffb"/>
            </g>
            <g id="그룹_1482" data-name="그룹 1482">
              <g id="그룹_1481" data-name="그룹 1481">
                <path id="패스_301" data-name="패스 301" d="M444.806,230.709q7.434,10.284,15.462,20.116c.3.375.833-.159.53-.53q-7.963-9.754-15.344-19.964c-.281-.388-.932-.014-.648.378Z" fill="#322380"/>
              </g>
            </g>
            <g id="그룹_1484" data-name="그룹 1484">
              <g id="그룹_1483" data-name="그룹 1483">
                <path id="패스_302" data-name="패스 302" d="M446.213,236.732l4.668,2c.439.188.821-.458.379-.648l-4.668-2c-.439-.188-.822.458-.379.648Z" fill="#322380"/>
              </g>
            </g>
          </g>
        </g>
      </g>
    </g>
    <g id="그룹_1490" data-name="그룹 1490" transform="matrix(0.996, 0.087, -0.087, 0.996, 1376.902, 3109.658)">
      <g id="그룹_1489" data-name="그룹 1489">
        <path id="패스_303" data-name="패스 303" d="M407.012,266.969a84.244,84.244,0,0,0-9.352-27.124c-.232-.423-.88-.045-.647.378a83.655,83.655,0,0,1,9.276,26.946c.077.475.8.273.723-.2Z" fill="#322380"/>
      </g>
    </g>
  </g>
</svg>
