<svg xmlns="http://www.w3.org/2000/svg" width="131.948" height="101.863" viewBox="0 0 131.948 101.863">
  <g id="그룹_11956" data-name="그룹 11956" transform="translate(-998.059 -3280.23)">
    <g id="그룹_7" data-name="그룹 7" transform="translate(872.053 3220.991)">
      <path id="패스_19" data-name="패스 19" d="M190.738,76.989l7.333.731a13.052,13.052,0,0,0-6.042-12.348l-3.919,6.235A5.684,5.684,0,0,1,190.738,76.989Z" transform="translate(-33.188 -4.131)" fill="#eb86a8"/>
      <path id="패스_20" data-name="패스 20" d="M161.877,103.423a5.683,5.683,0,0,1-9.414.321l-5.955,4.338a13.054,13.054,0,0,0,23.541-6.392l-7.333-.731A5.656,5.656,0,0,1,161.877,103.423Z" transform="translate(-5.167 -28.102)" fill="#edebf6"/>
      <path id="패스_21" data-name="패스 21" d="M141.79,109.039l5.955-4.338a5.692,5.692,0,0,1-.993-2.321l-7.248,1.332A13.074,13.074,0,0,0,141.79,109.039Z" transform="translate(-0.448 -29.059)" fill="#ffa2c0"/>
      <path id="패스_22" data-name="패스 22" d="M147.076,69.265a5.69,5.69,0,0,1,5.694-2.594l1.136-7.278a13.054,13.054,0,0,0-14.851,15.26l7.248-1.332A5.663,5.663,0,0,1,147.076,69.265Z" fill="#ffc7da"/>
      <path id="패스_23" data-name="패스 23" d="M181.519,66.99a5.671,5.671,0,0,1,2.151.8l3.919-6.235a13.006,13.006,0,0,0-4.935-1.848Z" transform="translate(-28.749 -0.319)" fill="#efefef"/>
    </g>
    <g id="그룹_1457" data-name="그룹 1457" transform="translate(998.059 3293.334)">
      <path id="패스_650" data-name="패스 650" d="M628.668,134.818c-.12,12.813-6.12,25.223-5,37.988l4.5-.192c-.692-5.636,2.109-11.055,4.9-16s5.737-10.234,5.375-15.9" transform="translate(-612.5 -88.477)" fill="#ce572e"/>
      <path id="패스_651" data-name="패스 651" d="M627.907,134.533a112.815,112.815,0,0,1,8.721,15.817,7.3,7.3,0,0,1,.746,2.361,7.56,7.56,0,0,1-.568,2.974q-2.473,7.372-4.946,14.746l-4.417-.849a89.709,89.709,0,0,1,3.344-14.041,4.036,4.036,0,0,0,.3-1.92,3.973,3.973,0,0,0-1.108-1.828q-7.189-8.093-13.853-16.633a1.721,1.721,0,0,1-.46-.948c-.011-.358.319-.741.662-.637" transform="translate(-600.557 -88.959)" fill="#f5751a"/>
      <g id="그룹_1441" data-name="그룹 1441" transform="translate(45.118 37.988)">
        <path id="패스_652" data-name="패스 652" d="M609.977,129.107c-.234,8.346-.495,16.687-.486,25.038s.52,16.694.565,25.038c0,.488-.7.471-.746,0-.734-8.283-.651-16.727-.661-25.038-.008-8.345.122-16.709.638-25.038.026-.439.7-.448.69,0Z" transform="translate(-608.649 -128.774)" fill="#b2b2b2"/>
      </g>
      <path id="패스_653" data-name="패스 653" d="M624.925,113.792c.934.593,3.064.648,3.409-.4a4.07,4.07,0,0,1,1.668-2.3c-2.152.292-.885-5.657-2.442-5.878l-6.088-.415.188,6.757Z" transform="translate(-601.2 -99.945)" fill="#ffad80"/>
      <path id="패스_654" data-name="패스 654" d="M627.73,109.278a4.231,4.231,0,0,0,3.093-.253c2.086-.969,1.922-1.5,1.953-2.412.375.053,0,.893.37.943a.311.311,0,0,0,.137-.019,1.355,1.355,0,0,0,.585-1.949c-.415-.662-1.285-.721-2.063-.778-.423-.03-5.022-2.189-7.651-.218s-2.441,5.63-1.032,6.757a20.2,20.2,0,0,0,2.03,1.488l3.7.493.094-1.325a1.268,1.268,0,0,1-.75-1.408c.188-1.031,1.971.282,1.971.282a2.291,2.291,0,0,0-.375-2.627" transform="translate(-606.139 -100.341)" fill="#253e56"/>
      <path id="패스_655" data-name="패스 655" d="M626.2,110.821l4.436,1.723s1.056,2.358-1.374,4.822-6.16,1.266-6.16,1.266l-.6-8.3Z" transform="translate(-603.496 -97.833)" fill="#ffb833"/>
      <path id="패스_656" data-name="패스 656" d="M626.478,112.669a4.993,4.993,0,0,0-4.128,2.851,11.726,11.726,0,0,0-.912,4.851,174.069,174.069,0,0,0,.625,22.871,57.268,57.268,0,0,0,14,.252q-1.092-9.911-1.581-19.865a21.951,21.951,0,0,0-1.007-6.7c-.8-2.142-2.322-4.6-4.768-4.948-1.991-.282-6.216-.7-7.343,2.814" transform="translate(-607.036 -97.27)" fill="#1e5062"/>
      <path id="패스_657" data-name="패스 657" d="M635.072,134.181c.366.543-.119,1.256-.806,1.523a5.172,5.172,0,0,1-2.25.156l-9.927-.763a1.179,1.179,0,0,1-.806-.267.7.7,0,0,1-.105-.5,22.075,22.075,0,0,1,.966-5.354.964.964,0,0,1,.4-.609,1.477,1.477,0,0,1,.708-.124,45.358,45.358,0,0,1,10.813,1.224,1.348,1.348,0,0,1,.793.388.866.866,0,0,1,.077.641" transform="translate(-605.982 -90.99)" fill="#ffb833"/>
      <path id="패스_658" data-name="패스 658" d="M632.676,132.32a92.276,92.276,0,0,1-11.2.017.291.291,0,0,1-.224-.079.286.286,0,0,1-.042-.189c0-.442,0-.883.007-1.325a.52.52,0,0,1,.039-.231c.093-.184.35-.185.554-.16a43.128,43.128,0,0,0,9.251.07l2.814.025-.188,1.877Z" transform="translate(-604.716 -90.188)" fill="#ce572e"/>
      <path id="패스_659" data-name="패스 659" d="M611.591,115.715a3.252,3.252,0,0,1,2.227-2.477,7.364,7.364,0,0,1,4.276,1.685,16.655,16.655,0,0,1,3.563,4.341,56.569,56.569,0,0,1,5.191,10.7,4.988,4.988,0,0,0,1.009,1.911,4.786,4.786,0,0,0,1.618.929l3.431,1.411a.418.418,0,0,0,.1.122,8.06,8.06,0,0,0,1.533.955.407.407,0,0,0,.186.757c.276.032.554.054.832.076a9.449,9.449,0,0,0-2.316,1.414.311.311,0,0,0-.069.1c-.055.033-.116.057-.171.093a.483.483,0,0,0-.129.124c-.216.053-.43.105-.647.151a.332.332,0,0,0-.279.283c-.129.043-.256.091-.383.137l-6.349-1.49a16.893,16.893,0,0,1-5.129-1.8c-2.633-1.632-4.15-4.557-5.341-7.415a67.653,67.653,0,0,1-2.77-8.035A8.26,8.26,0,0,1,611.591,115.715Z" transform="translate(-592.935 -96.722)" fill="#256b62"/>
      <path id="패스_660" data-name="패스 660" d="M634.829,114.2a7.236,7.236,0,0,0-5.658-1.745,4.661,4.661,0,0,0-3.921,4.07c1.2.082.691.466,1.708,1.108.676-2.5,5.388-4.069,7.822-3.184" transform="translate(-611.246 -97.052)" fill="#ffb833"/>
      <path id="패스_661" data-name="패스 661" d="M631.021,121.174c.153-.579.319-1.154.484-1.73l.572-2q.661-2.314,1.324-4.626a2.174,2.174,0,0,1,1.66-.869c1.881-.2,3.744.363,5.592.665a9.614,9.614,0,0,1,1.546,2.808c.926,2.644.878,5.513.927,8.314.112,6.252.764,12.481,1.417,18.7l-.261.868a18.863,18.863,0,0,1-11.487,1.461,3.213,3.213,0,0,1-1.788-.782,3.406,3.406,0,0,1-.709-1.741A47.363,47.363,0,0,1,631.021,121.174Z" transform="translate(-626.757 -97.229)" fill="#ffb833"/>
      <path id="패스_662" data-name="패스 662" d="M610.135,129.988q.151-1.376.3-2.753a1.828,1.828,0,0,0-.194-1.328,1.176,1.176,0,0,0-1.629-.053,2.373,2.373,0,0,0-.709,1.627c-.055.6,0,1.218-.094,1.817" transform="translate(-562.792 -92.017)" fill="#1e5062"/>
      <path id="패스_663" data-name="패스 663" d="M613.706,132.3l.994.766a5.385,5.385,0,0,0,1.5.912,1.819,1.819,0,0,0,1.68-.185,1.116,1.116,0,0,0,.229-1.552,1.168,1.168,0,0,0,.836-.445c.162-.285-.108-.752-.408-.621.312-.319.638-.813.362-1.162a.943.943,0,0,0-.7-.253l-1.343-.094a2.078,2.078,0,0,0,2.048-.55,2.48,2.48,0,0,1-1.594-.492,2.653,2.653,0,0,0-.593-.409,1.5,1.5,0,0,0-1.52.563,3.81,3.81,0,0,1-1.285,1.118l-4.659-2.222s-1.831,4.222-1.549,5.489S613.706,132.3,613.706,132.3Z" transform="translate(-571.12 -91.209)" fill="#ffb833"/>
      <g id="그룹_1447" data-name="그룹 1447" transform="translate(2.605 15.253)">
        <g id="그룹_1442" data-name="그룹 1442" transform="translate(2.304)">
          <path id="패스_664" data-name="패스 664" d="M640.943,113.07c-.614-.329-1.269,0-1.837.193-1.424.484-1.19,1-1.336,1.953a8.687,8.687,0,0,1-.771,2.777c-.915,1.643-2.513,1.643-4.2,1.334-.774-.141-.451-1.354.328-1.186,1.166.252,2.5.618,3.141-1.025a14.777,14.777,0,0,0,.5-1.6c.216-.807.09-1.646.73-2.286.879-.879,2.676-1.295,3.655-.434.153.135-.043.363-.211.274Z" transform="translate(-632.354 -112.324)" fill="#f5751a"/>
        </g>
        <g id="그룹_1443" data-name="그룹 1443" transform="translate(9.287 0.876)">
          <path id="패스_665" data-name="패스 665" d="M631.727,113.1c2.442,3.98,1.822,10.159,2.126,14.69.253,3.772.426,7.547.677,11.32.122,1.827.4,2.835-.428,4.312-.341.608-1.244.07-.93-.545,1.557-3.052-.039-9.479-.27-12.824-.347-5.013.611-12.094-1.685-16.656a.3.3,0,0,1,.51-.3Z" transform="translate(-631.182 -112.957)" fill="#f5751a"/>
        </g>
        <g id="그룹_1444" data-name="그룹 1444" transform="translate(2.987 6.374)">
          <path id="패스_666" data-name="패스 666" d="M639.023,117.369c-2.246,8.006-1.01,16.023-.39,24.173.065.842-1.23.828-1.3,0-.71-7.944-2.478-16.93,1.071-24.436.169-.354.724-.1.622.263Z" transform="translate(-636.258 -116.936)" fill="#f5751a"/>
        </g>
        <g id="그룹_1445" data-name="그룹 1445" transform="translate(3.809 21.405)">
          <path id="패스_667" data-name="패스 667" d="M639.675,128.3a10.433,10.433,0,0,1-3.253.672c-.394.03-3.716.2-3.76-.38a.264.264,0,0,1-.329.25l-.1-.025a.337.337,0,0,1-.245-.322v-.133a.4.4,0,0,1,.388-.388,30.011,30.011,0,0,1,3.508.211c1.253,0,2.485-.254,3.727-.369.3-.029.3.387.065.484Z" transform="translate(-631.987 -127.812)" fill="#f5751a"/>
        </g>
        <g id="그룹_1446" data-name="그룹 1446" transform="translate(0 14.497)">
          <path id="패스_668" data-name="패스 668" d="M641.416,123.913c-1.01.661-2.5.253-3.492-.25-.544-.275-.068-1.042.47-.8a9.107,9.107,0,0,0,1.436.489,13.749,13.749,0,0,1,1.555.329.131.131,0,0,1,.032.236Z" transform="translate(-637.683 -122.813)" fill="#f5751a"/>
        </g>
      </g>
      <path id="패스_669" data-name="패스 669" d="M622.421,161.408a1.313,1.313,0,0,0,1.293-.732,1.083,1.083,0,0,0-.466-1.3,1.518,1.518,0,0,0,1.7-1.126,1.777,1.777,0,0,0-.992-1.779,1.449,1.449,0,0,0,1.545-.4.986.986,0,0,0-.185-1.392,2.272,2.272,0,0,0-.844-.322,37.366,37.366,0,0,0-6.077-.9.714.714,0,0,0-.307.025.46.46,0,0,0-.243.448,1.276,1.276,0,0,0,.571,1.037,1.707,1.707,0,0,0-1.263.721.786.786,0,0,0,.478,1.133,1.517,1.517,0,0,0-.676,1.3,2.649,2.649,0,0,0,1.061,2.645" transform="translate(-590.638 -81.357)" fill="#253e56"/>
      <path id="패스_670" data-name="패스 670" d="M635.343,161.524a1.309,1.309,0,0,0,1.118-.98,1.081,1.081,0,0,0-.72-1.177,1.519,1.519,0,0,0,1.436-1.448,1.775,1.775,0,0,0-1.332-1.54,1.453,1.453,0,0,0,1.433-.7.987.987,0,0,0-.463-1.325,2.309,2.309,0,0,0-.893-.145,37.673,37.673,0,0,0-6.132.352.689.689,0,0,0-.3.087.458.458,0,0,0-.148.488,1.269,1.269,0,0,0,.77.9,1.706,1.706,0,0,0-1.09.963.785.785,0,0,0,.7,1.013,1.519,1.519,0,0,0-.4,1.408,2.65,2.65,0,0,0,1.577,2.376" transform="translate(-618.969 -81.074)" fill="#253e56"/>
      <path id="패스_671" data-name="패스 671" d="M615.935,167.027l.7-9.009,7.463,1.83-2.253,5.63s3.238.423,4.225,1.408.422.985.422.985l-10.278.14Z" transform="translate(-590.199 -79.614)" fill="#a94931"/>
      <path id="패스_672" data-name="패스 672" d="M627.549,166.677l.7-7.321,7.461-.422-2.253,6.193s3.24.423,4.225,1.408.423.985.423.985l-10.279.14Z" transform="translate(-617.866 -79.264)" fill="#a94931"/>
      <g id="그룹_1448" data-name="그룹 1448" transform="translate(9.936 33.147)">
        <path id="패스_673" data-name="패스 673" d="M633.251,135.035c-.422-3.016-.744-6.616.307-9.533a.32.32,0,0,1,.578-.076c2.02,3.788,1.978,9.565,1.751,13.726-.1,1.737-.684,2.742-1.826,1.019-.029-.043.042-.084.069-.04a1.546,1.546,0,0,0,1.238-2.085q-.019-1.109-.062-2.217a51.659,51.659,0,0,0-.68-6.525q-.2-1.088-.464-2.166c-.479-2.1-.524,1.24-.542,1.737-.072,2.038.064,4.076-.026,6.114-.008.187-.314.249-.343.046Z" transform="translate(-632.852 -125.271)" fill="#d65664"/>
      </g>
      <g id="그룹_1449" data-name="그룹 1449" transform="translate(8.215 32.875)">
        <path id="패스_674" data-name="패스 674" d="M635.6,136.84c-.344-2.424-.756-4.837-1.1-7.261-.217-1.508-.561-2.967.148-4.353a.314.314,0,0,1,.536,0c1.111,1.669,3.965,15.118,1.136,15.383-2.964.278-3.527-12.65-2.565-14.4a.379.379,0,0,1,.647,0c2.228,3.575,1.594,9.634,1.324,13.636a.373.373,0,0,1-.745,0c0-3.96.2-7.8-.535-11.722q-.531-1.528-.311.4c0,1.071.069,2.142.135,3.209a37.664,37.664,0,0,0,1.073,6.932q1.474-.249,1.049-1.65c.03-1.079-.025-2.16-.079-3.238a42.871,42.871,0,0,0-.878-6.314q-.077-1.41-.59-.039c.048,1.037.214,2.084.311,3.119.195,2.1.4,4.179.662,6.268.015.122-.2.151-.214.029Z" transform="translate(-633.324 -125.075)" fill="#d65664"/>
      </g>
      <g id="그룹_1450" data-name="그룹 1450" transform="translate(8.103 42.415)">
        <path id="패스_675" data-name="패스 675" d="M636.414,132.3c-.419,2.683-1.43,5.223-1.638,7.943-.22,2.905,1.776,4.257,2.666,6.638.171.459-.493.662-.739.312-1.444-2.045-2.616-3.462-2.88-6.028-.311-3.028,1.24-6.183,2.091-9a.26.26,0,0,1,.5.138Z" transform="translate(-633.782 -131.978)" fill="#d65664"/>
      </g>
      <g id="그룹_1451" data-name="그룹 1451" transform="translate(7.671 44.43)">
        <path id="패스_676" data-name="패스 676" d="M636.878,133.675a9.929,9.929,0,0,1,.7,5.5c-.394,2.4-2.139,4.451-2.683,6.855-.077.344-.572.246-.589-.08a8.646,8.646,0,0,1,1.288-4.382,9.339,9.339,0,0,0,.607-7.7c-.144-.438.518-.6.679-.187Z" transform="translate(-634.297 -133.436)" fill="#d65664"/>
      </g>
      <path id="패스_677" data-name="패스 677" d="M639.959,126.027a11.471,11.471,0,0,1-3.7.806,8.546,8.546,0,0,1-1.188.054,8.966,8.966,0,0,1-3.186-.977c.066.493.134.987.2,1.48a.43.43,0,0,0,.1.269.424.424,0,0,0,.2.082,12.936,12.936,0,0,0,7.021-.155.415.415,0,0,0,.209-.124.442.442,0,0,0,.058-.271l-.011-1.1" transform="translate(-625.551 -91.88)" fill="#ce572e"/>
      <path id="패스_678" data-name="패스 678" d="M631.123,120.844l11.829,3.942s.281-1.408.07-1.477S631.123,120.844,631.123,120.844Z" transform="translate(-627.635 -93.816)" fill="#ce572e"/>
      <path id="패스_679" data-name="패스 679" d="M643.15,119.936c-.282,0-11.97,2.182-11.97,2.182l11.758-3.871Z" transform="translate(-627.762 -94.808)" fill="#ce572e"/>
      <g id="그룹_1452" data-name="그룹 1452" transform="translate(2.283 26.853)">
        <path id="패스_680" data-name="패스 680" d="M639.617,120.989c.576,2.294-.961,4.313-.634,6.634s2.955,3.23,2.741,5.789c-.036.428-.72.593-.8.109-.423-2.477-2.684-3.875-3.029-6.36-.276-2,.977-4.048.978-6.071a.382.382,0,0,1,.748-.1Z" transform="translate(-637.851 -120.717)" fill="#ce572e"/>
      </g>
      <g id="그룹_1453" data-name="그룹 1453" transform="translate(0 26.93)">
        <path id="패스_681" data-name="패스 681" d="M643.47,121.233a4.639,4.639,0,0,1-1.462,1.776,5.994,5.994,0,0,0-1.64,4.331c-.153,2.305.605,4.55-.238,6.772a.337.337,0,0,1-.659-.09,39.729,39.729,0,0,1-.046-8.335c.365-2.484,2.047-3.163,3.575-4.818.247-.267.6.072.47.363Z" transform="translate(-639.214 -120.773)" fill="#ce572e"/>
      </g>
      <path id="패스_682" data-name="패스 682" d="M640.457,105.983a4.756,4.756,0,0,0-2.143-2.453,11.841,11.841,0,0,0-4.638-2.177,3.07,3.07,0,0,0-1.728.122,1.477,1.477,0,0,0-.933,1.359,1.506,1.506,0,0,0,.912,1.194,3.605,3.605,0,0,0,1.542.257,6.83,6.83,0,0,0-4.24,1.632,1.42,1.42,0,0,0-.473.616c-.162.522.249,1.045.684,1.377.553.42,1.462.662,1.853.088a5.783,5.783,0,0,0-1.419,1.762,1.69,1.69,0,0,0-.158,1.577,1.324,1.324,0,0,0,1.4.521,3.891,3.891,0,0,0,1.411-.717,2.487,2.487,0,0,0,1.961,2.969c1.566.229,2.9-1.072,3.919-2.279" transform="translate(-621.672 -101.287)" fill="#253e56"/>
      <g id="그룹_1454" data-name="그룹 1454" transform="translate(3.715 11.94)">
        <path id="패스_683" data-name="패스 683" d="M642.509,115.146s-10.932-1.649-11.682-2.025-.188-3.1,2.065-3.19,10.216,1.126,10.216,1.126" transform="translate(-630.513 -109.926)" fill="#b2b2b2"/>
        <path id="패스_684" data-name="패스 684" d="M632,114.83c-.029.061.081.084.144.059a2.672,2.672,0,0,0,1.656-1.895,2.033,2.033,0,0,0-1.057-2.193,3.517,3.517,0,0,0-1.548-.2,1.1,1.1,0,0,0-.583.12,1.036,1.036,0,0,0-.318.387,3.963,3.963,0,0,0-.556,1.544,1.892,1.892,0,0,0,.484,1.523,1.523,1.523,0,0,0,1.9.146" transform="translate(-620.144 -109.67)" fill="#828282"/>
      </g>
      <g id="그룹_1455" data-name="그룹 1455" transform="translate(10.159 12.066)">
        <path id="패스_685" data-name="패스 685" d="M635.88,110.789c-.838.453-1.616.417-2.229,1.289-.8,1.133-.146,2.372.358,3.433.257.545-.434,1.191-.885.681a4.239,4.239,0,0,1-.58-4.409c.481-1.119,2.282-2.362,3.4-1.453a.292.292,0,0,1-.06.457Z" transform="translate(-632.18 -110.018)" fill="#ffb833"/>
      </g>
      <g id="그룹_1456" data-name="그룹 1456" transform="translate(5.311 11.405)">
        <path id="패스_686" data-name="패스 686" d="M639.094,110.575a1.507,1.507,0,0,0-1.809,1.157,1.562,1.562,0,0,0,.585,2.121c.779.354.1,1.56-.679,1.161-1.544-.792-1.533-2.558-.934-3.969.486-1.147,2.264-2.224,3.158-.886.148.221-.094.464-.321.416Z" transform="translate(-635.882 -109.539)" fill="#ffb833"/>
      </g>
    </g>
    <g id="그룹_4" data-name="그룹 4" transform="translate(626.04 3247.248)">
      <path id="패스_4" data-name="패스 4" d="M479.842,86.6a24.124,24.124,0,1,0,24.124,24.124A24.124,24.124,0,0,0,479.842,86.6Zm0,44.235a20.112,20.112,0,1,1,20.112-20.111A20.112,20.112,0,0,1,479.842,130.831Z" fill="#ffc7da"/>
      <g id="그룹_3" data-name="그룹 3" transform="translate(461.263 92.141)">
        <path id="패스_5" data-name="패스 5" d="M502,98.267a.983.983,0,1,1-.983-.983A.983.983,0,0,1,502,98.267Z" transform="translate(-482.589 -97.284)" fill="#ffc7da"/>
        <path id="패스_6" data-name="패스 6" d="M502,166.1a.983.983,0,1,1-.983-.983A.983.983,0,0,1,502,166.1Z" transform="translate(-482.589 -129.926)" fill="#ffc7da"/>
        <path id="패스_7" data-name="패스 7" d="M484.977,102.417a.983.983,0,1,1-1.343-.36A.983.983,0,0,1,484.977,102.417Z" transform="translate(-474.46 -99.518)" fill="#ffc7da"/>
        <path id="패스_8" data-name="패스 8" d="M518.894,161.163a.983.983,0,1,1-1.343-.36A.983.983,0,0,1,518.894,161.163Z" transform="translate(-490.781 -127.786)" fill="#ffc7da"/>
        <path id="패스_9" data-name="패스 9" d="M472.307,114.524a.983.983,0,1,1-1.343.36A.982.982,0,0,1,472.307,114.524Z" transform="translate(-468.537 -105.517)" fill="#ffc7da"/>
        <path id="패스_10" data-name="패스 10" d="M531.053,148.442a.983.983,0,1,1-1.343.36A.982.982,0,0,1,531.053,148.442Z" transform="translate(-496.805 -121.838)" fill="#ffc7da"/>
        <path id="패스_11" data-name="패스 11" d="M467.39,131.344a.983.983,0,1,1-.983.983A.983.983,0,0,1,467.39,131.344Z" transform="translate(-466.407 -113.674)" fill="#ffc7da"/>
        <path id="패스_12" data-name="패스 12" d="M535.224,131.344a.983.983,0,1,1-.983.983A.983.983,0,0,1,535.224,131.344Z" transform="translate(-499.049 -113.674)" fill="#ffc7da"/>
        <path id="패스_13" data-name="패스 13" d="M471.54,148.369a.983.983,0,1,1-.36,1.343A.982.982,0,0,1,471.54,148.369Z" transform="translate(-468.64 -121.803)" fill="#ffc7da"/>
        <path id="패스_14" data-name="패스 14" d="M530.286,114.452a.983.983,0,1,1-.36,1.343A.983.983,0,0,1,530.286,114.452Z" transform="translate(-496.909 -105.482)" fill="#ffc7da"/>
        <path id="패스_15" data-name="패스 15" d="M483.647,161.038a.983.983,0,1,1,.359,1.342A.983.983,0,0,1,483.647,161.038Z" transform="translate(-474.639 -127.726)" fill="#ffc7da"/>
        <path id="패스_16" data-name="패스 16" d="M517.564,102.291a.983.983,0,1,1,.36,1.343A.983.983,0,0,1,517.564,102.291Z" transform="translate(-490.96 -99.457)" fill="#ffc7da"/>
      </g>
      <path id="패스_17" data-name="패스 17" d="M493.951,103.695v15.253l-8.914,5.726" transform="translate(-14.108 -8.228)" fill="none" stroke="#fff" stroke-miterlimit="10" stroke-width="1"/>
      <circle id="타원_3" data-name="타원 3" cx="1.654" cy="1.654" r="1.654" transform="translate(478.189 109.066)" fill="#ffc7da"/>
    </g>
    <g id="그룹_1440" data-name="그룹 1440" transform="translate(1057.174 3296.653)">
      <path id="패스_629" data-name="패스 629" d="M592.453,159.661c-.044.347,3.056,3.575,1.356,6.453-.2.3-8.289-2.781-12.388-4.3,1.43-1.3,3.542-1.432,5.476-1.494a3.792,3.792,0,0,1,2.474.495" transform="translate(-576.774 -82.442)" fill="#a94931"/>
      <path id="패스_630" data-name="패스 630" d="M600.82,162.231c-3.268.842-7.543.981-7.5,4.136a74.139,74.139,0,0,0,10.6-.2q.018-1.737.04-3.472c0-.245-.022-.538-.236-.656s-.507.257-.282.354" transform="translate(-572.229 -81.542)" fill="#a94931"/>
      <path id="패스_631" data-name="패스 631" d="M600.271,134.891c.119,12.814,6.12,25.224,5,37.989-3.046.842-7.645,2.6-4.5-.192.694-5.637-2.109-11.055-4.894-16s-5.737-10.234-5.375-15.9" transform="translate(-573.314 -91.905)" fill="#253e56"/>
      <path id="패스_632" data-name="패스 632" d="M592.092,134.605a112.886,112.886,0,0,0-8.721,15.817,7.3,7.3,0,0,0-.746,2.362,7.552,7.552,0,0,0,.568,2.973L588.14,170.5l4.418-.847a89.811,89.811,0,0,0-3.345-14.042,4.025,4.025,0,0,1-.3-1.92,3.962,3.962,0,0,1,1.107-1.828q7.191-8.093,13.855-16.634a1.716,1.716,0,0,0,.46-.948c.01-.357-.321-.739-.663-.637" transform="translate(-576.318 -92.386)" fill="#1e5062"/>
      <g id="그룹_1433" data-name="그룹 1433" transform="translate(1.274 36.244)">
        <path id="패스_633" data-name="패스 633" d="M579,130.436c2.315,8.024,4.658,16.033,6.743,24.122s3.668,16.294,5.722,24.382c.12.474.8.265.719-.2-1.357-8.2-3.559-16.359-5.63-24.407-2.08-8.081-4.3-16.146-6.888-24.082a.345.345,0,0,0-.665.184Z" transform="translate(-578.98 -130.012)" fill="#ce572e"/>
      </g>
      <path id="패스_634" data-name="패스 634" d="M593.42,113.867c-.934.592-2.2-.069-2.847-.966s-.961-2.009-1.668-2.859a6.066,6.066,0,0,0,1.88-4.751l6.088-.415-.188,6.755Z" transform="translate(-573.915 -103.372)" fill="#a94931"/>
      <path id="패스_635" data-name="패스 635" d="M591.317,104.6a2.012,2.012,0,0,0-2.063.778,1.353,1.353,0,0,0,.585,1.949.312.312,0,0,0,.137.021c.375-.05-.006-.891.369-.944a3.944,3.944,0,0,0,5.046,2.665" transform="translate(-573.857 -103.49)" fill="#253e56"/>
      <path id="패스_636" data-name="패스 636" d="M589.776,103.986q4.6-.044,9.2-.2a27.689,27.689,0,0,1,.8,10.371.981.981,0,0,1-.14.47,1.146,1.146,0,0,1-.433.316,7.4,7.4,0,0,1-3.872,1.157,3.3,3.3,0,0,1-3.018-3.911,13.761,13.761,0,0,1,1.006-2,2.183,2.183,0,0,0,.083-2.12,3.1,3.1,0,0,0-.558-.593q-1.8-1.6-3.6-3.2" transform="translate(-573.786 -103.787)" fill="#ce572e"/>
      <path id="패스_637" data-name="패스 637" d="M597.844,112.693a4.985,4.985,0,0,1,4.128,2.85,11.707,11.707,0,0,1,.912,4.851,173.8,173.8,0,0,1-.625,22.873,57.2,57.2,0,0,1-14,.25q1.092-9.909,1.582-19.864a22,22,0,0,1,1.006-6.7,8.106,8.106,0,0,1,4.769-4.948" transform="translate(-574.162 -100.648)" fill="#ce572e"/>
      <path id="패스_638" data-name="패스 638" d="M588.248,134.255c-.365.543.12,1.255.807,1.523a5.209,5.209,0,0,0,2.249.156l9.928-.764a1.159,1.159,0,0,0,.8-.267.685.685,0,0,0,.106-.5,22.08,22.08,0,0,0-.967-5.354.965.965,0,0,0-.4-.611,1.48,1.48,0,0,0-.708-.123,45.342,45.342,0,0,0-10.813,1.223,1.337,1.337,0,0,0-.793.39.855.855,0,0,0-.079.64q.294,2.1.587,4.2a.417.417,0,0,0,.177.343c.131.072.368-.028.3-.145" transform="translate(-574.213 -94.417)" fill="#ffb833"/>
      <path id="패스_639" data-name="패스 639" d="M589.032,132.394a92.25,92.25,0,0,0,11.2.017.3.3,0,0,0,.224-.079.3.3,0,0,0,.043-.189q0-.663-.008-1.327a.5.5,0,0,0-.037-.231c-.094-.184-.351-.184-.556-.16a42.938,42.938,0,0,1-9.25.07" transform="translate(-573.866 -93.615)" fill="#253e56"/>
      <path id="패스_640" data-name="패스 640" d="M599.021,113.1a6.969,6.969,0,0,0-4.659,2.9A16.658,16.658,0,0,0,592,121.092a56.526,56.526,0,0,0-2.345,11.658,4.993,4.993,0,0,1-.5,2.1,4.78,4.78,0,0,1-1.334,1.3l-5.294,3.966a1.144,1.144,0,0,0-.521,1.718l1.1,2.432,9.879-5.185a16.91,16.91,0,0,0,4.514-3.032c2.141-2.239,2.877-5.449,3.314-8.515a67.391,67.391,0,0,0,.669-8.472,8.275,8.275,0,0,0-.623-3.933,3.077,3.077,0,0,0-3.277-1.772" transform="translate(-576.627 -100.23)" fill="#ce572e"/>
      <path id="패스_641" data-name="패스 641" d="M592.2,114.272a7.233,7.233,0,0,1,5.658-1.744,4.659,4.659,0,0,1,3.919,4.07c-1.2.08-.69.466-1.707,1.108-.676-2.5-5.388-4.069-7.822-3.186" transform="translate(-572.656 -100.479)" fill="#ffb833"/>
      <path id="패스_642" data-name="패스 642" d="M596.393,143.047c.652-6.219,1.3-12.448,1.415-18.7.05-2.8,0-5.669.927-8.314s3.079-5.069,5.861-5.413a2.357,2.357,0,0,1,2.163.64,2.93,2.93,0,0,1,.449,1.035l1.65,5.76.572,2c.164.575.329,1.151.482,1.729a47.323,47.323,0,0,1,.724,21.071,3.373,3.373,0,0,1-.709,1.741,3.209,3.209,0,0,1-1.787.782,18.876,18.876,0,0,1-11.489-1.459" transform="translate(-571.054 -101.189)" fill="#ffb833"/>
      <path id="패스_643" data-name="패스 643" d="M579.267,134.308q-.491-1.294-.984-2.59a1.819,1.819,0,0,1-.145-1.334,1.178,1.178,0,0,1,1.564-.459,2.366,2.366,0,0,1,1.093,1.4c.206.571.308,1.177.546,1.736" transform="translate(-578.058 -93.848)" fill="#1e5062"/>
      <path id="패스_644" data-name="패스 644" d="M583.644,133.04a3.842,3.842,0,0,1-1.526-.762,1.5,1.5,0,0,0-1.613-.164,2.693,2.693,0,0,0-.47.545,2.462,2.462,0,0,1-1.419.875,2.071,2.071,0,0,0,2.12.021l-1.277.427a.945.945,0,0,0-.618.422c-.18.408.26.8.641,1.034-.323-.051-.466.469-.239.7a1.163,1.163,0,0,0,.922.221,1.116,1.116,0,0,0,.609,1.446,1.82,1.82,0,0,0,1.674-.242,5.361,5.361,0,0,0,1.222-1.258l.77-.99" transform="translate(-577.845 -93.032)" fill="#a94931"/>
      <g id="그룹_1439" data-name="그룹 1439" transform="translate(27.956 12.088)">
        <g id="그룹_1434" data-name="그룹 1434" transform="translate(1.517)">
          <path id="패스_645" data-name="패스 645" d="M599.486,113a2.209,2.209,0,0,1,1.951.055c1.645.756,1.363.963,1.54,2.108a8.239,8.239,0,0,0,.89,2.924c.824,1.332,2.366,1.172,3.72.911.319-.062.185-.557-.135-.491-1.712.354-2.775.346-3.613-1.559a7.874,7.874,0,0,1-.466-1.791,3.05,3.05,0,0,0-.575-1.726,2.874,2.874,0,0,0-3.385-.554c-.07.054-.008.173.072.123Z" transform="translate(-599.384 -112.534)" fill="#f5751a"/>
        </g>
        <g id="그룹_1435" data-name="그룹 1435" transform="translate(0 0.859)">
          <path id="패스_646" data-name="패스 646" d="M601.187,113.191c-1.1,1.271-1.092,2.778-1.218,4.395-.25,3.245-.514,6.49-.72,9.739-.2,3.067-.365,6.136-.55,9.2-.116,1.914-.987,5.068.217,6.762.163.231.546.015.384-.225-1.2-1.766-.191-6.066-.072-8.161.133-2.347.292-4.692.442-7.037s.29-4.689.423-7.035-.191-5.561,1.282-7.495c.083-.108-.1-.249-.189-.146Z" transform="translate(-598.286 -113.155)" fill="#f5751a"/>
        </g>
        <g id="그룹_1436" data-name="그룹 1436" transform="translate(7 6.389)">
          <path id="패스_647" data-name="패스 647" d="M603.358,117.333c2.687,7.826,1.213,16.17.578,24.227-.026.346.509.341.539,0,.68-7.847,2.492-16.869-.864-24.335-.064-.142-.3-.041-.253.108Z" transform="translate(-603.351 -117.156)" fill="#f5751a"/>
        </g>
        <g id="그룹_1437" data-name="그룹 1437" transform="translate(1.034 21.365)">
          <path id="패스_648" data-name="패스 648" d="M599.105,128.189a13.492,13.492,0,0,0,3.484.585,15.6,15.6,0,0,0,1.885-.033,17.59,17.59,0,0,0,1.774-.173c-.042.084.053.211.145.144l.1-.069a.141.141,0,0,0,.062-.153l-.033-.14a.163.163,0,0,0-.152-.116c-1.048-.105-2.171.228-3.239.223a22.59,22.59,0,0,1-3.969-.462.1.1,0,0,0-.054.195Z" transform="translate(-599.034 -127.993)" fill="#f5751a"/>
        </g>
        <g id="그룹_1438" data-name="그룹 1438" transform="translate(8.846 14.572)">
          <path id="패스_649" data-name="패스 649" d="M604.724,123.853a4.645,4.645,0,0,0,3.3-.428c.221-.108.028-.428-.192-.328a8.58,8.58,0,0,1-3.1.652.053.053,0,0,0-.014.1Z" transform="translate(-604.687 -123.078)" fill="#f5751a"/>
        </g>
      </g>
    </g>
    <circle id="타원_5" data-name="타원 5" cx="3.926" cy="3.926" r="3.926" transform="translate(1096.441 3296.21) rotate(-76.782)" fill="#ff3478"/>
  </g>
</svg>
