<svg xmlns="http://www.w3.org/2000/svg" xmlns:xlink="http://www.w3.org/1999/xlink" width="319.285" height="150.222" viewBox="0 0 319.285 150.222">
  <defs>
    <linearGradient id="linear-gradient" x1="0.5" x2="0.5" y2="1" gradientUnits="objectBoundingBox">
      <stop offset="0" stop-color="#f16468"/>
      <stop offset="1" stop-color="#ed1e79"/>
    </linearGradient>
  </defs>
  <g id="그룹_11955" data-name="그룹 11955" transform="translate(-981.616 -3489.325)">
    <g id="그룹_3446" data-name="그룹 3446" transform="translate(905.688 3342.193)">
      <path id="패스_2967" data-name="패스 2967" d="M442.072,303.46c-.012,0-1.768-.673-14.233-.969-12.857-.306-35.814-4.033-54.952-7.937s-29.228-6.2-50.349-5.892-39.488,12.551-67.651,11.326-65.814,13.469-65.814,13.469c.973,1.076,3.259,2.443,6.475,3.977a1.184,1.184,0,0,0-.136.1,1.117,1.117,0,0,0-.342.548l-3.674-.258-.142,1.582,1.107.018-1.1.609.311.452,3.509-1.876a.779.779,0,0,0,.152.263.96.96,0,0,0,1.35-.016,1.084,1.084,0,0,0,.376-.769c3.437,1.563,7.733,3.271,12.521,5a1.1,1.1,0,0,0-.221.422l-3.674-.258-.142,1.581,1.107.018-1.1.609.311.452,3.509-1.875a.767.767,0,0,0,.152.262.959.959,0,0,0,1.35-.016,1.112,1.112,0,0,0,.356-.6c4.073,1.446,8.457,2.9,12.94,4.291,0,.008,0,.015-.006.023a1.122,1.122,0,0,0,.028.646l-3.175,1.867.778,1.384.923-.612-.559,1.122.511.2,1.831-3.532a.778.778,0,0,0,.275.13.947.947,0,0,0,1.083-.705c6.738,2.057,13.639,3.956,19.989,5.463l-.032.026a1.12,1.12,0,0,0-.342.548l-3.674-.258-.142,1.582,1.107.018-1.1.609.31.452,3.509-1.876a.794.794,0,0,0,.152.263.96.96,0,0,0,1.35-.016,1.039,1.039,0,0,0,.352-1,139.741,139.741,0,0,0,14.709,2.709,1.136,1.136,0,0,0-.241.469,1.117,1.117,0,0,0,.028.646L258.566,340l.777,1.384.923-.612-.559,1.122.512.2,1.831-3.533a.776.776,0,0,0,.274.131.959.959,0,0,0,1.1-.777,1.1,1.1,0,0,0-.071-.749c.908.084,1.761.141,2.549.168a179.729,179.729,0,0,1,24.868,2.893,1.035,1.035,0,0,0-.75.783,1.117,1.117,0,0,0,.029.646l-3.175,1.867.778,1.384.923-.612-.559,1.122.511.2,1.831-3.532a.781.781,0,0,0,.274.131.961.961,0,0,0,1.1-.777,1.01,1.01,0,0,0-.387-1.106c4.74.836,9.455,1.755,14.131,2.639q2.52.477,5.037.969a1.141,1.141,0,0,0,.089,1.221l-2.462,2.739,1.16,1.084.695-.862-.193,1.239.547.033.678-3.921a.774.774,0,0,0,.3.042.96.96,0,0,0,.817-1.074,1.145,1.145,0,0,0-.028-.187q7.856,1.547,15.689,3.212c.434.092.869.2,1.3.308a1.069,1.069,0,0,0-.2.9,1.114,1.114,0,0,0,.31.567l-2.026,3.076,1.308.9.559-.956-.007,1.254.546-.049.087-3.978a.782.782,0,0,0,.3,0,.96.96,0,0,0,.648-1.185c-.008-.039-.019-.077-.031-.114,5.1,1.5,10.3,3.831,15.563,3.51.259-.015.516-.04.772-.069a1.14,1.14,0,0,0,1.019.7l.627,3.63,1.57-.24-.247-1.079.853.919.365-.41-2.659-2.96a.779.779,0,0,0,.219-.211.824.824,0,0,0,.112-.669c3.666-.834,7.06-2.784,10.49-4.448a.784.784,0,0,0-.027.2.96.96,0,0,0,1.021.884,1.12,1.12,0,0,0,.62-.183l2.577,2.632,1.156-1.089-.816-.748,1.224.272.069-.544-3.87-.927a.782.782,0,0,0,.06-.3.9.9,0,0,0-.674-.831c.879-.4,1.763-.769,2.657-1.083,2.021-.712,4.06-1.411,6.083-2.152a.724.724,0,0,0-.005.088.959.959,0,0,0,1.021.884,1.12,1.12,0,0,0,.62-.183l2.577,2.632,1.156-1.089-.816-.748,1.224.272.068-.544-3.87-.927a.782.782,0,0,0,.06-.3.848.848,0,0,0-.4-.7,64.6,64.6,0,0,0,7.567-3.387,1,1,0,0,0,.994.687,1.113,1.113,0,0,0,.62-.183l2.577,2.632,1.156-1.089-.816-.748,1.224.272.068-.544-3.87-.927a.774.774,0,0,0,.061-.3.85.85,0,0,0-.411-.708c1-.6,1.983-1.236,2.934-1.929.8-.581,1.556-1.2,2.291-1.844a1.05,1.05,0,0,0,.9.468,1.118,1.118,0,0,0,.62-.183l2.577,2.632,1.156-1.088-.817-.748,1.224.272.068-.544-3.87-.926a.776.776,0,0,0,.061-.3.887.887,0,0,0-.6-.8,87.217,87.217,0,0,0,6.89-7.808,1.051,1.051,0,0,0,.9.466,1.118,1.118,0,0,0,.62-.183l2.577,2.632,1.156-1.089-.817-.748,1.224.272.068-.544-3.87-.927a.772.772,0,0,0,.061-.3.934.934,0,0,0-.864-.873,60.274,60.274,0,0,1,7.424-7.891.78.78,0,0,0-.082.347.96.96,0,0,0,1.021.884,1.116,1.116,0,0,0,.62-.183l2.577,2.632L407.4,318.7l-.816-.748,1.224.272.068-.544-3.87-.926a.773.773,0,0,0,.06-.3.96.96,0,0,0-1.02-.885,1.159,1.159,0,0,0-.359.057c.027-.022.053-.045.081-.067a37.167,37.167,0,0,1,8.4-4.9.743.743,0,0,0-.013.135.96.96,0,0,0,1.021.885,1.119,1.119,0,0,0,.62-.183l2.577,2.632,1.156-1.088-.816-.748,1.224.272.068-.544-3.87-.926a.775.775,0,0,0,.06-.3.873.873,0,0,0-.521-.77c2.2-.893,4.447-1.67,6.648-2.379a.788.788,0,0,0-.108.395.96.96,0,0,0,1.02.885,1.122,1.122,0,0,0,.62-.183l2.577,2.632,1.156-1.088-.816-.749L425,309.8l.068-.544-3.87-.926a.778.778,0,0,0,.061-.3.891.891,0,0,0-.617-.812c.77-.242,1.533-.476,2.282-.705,1.645-.5,3.639-1.006,5.764-1.455a.769.769,0,0,0-.032.218.959.959,0,0,0,1.02.884,1.118,1.118,0,0,0,.62-.183l2.577,2.632,1.156-1.089-.816-.748,1.224.272.068-.544-3.87-.927a.773.773,0,0,0,.061-.3.816.816,0,0,0-.244-.572A60.6,60.6,0,0,1,442.072,303.46Z" transform="translate(-46.859 -58.603)" fill="rgba(255,255,255,0.63)"/>
      <g id="그룹_3443" data-name="그룹 3443" transform="translate(189.606 147.132)">
        <path id="패스_2968" data-name="패스 2968" d="M333.406,192.518c.137-1.994.343-3.936.486-5.178.715.364,1.579.774,2.585,1.2a1.4,1.4,0,0,0,1.943-.818,56.843,56.843,0,0,0,.806-5.7c.067-.82.086-1.391.086-1.714,0-.784-.876-1.956-1.143-3.14-.186,0-.337-.269-.337-.6a1.013,1.013,0,0,1,.028-.237c-.55.152-.742.2-.742.2a1.534,1.534,0,0,1,1.108-.9c.007-.026.013-.052.02-.079a17.4,17.4,0,0,0,.681-2.172c-.051.025-.1.048-.153.069-.194.094-.385.169-.567.254s-.363.161-.54.257c-.087.048-.178.1-.266.155a2.1,2.1,0,0,0-.278.2.962.962,0,0,1,.25-.7,1.629,1.629,0,0,1,.6-.439,2,2,0,0,1,.7-.169c.095,0,.19,0,.284.011a2.537,2.537,0,0,0-.019-.4,17.939,17.939,0,0,0-.631-3.445c-2.841.654-2.537,6.586-3.876,7.309-.322-.814-.893-1.751-1.8-1.663-1.465.142-1.439,3.7,1.21,5.478a12.536,12.536,0,0,1-.7,3.143c-.884,2.312-1.1,3.826-5.645,3.741-2.905-.054-3.615-.4-4.157-1.462l-.362,6.371A25.018,25.018,0,0,1,333.406,192.518Z" transform="translate(-291.919 -156.256)" fill="#b26b5e"/>
        <path id="패스_2969" data-name="패스 2969" d="M349.248,181.487c0,.331-.151.6-.338.6h0c.267,1.183,1.143,2.356,1.143,3.14,0,.323-.019.895-.086,1.714.855-.094,2.78-1.028,1.99-1.636a22.792,22.792,0,0,1-2.662-4.264,1.358,1.358,0,0,1-.133.048A.891.891,0,0,1,349.248,181.487Z" transform="translate(-302.66 -161.175)" fill="#d08d83"/>
        <path id="패스_2970" data-name="패스 2970" d="M349.038,180.127l.024,0-.035-.067c-.008.026-.013.053-.02.079Z" transform="translate(-302.7 -160.767)" fill="#d08d83"/>
        <path id="패스_2971" data-name="패스 2971" d="M341.415,286.432c-.042-.04-.084-.081-.125-.124-.226.05-.455.092-.691.124l-2.767-6.024a60.782,60.782,0,0,1-4.877,4.512l.971,17.4a18.743,18.743,0,0,1-5.161,2.659,13.116,13.116,0,0,1-.531,2.619c-1.319,3.164-25.126,4.511-33.067-.069a21.114,21.114,0,0,0,1.624,5.146c3.2,6.81,28.923,6.427,38.105-.153,5.56-3.984,10.293-11.887,13.162-17.5a72.56,72.56,0,0,1-6.3-8.3C341.642,286.636,341.53,286.541,341.415,286.432Z" transform="translate(-280.402 -202.328)" fill="#4b3c4f"/>
        <path id="패스_2972" data-name="패스 2972" d="M315.179,232.494c4.745-.289,11.04-.427,15.74-.23.33-1.9,2.432-13.861,3.43-15.5q-.969-.191-1.932-.332c0,1.016-.022,1.557-.022,1.557s-10.713,3.571-16.494-.306l.223-1.068c-.374.059-.7.114-.981.163C315.661,218.13,315.3,229.294,315.179,232.494Z" transform="translate(-288.675 -175.831)" fill="#ff8f8f"/>
        <path id="패스_2973" data-name="패스 2973" d="M281.845,279.5c-1.5.581-6.634,2.291-10.862.44a6.033,6.033,0,0,0-.067,1.808c.651,3.8,7.7,10.065,11.735,13.384.269-3.757.745-8.207,1.371-12.653Z" transform="translate(-270.342 -201.952)" fill="#b26b5e"/>
        <path id="패스_2974" data-name="패스 2974" d="M411.667,305c-1.48-.711-3.014-1.329-4.55-1.907a10.1,10.1,0,0,0-4.9-.852c-.431.051-.425-.624,0-.674a10.531,10.531,0,0,1,5.077.876q.656.247,1.311.506a2.893,2.893,0,0,0,1.277-.383.4.4,0,0,0-.064-.723l-4.759-1.862c-.144-.056-4.148-.372-4.3-.377l-5.012.127a12.373,12.373,0,0,0-2.2.086c-3.5-6.978-8.412-16.871-11.395-21.184-.142-.206-.271-.41-.393-.611-.843,1.794-3.373,6.3-7.865,7.3.042.042.083.084.125.124.115.109.227.2.339.292a72.557,72.557,0,0,0,6.3,8.3,126.534,126.534,0,0,0,11.015,11.112,7.8,7.8,0,0,0,.958.854l.3.268c.045.012.086.02.129.03a6.784,6.784,0,0,0,4.827.978,36.67,36.67,0,0,0,5.291-.8c1.435-.47,5.42.629,5.42.629a4.015,4.015,0,0,0,2.188-.55.385.385,0,0,0,.171-.217.282.282,0,0,1-.293.049c-1.564-.542-2.993-1.373-4.583-1.858a12.43,12.43,0,0,0-4.358-.57c-.434.021-.432-.653,0-.674a12.658,12.658,0,0,1,4.277.516c1.491.435,2.836,1.164,4.267,1.724a2.989,2.989,0,0,0,1.578-.392.387.387,0,0,0,.138-.143A.334.334,0,0,1,411.667,305Zm-7.768-2.635-.263-.008Z" transform="translate(-313.008 -201.339)" fill="#b26b5e"/>
        <path id="패스_2975" data-name="패스 2975" d="M421.179,321.133c-.432.02-.434.695,0,.674a12.43,12.43,0,0,1,4.358.57c1.59.486,3.019,1.316,4.583,1.858a.282.282,0,0,0,.293-.049.358.358,0,0,0-.114-.6c-.194-.067-.385-.139-.576-.213-1.431-.559-2.776-1.289-4.267-1.724A12.659,12.659,0,0,0,421.179,321.133Z" transform="translate(-332.456 -219.187)" fill="#e0a696"/>
        <path id="패스_2976" data-name="패스 2976" d="M431.8,321.025c-1.111-.534-2.251-1.016-3.4-1.47q-.654-.258-1.311-.506a10.531,10.531,0,0,0-5.077-.876c-.425.05-.431.725,0,.674a10.1,10.1,0,0,1,4.9.852c1.536.578,3.07,1.2,4.55,1.907a.334.334,0,0,0,.324-.011A.317.317,0,0,0,431.8,321.025Z" transform="translate(-332.804 -217.946)" fill="#e0a696"/>
        <path id="패스_2977" data-name="패스 2977" d="M281.469,253.946c.279-.108.434-.178.434-.178l3.249-5.863c.366-1.852.755-3.606,1.163-5.2l-.841-.266s2.449-7.55,4.286-8.57a.889.889,0,0,1,.123-.055c-.106-1.869-.752-13.683-.257-16.022a13.755,13.755,0,0,0-5.273,1.283c-3.673,1.734-14.386,35-14.386,35,.211.114.425.217.641.311C274.836,256.237,279.966,254.527,281.469,253.946Z" transform="translate(-269.966 -176.397)" fill="#ff8f8f"/>
        <path id="패스_2978" data-name="패스 2978" d="M326.32,298.981a13.114,13.114,0,0,0,.531-2.619,258.81,258.81,0,0,0,1.211-36.769l-16.618,5.669-16.605-5.243c-.408,1.59-.8,3.343-1.163,5.2-.563,2.85-1.071,5.934-1.506,9.02-.627,4.447-1.1,8.9-1.371,12.653-.324,4.52-.351,8.038.013,9.338a4.8,4.8,0,0,0,2.442,2.686C301.194,303.492,325,302.145,326.32,298.981Z" transform="translate(-278.489 -193.707)" fill="#ffda8f"/>
        <path id="패스_2979" data-name="패스 2979" d="M353.216,233.973l-.328-.038c.012.013.025.025.036.038,1.632,1.939,1.53,8.162,1.53,8.162l-.726.248a258.81,258.81,0,0,1-1.211,36.769,18.743,18.743,0,0,0,5.161-2.659l-.971-17.4-.96-17.223,5.837,12.711,2.767,6.024c.236-.032.465-.073.691-.124,4.492-.994,7.021-5.505,7.865-7.3.215-.458.321-.739.321-.739l-4.8-14.284c-6.069-18.507-12.42-20.053-12.731-20.118C356.379,218.68,353.216,233.973,353.216,233.973Z" transform="translate(-304.154 -176.497)" fill="#ff8f8f"/>
        <path id="패스_2980" data-name="패스 2980" d="M332.93,214.361s.02-.541.022-1.557c0-.876-.009-2.1-.056-3.647-.743-.273-1.478-.5-2.2-.689a25.018,25.018,0,0,0-10.432-.439,17.672,17.672,0,0,0-2.708.651l-.9,4.306-.223,1.068C322.217,217.932,332.93,214.361,332.93,214.361Z" transform="translate(-289.211 -172.207)" fill="#ed7777"/>
        <path id="패스_2981" data-name="패스 2981" d="M303.65,233.236a35.95,35.95,0,0,1,6.587-.758c.117-3.2.482-14.363-.037-15.718a.281.281,0,0,0-.077-.125c-.732-.512-5.666-.1-6.545.179-.074.024-.135.166-.185.4C302.9,219.553,303.544,231.366,303.65,233.236Z" transform="translate(-283.733 -175.815)" fill="#ffda8f"/>
        <path id="패스_2982" data-name="패스 2982" d="M348.562,233.345l.328.038s3.164-15.293,2.485-15.935l0,0c-.688-.612-4.721-.947-5.684-.794-.057.009-.12.074-.188.187-1,1.641-3.1,13.6-3.43,15.5C345.446,232.481,348,232.794,348.562,233.345Z" transform="translate(-299.828 -175.908)" fill="#ffda8f"/>
        <path id="패스_2983" data-name="패스 2983" d="M329.7,244.436c-.011-.013-.023-.025-.036-.038-.565-.552-3.116-.865-6.491-1.005-4.7-.2-10.994-.059-15.74.23a35.95,35.95,0,0,0-6.587.758.889.889,0,0,0-.123.055c-1.837,1.02-4.286,8.57-4.286,8.57l.841.266,16.605,5.243,16.618-5.669.726-.248S331.33,246.374,329.7,244.436Z" transform="translate(-280.929 -186.96)" fill="#e5bc73"/>
        <path id="패스_2984" data-name="패스 2984" d="M348.223,179.7a1.534,1.534,0,0,0-1.108.9s.193-.043.742-.2a1.013,1.013,0,0,0-.028.237c0,.33.151.6.337.6h0c.187,0,.338-.268.338-.6a.891.891,0,0,0-.087-.4,1.274,1.274,0,0,0,.908-1.243,1.322,1.322,0,0,1-1.048.684l-.024,0Z" transform="translate(-301.917 -160.331)" fill="#4b3c4f"/>
        <path id="패스_2985" data-name="패스 2985" d="M323.138,178.046c4.549.085,4.761-1.428,5.645-3.741a12.535,12.535,0,0,0,.7-3.143c-2.649-1.78-2.675-5.337-1.21-5.478.907-.088,1.478.848,1.8,1.663,1.339-.723,1.035-6.654,3.876-7.309l.071-.016a4.109,4.109,0,0,0,2.012-.952,5.662,5.662,0,0,0-4.055-10.439,5.663,5.663,0,0,0-5.952-.678,5.664,5.664,0,0,0-8.451,3.547,5.662,5.662,0,0,0-3.793,8,5.66,5.66,0,0,0,3.584,9.247c.3.767.564,1.364.671,1.684a30.606,30.606,0,0,1,.926,6.122l.018.035C319.523,177.646,320.233,177.992,323.138,178.046Z" transform="translate(-287.564 -147.132)" fill="#4b3c4f"/>
        <path id="패스_2986" data-name="패스 2986" d="M347.969,175.881a1.629,1.629,0,0,0-.6.439.962.962,0,0,0-.25.7,2.1,2.1,0,0,1,.278-.2c.088-.058.179-.107.266-.155.176-.1.356-.176.54-.257s.373-.159.567-.254c.051-.021.1-.045.153-.069s.1-.049.146-.076a2.005,2.005,0,0,0,.309-.183,1.772,1.772,0,0,0-.354-.1c-.024,0-.049,0-.073-.006-.094-.009-.189-.012-.284-.011A2,2,0,0,0,347.969,175.881Z" transform="translate(-301.918 -158.968)" fill="#4b3c4f"/>
      </g>
      <g id="그룹_3444" data-name="그룹 3444" transform="translate(297.796 154.758)">
        <path id="패스_2987" data-name="패스 2987" d="M534.576,201.4c4.976,2.6,17.241,9.134,19.859,11.668-.452-2.165-14.659-12.9-20.216-17.028a6.846,6.846,0,0,1,.777,2.479A5.822,5.822,0,0,1,534.576,201.4Z" transform="translate(-487.596 -175.014)" fill="#fad2c6"/>
        <path id="패스_2988" data-name="패스 2988" d="M483.643,178.1c.03.072.062.153.094.24l.032.015v-3.51a1.076,1.076,0,0,1,1-1.073l6.216-.441c-.969-.372-3.023-1.176-7.249-2.853-5.9.348-3.432,6.168-3.432,6.168l2.07,1.021C482.482,177.351,483.364,177.432,483.643,178.1Z" transform="translate(-465.055 -164.426)" fill="#66506d"/>
        <path id="패스_2989" data-name="패스 2989" d="M535.709,305.854c-.015.121-.032.243-.05.364a10.3,10.3,0,0,1-.869,2.934,6.283,6.283,0,0,1-1.739,2.2c5.246-.6,8.979-2.327,9.593-4.075a12.287,12.287,0,0,0,.452-1.65A15.844,15.844,0,0,1,535.709,305.854Z" transform="translate(-487.112 -220.398)" fill="#ff8f8f"/>
        <path id="패스_2990" data-name="패스 2990" d="M501.385,293.719a6.863,6.863,0,0,0,.695-1.316,10.926,10.926,0,0,0,.7-2.882c.013-.129.022-.258.033-.387a30.406,30.406,0,0,1-3.09-.768,6.886,6.886,0,0,1-2.071-1.031c-.535,1.859-1.48,3.382-3.125,3.655-4.683.779-6.371-5.45-5.935-11.891l3.307.073a30.307,30.307,0,0,1-6.07-6.415c-.324-.116-.644-.241-.961-.372-.391,1.271-.759,2.511-1.132,3.775a107.3,107.3,0,0,0-14.884-8.538c-6.475-2.854-12.838-3.225-14.21.817,0,.98,3.1,5.39,6.044,8.984,17.58,15.053,18.833,14.491,18.833,14.491l0-.009c2.314,1.523,9.146,2.758,15.793,3a35.578,35.578,0,0,0,5.226-.189A6.384,6.384,0,0,0,501.385,293.719Z" transform="translate(-454.637 -203.755)" fill="#ff8f8f"/>
        <path id="패스_2991" data-name="패스 2991" d="M512.471,279.22a29.4,29.4,0,0,1-3.072-.78,28.874,28.874,0,0,0,6.109,6.136l.485.011a37.763,37.763,0,0,1-.685-4.95l-.074-.006C514.307,279.533,513.383,279.4,512.471,279.22Z" transform="translate(-477.316 -209.139)" fill="#ff8f8f"/>
        <path id="패스_2992" data-name="패스 2992" d="M507.555,271.826c-.206.623-.4,1.23-.591,1.826q.237.368.48.725c.241.356.488.7.736,1.04,1.11.267,2.229.484,3.352.66.906.138,1.817.247,2.73.318-.074-1.094-.114-2.218-.127-3.362a45.015,45.015,0,0,1-6.264-1.129C507.767,271.878,507.662,271.854,507.555,271.826Z" transform="translate(-476.308 -206.399)" fill="#ff8f8f"/>
        <path id="패스_2993" data-name="패스 2993" d="M506.7,276.443c-.08-.117-.158-.238-.237-.357q-.1.333-.205.662c.271.079.542.155.814.226C506.944,276.8,506.819,276.623,506.7,276.443Z" transform="translate(-476.014 -208.164)" fill="#ff8f8f"/>
        <path id="패스_2994" data-name="패스 2994" d="M553.641,216.859c-2.618-2.534-14.884-9.067-19.859-11.668-.613,1.547-1.609,2.714-1.467,3.943.217,1.888,3.121,2.541,2.9,6.751a6.8,6.8,0,0,1-.519,2.255c.708,1.21,1.579,2.724,2.541,4.45.206-1.331.413-2.513.6-3.5,4.626,2.325,12.424,5.226,13.971,4.958C553.935,223.679,556.944,220.056,553.641,216.859Z" transform="translate(-486.801 -178.803)" fill="#fff"/>
        <path id="패스_2995" data-name="패스 2995" d="M486.58,176.727v3.58c.012.034.025.069.037.1a13.291,13.291,0,0,0,3.315,4.24l.021.018a3.773,3.773,0,0,1,.344.34V178.2a1.076,1.076,0,0,1,1-1.073l5.283-.374c-.025-.072-.049-.145-.07-.217l.042.018c.181.088.36.158.529.237s.339.151.5.24a2.958,2.958,0,0,1,.507.334.9.9,0,0,0-.234-.654,1.526,1.526,0,0,0-.557-.41,1.865,1.865,0,0,0-.653-.158c-.076,0-.153,0-.229.008a2.264,2.264,0,0,1-.018-.718c.017-.119.035-.257.053-.408l-2.657.188-6.216.441A1.076,1.076,0,0,0,486.58,176.727Z" transform="translate(-467.866 -166.31)" fill="#4b3c4f"/>
        <path id="패스_2996" data-name="패스 2996" d="M498.06,184.073a2.465,2.465,0,0,1-.871-.4.608.608,0,0,1,.051-.974c.882-.57,2.154-3.38,2.328-3.773-.116-.319-.253-.632-.363-.949l-5.283.374a1.076,1.076,0,0,0-1,1.073v6.807a3.86,3.86,0,0,1,.792,1.359,1.059,1.059,0,0,0,.394.034l2.662-.273,2.437-.25C498.747,185.736,498.221,184.666,498.06,184.073Z" transform="translate(-470.493 -167.532)" fill="#66506d"/>
        <path id="패스_2997" data-name="패스 2997" d="M500.1,183.369a.608.608,0,0,0-.051.974,2.465,2.465,0,0,0,.871.4,1.189,1.189,0,0,1-.05-.295c0-.71,1.394-2.086,1.731-3.232a1.206,1.206,0,0,1-.084-.149.663.663,0,0,1-.059-.449.964.964,0,0,0,.212.229c0-.029,0-.059,0-.088a3.391,3.391,0,0,0-.245-1.165C502.254,179.989,500.983,182.8,500.1,183.369Z" transform="translate(-473.354 -168.203)" fill="#eec1ba"/>
        <path id="패스_2998" data-name="패스 2998" d="M502.64,173.933c.076-.006.153-.008.229-.008a1.866,1.866,0,0,1,.653.158,1.527,1.527,0,0,1,.557.41.9.9,0,0,1,.234.654,2.96,2.96,0,0,0-.507-.334c-.165-.089-.332-.164-.5-.24s-.348-.148-.529-.237l-.042-.018c.022.072.046.145.07.217.11.317.247.63.363.949a3.392,3.392,0,0,1,.245,1.165c0,.029,0,.059,0,.088l.068.052a2.738,2.738,0,0,0,.314.2c.107.06.219.114.33.17.058.025.114.053.171.08s.116.051.173.08l.015.007a.267.267,0,0,1-.158.5l-.319-.047c-.1-.013-.209-.024-.312-.029a1.476,1.476,0,0,0-.305.015.532.532,0,0,0-.3.141.458.458,0,0,1,.177-.358.943.943,0,0,1,.3-.176c-.015-.014-.03-.027-.045-.043a1.305,1.305,0,0,1-.179-.223c-.337,1.145-1.731,2.522-1.731,3.232a1.188,1.188,0,0,0,.05.295c.161.593.687,1.663,1.147,3.027a14.75,14.75,0,0,1,.682,2.86c.083.659,2.069.6,2.831.3.3-.117.564-.229.808-.337.123,1.253.243,2.664.306,3.958,0,.07.007.139.01.208a4.509,4.509,0,0,0,2.48.8,1.98,1.98,0,0,0,.315-1.741c-.654-2.106-2.614-2.614-3.122-4.138a5.908,5.908,0,0,1,.34-3.213c2.753-1.587,2.831-5.15,1.413-5.287-.882-.086-1.424.867-1.717,1.647-1.141-1.1-1.284-6.212-.244-9.044a21.613,21.613,0,0,1-3.891,1.166,15.5,15.5,0,0,0-.341,1.973c-.019.151-.036.289-.053.408A2.264,2.264,0,0,0,502.64,173.933Z" transform="translate(-474.089 -164.091)" fill="#fbdcd4"/>
        <path id="패스_2999" data-name="패스 2999" d="M506.779,277.358c-.272-.071-.543-.148-.814-.226-.137-.039-.273-.078-.409-.12.131.057.263.111.4.165.318.131.637.256.961.372C506.868,277.487,506.824,277.422,506.779,277.358Z" transform="translate(-475.725 -208.547)" fill="#ed7777"/>
        <path id="패스_3000" data-name="패스 3000" d="M509.041,277.956c.07.1.14.19.21.284a29.405,29.405,0,0,0,3.072.78c.913.185,1.836.313,2.763.41l.074.006q-.019-.25-.036-.5c-.913-.071-1.824-.179-2.73-.318C511.27,278.44,510.151,278.223,509.041,277.956Z" transform="translate(-477.168 -208.938)" fill="#ed7777"/>
        <path id="패스_3001" data-name="패스 3001" d="M520.4,289.319c-.03-.131-.059-.262-.087-.4l-.485-.011C520.017,289.051,520.207,289.188,520.4,289.319Z" transform="translate(-481.635 -213.476)" fill="#ed7777"/>
        <path id="패스_3002" data-name="패스 3002" d="M518.478,300.645c1.644-.274,2.589-1.8,3.125-3.655-1.957-1.424-3.25-3.883-4.056-6.958q-.866-.562-1.7-1.206l-3.307-.073C512.106,295.195,513.795,301.424,518.478,300.645Z" transform="translate(-478.591 -213.41)" fill="#ed7777"/>
        <path id="패스_3003" data-name="패스 3003" d="M507.248,174.769c.293-.78.835-1.732,1.717-1.647,1.418.137,1.34,3.7-1.413,5.287a5.908,5.908,0,0,0-.34,3.213c.508,1.524,2.468,2.033,3.122,4.138a1.98,1.98,0,0,1-.315,1.741c-.308.492-.745.981-1.128,1.556-.1.149-.2.3-.284.466a4.292,4.292,0,0,0-.524,2.625c.309,2.908,5.207,3.549,7.59,4.888a3.216,3.216,0,0,1,.977.775,7.43,7.43,0,0,1,1.524,6.171,10.687,10.687,0,0,0,3.91-4.5,6.8,6.8,0,0,0,.519-2.255c.217-4.211-2.687-4.864-2.9-6.751-.142-1.229.854-2.4,1.467-3.943a5.823,5.823,0,0,0,.421-2.881,6.847,6.847,0,0,0-.777-2.479c-.782-1.492-1.837-2.53-1.837-4.419,0-2.759,6.171-14.157-4.574-14.883-.023.038-.047.077-.071.118h-.009c-6.075-4.8-11.245.821-12.479,5.038a8.458,8.458,0,0,0,1.274-.138A21.613,21.613,0,0,0,507,165.725C505.963,168.557,506.107,173.67,507.248,174.769Z" transform="translate(-474.186 -160.149)" fill="#4b3c4f"/>
        <path id="패스_3004" data-name="패스 3004" d="M504.239,181.343a.663.663,0,0,0,.059.449,1.206,1.206,0,0,0,.084.149,1.305,1.305,0,0,0,.179.223c.014.016.03.029.045.043a.943.943,0,0,0-.3.176.458.458,0,0,0-.177.358.532.532,0,0,1,.3-.141,1.476,1.476,0,0,1,.305-.015c.1,0,.207.016.312.029l.319.047a.267.267,0,0,0,.158-.5l-.015-.007c-.057-.029-.114-.055-.173-.08s-.112-.055-.171-.08c-.111-.056-.223-.11-.33-.17a2.738,2.738,0,0,1-.314-.2l-.068-.052A.964.964,0,0,1,504.239,181.343Z" transform="translate(-475.134 -168.926)" fill="#4b3c4f"/>
        <path id="패스_3005" data-name="패스 3005" d="M470.676,209.043c2.425-3.168,5.156-6.979,8.33-9.493,1.084-2.839,2-5.284,2.551-6.767.1-.008.21-.021.337-.04,1.042-.152,2.443-2.554,2.98-3.544l-2.662.273a1.06,1.06,0,0,1-.394-.034,3.86,3.86,0,0,0-.792-1.359,3.775,3.775,0,0,0-.344-.34l-.021-.018a13.292,13.292,0,0,1-3.315-4.24c-.012-.035-.025-.07-.038-.1s-.021-.057-.032-.085c-.033-.087-.064-.168-.094-.24-.279-.666-1.161-.746-1.269-.432a.3.3,0,0,0,.052.256c.352.579.853,4.841,1.361,5.908.105.221.21.428.315.623-2.764,4.6-14.864,25.125-13.308,29.563a3.057,3.057,0,0,0,1.047,1.328C464.866,217.353,469.472,210.617,470.676,209.043Z" transform="translate(-458.596 -169.383)" fill="#fad2c6"/>
        <path id="패스_3006" data-name="패스 3006" d="M508.392,207.112c.4.166.812.356,1.238.572.383-.575.82-1.064,1.128-1.556a4.509,4.509,0,0,1-2.48-.8c0-.069-.006-.138-.01-.208-1.506.177-3.087.393-4.642.655A20.26,20.26,0,0,1,508.392,207.112Z" transform="translate(-474.925 -178.774)" fill="#fff"/>
        <path id="패스_3007" data-name="패스 3007" d="M484.922,219a10.265,10.265,0,0,1-.695,2.933c-.629,1.35-1.525,4.392-.145,6.57.939,1.483,3.122,1.585,4.421,1.5,1.434,5.5,2.615,11.269,2.467,14.942a45.013,45.013,0,0,0,6.264,1.129c-.132-11.965,2.827-26.038,3.659-29.744-2.384-1.339-7.281-1.98-7.59-4.888a4.292,4.292,0,0,1,.524-2.625c-.394-.2-.778-.374-1.146-.528a18.816,18.816,0,0,0-5.921-1.439.271.271,0,0,1-.219-.124c-.8.155-1.593.323-2.348.506a12.835,12.835,0,0,0-4.378,2.378c-3.174,2.514-5.9,6.324-8.33,9.493-1.2,1.574-5.809,8.309-5.294,11.257a1.5,1.5,0,0,0,.922,1.216,3.04,3.04,0,0,0,.595.176,4.616,4.616,0,0,0,2.8-.442,19.8,19.8,0,0,0,4.533-3.464q2.324-2.07,4.643-4.143.653-.584,1.3-1.171l.484-.434Q483.2,220.545,484.922,219Z" transform="translate(-459.405 -179.436)" fill="#fff"/>
        <path id="패스_3008" data-name="패스 3008" d="M534.663,309.258a10.3,10.3,0,0,0,.869-2.934c.018-.121.035-.243.05-.364-.141-.025-.281-.049-.424-.076-.011.129-.02.258-.033.387a10.924,10.924,0,0,1-.7,2.882,6.86,6.86,0,0,1-.695,1.316,6.384,6.384,0,0,1-.85,1c-.046.044-.091.09-.139.132.062-.043.12-.09.18-.137A6.283,6.283,0,0,0,534.663,309.258Z" transform="translate(-486.985 -220.504)" fill="#ed7777"/>
        <path id="패스_3009" data-name="패스 3009" d="M513.884,230.061a7.429,7.429,0,0,0-1.524-6.171,3.218,3.218,0,0,0-.977-.775c-.831,3.706-3.791,17.779-3.659,29.744.012,1.144.053,2.268.127,3.362q.017.252.036.5a37.764,37.764,0,0,0,.685,4.95c.029.133.057.265.087.4-.192-.131-.383-.268-.572-.406a28.873,28.873,0,0,1-6.109-6.136c-.07-.094-.14-.188-.21-.284-.248-.34-.495-.684-.736-1.04q-.243-.357-.48-.725a52.418,52.418,0,0,1-5.566-11.934,78.6,78.6,0,0,1-3.021-12.663l-.484.434a79.138,79.138,0,0,0,2.984,12.389,52.464,52.464,0,0,0,5.876,12.444c.079.119.158.24.237.357.122.18.247.356.371.531.045.064.089.129.134.192a30.306,30.306,0,0,0,6.07,6.415q.832.644,1.7,1.206c.806,3.075,2.1,5.534,4.056,6.958a6.886,6.886,0,0,0,2.071,1.031,30.414,30.414,0,0,0,3.09.768c.143.027.284.052.424.076a15.845,15.845,0,0,0,7.386-.226c5.908-1.836,7.87-8.153,5.646-16.6-1.987-7.553-7.32-17.9-11.19-24.84-.963-1.726-1.833-3.24-2.541-4.45A10.687,10.687,0,0,1,513.884,230.061Z" transform="translate(-469.896 -186.226)" fill="#66506d"/>
        <path id="패스_3010" data-name="패스 3010" d="M507.254,207.478a20.26,20.26,0,0,0-4.767-1.335,12.6,12.6,0,0,0-1.328-.138.272.272,0,0,0-.018.544,18.817,18.817,0,0,1,5.921,1.439c.368.154.752.33,1.146.528.089-.162.185-.318.284-.466C508.066,207.833,507.651,207.644,507.254,207.478Z" transform="translate(-473.787 -179.14)" fill="#66506d"/>
      </g>
      <g id="그룹_3445" data-name="그룹 3445" transform="translate(75.928 178.909)">
        <path id="패스_3011" data-name="패스 3011" d="M172.207,208.907l.176-.059.167-1.431-4.611-5s.876,4.165,1.7,8.05A4.577,4.577,0,0,1,172.207,208.907Z" transform="translate(-114.034 -201.807)" fill="#dbb277"/>
        <path id="패스_3012" data-name="패스 3012" d="M142.321,297.06l4.589,27.268,6.939-.695c-.779-3.914-4.206-3.013-4.206-3.013s-1.057-3.924-1.087-13.577a114.551,114.551,0,0,1,.866-12.2,22.673,22.673,0,0,1-7.825-1.663C141.96,295.122,142.246,296.615,142.321,297.06Z" transform="translate(-103.125 -239.393)" fill="#dbb277"/>
        <path id="패스_3013" data-name="패스 3013" d="M84.981,291.4c.105,7.9-7.206,12.577-7.206,12.577l1.088,24.881,7.364-.093c-.519-3.645-4.783-3.435-4.783-3.435s1.915-16.791,4.85-20.346c.454-.035.888-.087,1.305-.152C89.3,298.471,87.274,294.567,84.981,291.4Z" transform="translate(-76.693 -238.659)" fill="#dbb277"/>
        <path id="패스_3014" data-name="패스 3014" d="M126.8,240.259c-4.547,7.3-12,12.564-20.052,13.5-10.532,1.221-20.363,1.364-24.189,3.416-1.066-1.161-3.5-3.964-4.763-5.417a1.064,1.064,0,0,0-1.656,1.333L80.7,259.2c-2.3,4.55.8,7.263,3.516,11.018,2.293,3.164,4.316,7.068,2.618,13.432-.143.536-.309,1.088-.507,1.66l.06-.008,1.083,24.757,7.363-.093c-.519-3.645-4.782-3.435-4.782-3.435s2.289-20.269,5.225-23.824c12.812-.989,10.859-12.063,9.752-15.989,3.361.753,5.585,2.962,9.376,4.538a22.674,22.674,0,0,0,7.825,1.663c.937.045,1.944.05,3.027.009a32.726,32.726,0,0,0-.1,5.383l4.588,27.267,6.94-.694c-.779-3.913-4.206-3.013-4.206-3.013s-1.057-3.924-1.087-13.577a147.364,147.364,0,0,1,1.506-17.376c6.611-4.445,9.084-15.8,10-24.471C137.74,247.232,129.012,241.725,126.8,240.259Z" transform="translate(-75.928 -217.477)" fill="#f2cc8f"/>
        <path id="패스_3015" data-name="패스 3015" d="M191.956,206.85a.513.513,0,0,1-.033.062c-.365.571-.7-.868-1.4-.845s-1.267.218-1.2-.4l.525-.21a53.177,53.177,0,0,1-9.848,2.41c-.79-1.064-3.059-.92-5.345-.429l-2.719-6.061s-.332,2.87-.652,5.61l-.167,1.431-.176.059a4.577,4.577,0,0,0-2.571,1.564,2.268,2.268,0,0,0-.313,1.369,29.629,29.629,0,0,1-3.167,10.545c8.415,5.174,13.847,5.9,15.067,6,.279-3.519.309-6.354.3-7.712l8.041-.864a1.5,1.5,0,0,0,1.321-1.232l.237-1.33-6.124-.309q1.623-.457,3.433-1.058C193.644,213.651,192.977,209.333,191.956,206.85Zm-12.585,3.495c.335-.073.714.235.846.689s-.032.881-.367.954-.714-.235-.846-.689S179.036,210.418,179.371,210.344Z" transform="translate(-112.774 -201.373)" fill="#f2cc8f"/>
        <path id="패스_3016" data-name="패스 3016" d="M207.792,208.413c.694-.023,1.033,1.416,1.4.845a.515.515,0,0,0,.033-.062,4.347,4.347,0,0,0-.193-2.157l-1.909.76-.525.21C206.525,208.631,207.1,208.436,207.792,208.413Z" transform="translate(-130.041 -203.72)" fill="#594360"/>
        <path id="패스_3017" data-name="패스 3017" d="M189.791,218.322c.335-.073.5-.5.367-.954s-.511-.762-.846-.689-.5.5-.367.954S189.456,218.395,189.791,218.322Z" transform="translate(-122.714 -207.707)" fill="#594360"/>
        <path id="패스_3018" data-name="패스 3018" d="M163.362,236.2a9.567,9.567,0,0,0-1.493,2.024s.187.13.523.353c2.212,1.466,10.94,6.973,16.1,6.193a5.66,5.66,0,0,0,.569-.115,2.943,2.943,0,0,0-.087-2.264s-.089,0-.262-.016c-1.22-.1-6.652-.828-15.067-6Z" transform="translate(-111.52 -215.798)" fill="#fff"/>
      </g>
    </g>
    <g id="그룹_16" data-name="그룹 16" transform="translate(1055.387 3433.031)">
      <rect id="사각형_26" data-name="사각형 26" width="64.703" height="2.453" transform="translate(92.467 180.258)" fill="url(#linear-gradient)"/>
      <g id="그룹_15" data-name="그룹 15" transform="translate(79.805 151.61)">
        <path id="패스_25" data-name="패스 25" d="M133.132,182.711H86.42l-6.615-31.1h46.712Z" transform="translate(-79.805 -151.61)" fill="#fff"/>
        <line id="선_24" data-name="선 24" x2="6.464" y2="30.392" transform="translate(45.177 0.709)" fill="none" stroke="#ee2f74" stroke-miterlimit="10" stroke-width="0.876"/>
      </g>
      <g id="logo" transform="translate(95.268 165.085)">
        <path id="패스_1" d="M1.635,1.782.861.041,0,.057l1.26,2.6L.592,4.224l.829-.014L3.2,0,2.333.015Z" transform="translate(0 1.366)" fill="#ff3478"/>
        <path id="패스_2" d="M1.484.027A1.446,1.446,0,0,0,.913.148,1.469,1.469,0,0,0,.448.471,1.5,1.5,0,0,0,.137.948,1.523,1.523,0,0,0,.145,2.111a1.5,1.5,0,0,0,.318.472A1.471,1.471,0,0,0,.932,2.9a1.444,1.444,0,0,0,.573.114h.033a1.131,1.131,0,0,0,.442-.107,1.156,1.156,0,0,0,.2-.117,1.171,1.171,0,0,0,.171-.155l.005.3.676-.012L3,1.588A1.534,1.534,0,0,0,2.588.5a1.5,1.5,0,0,0-.47-.337A1.475,1.475,0,0,0,1.537.029l-.014,0H1.484Zm.04,2.262a.746.746,0,0,1-.3-.043.756.756,0,0,1-.25-.15A.766.766,0,0,1,.8,1.862a.779.779,0,0,1,.112-.852.756.756,0,0,1,.23-.179A.749.749,0,0,1,1.73.8a.756.756,0,0,1,.25.15.767.767,0,0,1,.176.234.778.778,0,0,1,.077.3s0,.005,0,.008v.008s0,.006,0,.008,0,.006,0,.008a.75.75,0,0,1-.189.536.735.735,0,0,1-.225.171.723.723,0,0,1-.282.073H1.523Z" transform="translate(3.338 1.222)" fill="#ff3478"/>
        <path id="패스_3" d="M1.541.021a1.282,1.282,0,0,0-.213.022A1.159,1.159,0,0,0,1.1.109.874.874,0,0,0,.9.228.682.682,0,0,0,.731.413L.725.069,0,.082l.05,2.89.758-.013L.78,1.311A.59.59,0,0,1,.934.889a.582.582,0,0,1,.18-.133A.575.575,0,0,1,1.338.7h.038A.545.545,0,0,1,1.6.722a.555.555,0,0,1,.188.1.564.564,0,0,1,.2.381v.02c0,.006,0,.013,0,.019s0,.013,0,.019v.019l.029,1.653.758-.013-.03-1.7A1.631,1.631,0,0,0,2.674.762,1.1,1.1,0,0,0,2.463.375.954.954,0,0,0,2.092.112,1.4,1.4,0,0,0,1.541.021Z" transform="translate(6.956 1.163)" fill="#ff3478"/>
        <path id="패스_4" d="M1.473.026A1.451,1.451,0,0,0,.9.154,1.474,1.474,0,0,0,.439.482,1.509,1.509,0,0,0,.476,2.6a1.474,1.474,0,0,0,.474.312A1.459,1.459,0,0,0,2.1,2.89a1.474,1.474,0,0,0,.463-.328A1.5,1.5,0,0,0,2.973,1.5h0A1.506,1.506,0,0,0,2.522.447,1.477,1.477,0,0,0,2.048.134,1.454,1.454,0,0,0,1.473.026Zm.039,2.26a.742.742,0,0,1-.3-.043.755.755,0,0,1-.249-.15A.775.775,0,0,1,.9,1.009.757.757,0,0,1,1.136.831.754.754,0,0,1,1.724.8a.754.754,0,0,1,.249.15.769.769,0,0,1,.251.53s0,.005,0,.008v.008s0,.006,0,.008v.008a.75.75,0,0,1-.192.535.733.733,0,0,1-.225.17.719.719,0,0,1-.282.071H1.512Z" transform="translate(10.211 1.101)" fill="#ff3478"/>
        <path id="사각형_5" d="M0,.014.753,0l.07,4L.07,4.016Z" transform="translate(13.731)" fill="#ff3478"/>
        <path id="패스_5" d="M.646,2.749A.934.934,0,0,1,.6,3.08.564.564,0,0,1,.464,3.3a.529.529,0,0,1-.19.119.656.656,0,0,1-.214.038l.013.753a1.832,1.832,0,0,0,.39-.046A1.226,1.226,0,0,0,.9,3.968a1.066,1.066,0,0,0,.352-.438,1.838,1.838,0,0,0,.138-.783L1.341,0,.6.013Z" transform="translate(14.639 1.144)" fill="#ff3478"/>
        <path id="패스_6" d="M1.493.027A1.457,1.457,0,0,0,.918.149,1.478,1.478,0,0,0,.451.473,1.511,1.511,0,0,0,.466,2.591a1.478,1.478,0,0,0,.472.318,1.457,1.457,0,0,0,.576.114h.033a1.141,1.141,0,0,0,.444-.107,1.167,1.167,0,0,0,.369-.273l.005.3.68-.012L3.022,1.593A1.538,1.538,0,0,0,2.6.5,1.513,1.513,0,0,0,2.131.163,1.487,1.487,0,0,0,1.546.03l-.015,0H1.493ZM1.532,2.3a.753.753,0,0,1-.3-.043A.766.766,0,0,1,.8,1.868a.78.78,0,0,1,.113-.854.763.763,0,0,1,.232-.18A.755.755,0,0,1,1.741.8a.765.765,0,0,1,.429.385.777.777,0,0,1,.077.3s0,.005,0,.008,0,.006,0,.008,0,.006,0,.009,0,.006,0,.008a.752.752,0,0,1-.19.537.74.74,0,0,1-.226.172.729.729,0,0,1-.284.073H1.532Z" transform="translate(16.503 0.988)" fill="#ff3478"/>
      </g>
    </g>
  </g>
</svg>
