<svg xmlns="http://www.w3.org/2000/svg" width="80.183" height="71.13" viewBox="0 0 80.183 71.13">
  <g id="그룹_11957" data-name="그룹 11957" transform="translate(-661.063 -3254.329)">
    <g id="그룹_2" data-name="그룹 2" transform="translate(256.201 2999.074)">
      <rect id="사각형_3" data-name="사각형 3" width="2.659" height="12.834" transform="translate(439.095 282.043)" fill="#e573b5"/>
      <rect id="사각형_4" data-name="사각형 4" width="2.659" height="10.465" transform="translate(435.854 284.413)" fill="#d3008d"/>
      <rect id="사각형_5" data-name="사각형 5" width="2.659" height="11.874" transform="translate(432.613 283.004)" fill="#ff3478"/>
      <rect id="사각형_6" data-name="사각형 6" width="2.659" height="6.546" transform="translate(429.373 288.331)" fill="#ffc7da"/>
      <rect id="사각형_7" data-name="사각형 7" width="2.659" height="3.485" transform="translate(426.132 291.393)" fill="#fff"/>
      <path id="패스_3" data-name="패스 3" d="M443.208,295.558H425.541v-13.94" transform="translate(0.59 1.385)" fill="none" stroke="#ddd" stroke-miterlimit="10" stroke-width="1.15"/>
    </g>
    <g id="그룹_21" data-name="그룹 21" transform="translate(327.391 3185.29)">
      <path id="패스_31" data-name="패스 31" d="M383.546,78.494l2.689,14.864h24.652L408.2,78.494Z" transform="translate(0 -4.742)" fill="#ff3478"/>
      <rect id="사각형_28" data-name="사각형 28" width="24.277" height="19.577" transform="translate(386.316 69.039)" fill="#edebf6"/>
      <path id="패스_32" data-name="패스 32" d="M404.316,74.237l-2.651,3.331H391.424L389.1,91.223h24.652l2.888-16.986Z" transform="translate(-2.787 -2.607)" fill="#ffc7da"/>
    </g>
    <g id="그룹_1331" data-name="그룹 1331" transform="translate(468 3148.28)">
      <g id="그룹_1329" data-name="그룹 1329">
        <g id="그룹_1279" data-name="그룹 1279">
          <g id="그룹_1275" data-name="그룹 1275">
            <path id="패스_544" data-name="패스 544" d="M244.393,150.144l18.406-.227.03,2.753-18.7.2Z" fill="#253e56"/>
          </g>
          <g id="그룹_1278" data-name="그룹 1278">
            <g id="그룹_1276" data-name="그룹 1276">
              <rect id="사각형_238" data-name="사각형 238" width="1.173" height="14.928" transform="translate(259.91 151.542) rotate(-0.612)" fill="#253e56"/>
            </g>
            <g id="그룹_1277" data-name="그룹 1277">
              <rect id="사각형_239" data-name="사각형 239" width="13.193" height="1.172" transform="translate(247.514 157.756) rotate(-0.616)" fill="#253e56"/>
            </g>
          </g>
        </g>
        <g id="그룹_1280" data-name="그룹 1280">
          <path id="패스_545" data-name="패스 545" d="M253.817,142.352l7.654.039s1.142,4.522.1,5.95-7.58-.688-7.58-.688Z" fill="#1e263e"/>
        </g>
        <g id="그룹_1295" data-name="그룹 1295">
          <g id="그룹_1281" data-name="그룹 1281">
            <path id="패스_546" data-name="패스 546" d="M243.834,166.365s-.056,3.493-.455,3.7l.5,1.19,2.612-.161.686-1.273.035-3.415Z" fill="#f79f9b"/>
          </g>
          <g id="그룹_1282" data-name="그룹 1282">
            <path id="패스_547" data-name="패스 547" d="M243.446,169.952l-3.071,1.575a.638.638,0,0,0-.33.721h0l7.41-.1-.183-2.521a7.6,7.6,0,0,0-2.464.526C243.831,170.49,243.446,169.952,243.446,169.952Z" fill="#a94931"/>
          </g>
          <g id="그룹_1283" data-name="그룹 1283">
            <path id="패스_548" data-name="패스 548" d="M240.221,171.69a.057.057,0,0,1,0-.113l7.279-.23h0a.057.057,0,0,1,0,.113l-7.28.23Z" fill="#1e5062"/>
          </g>
          <g id="그룹_1284" data-name="그룹 1284">
            <path id="패스_549" data-name="패스 549" d="M246.458,171.485a.056.056,0,0,1-.056-.049c-.114-.819.782-1.705.821-1.742a.056.056,0,0,1,.08,0,.057.057,0,0,1,0,.08c-.009.009-.894.883-.788,1.646a.056.056,0,0,1-.048.064Z" fill="#1e5062"/>
          </g>
          <g id="그룹_1285" data-name="그룹 1285">
            <rect id="사각형_240" data-name="사각형 240" width="1.172" height="14.928" transform="matrix(1, -0.011, 0.011, 1, 246.573, 151.684)" fill="#253e56"/>
          </g>
          <g id="그룹_1286" data-name="그룹 1286">
            <path id="패스_550" data-name="패스 550" d="M252.2,166.481s-.351,3.356-.455,3.7l.5,1.19,2.612-.16.686-1.274.036-3.415Z" fill="#f79f9b"/>
          </g>
          <g id="그룹_1288" data-name="그룹 1288">
            <g id="그룹_1287" data-name="그룹 1287">
              <path id="패스_551" data-name="패스 551" d="M251.815,170.068l-3.071,1.575a.639.639,0,0,0-.33.721h0l7.41-.1-.183-2.52a7.56,7.56,0,0,0-2.464.526C252.2,170.606,251.815,170.068,251.815,170.068Z" fill="#a94931"/>
            </g>
          </g>
          <g id="그룹_1289" data-name="그룹 1289">
            <path id="패스_552" data-name="패스 552" d="M248.59,171.806a.057.057,0,0,1,0-.113l7.279-.23h0a.057.057,0,0,1,0,.114l-7.28.229Z" fill="#1e5062"/>
          </g>
          <g id="그룹_1290" data-name="그룹 1290">
            <path id="패스_553" data-name="패스 553" d="M254.827,171.6a.057.057,0,0,1-.056-.049c-.114-.82.783-1.706.821-1.743a.057.057,0,0,1,.08,0,.056.056,0,0,1,0,.08c-.009.009-.893.884-.788,1.646a.056.056,0,0,1-.048.064Z" fill="#1e5062"/>
          </g>
          <g id="그룹_1292" data-name="그룹 1292">
            <g id="그룹_1291" data-name="그룹 1291">
              <path id="패스_554" data-name="패스 554" d="M255.446,143.248c-.252.087-7.6,1.1-10.1,4.674s-2.079,19-2.079,19,4.4.389,4.395.051c-.013-1.146.57-.642,2.244-14.961,2.582-.873,7.476-1.88,7.465-2.947C257.367,148.808,255.446,143.248,255.446,143.248Z" fill="#253e56"/>
            </g>
          </g>
          <g id="그룹_1294" data-name="그룹 1294">
            <g id="그룹_1293" data-name="그룹 1293">
              <path id="패스_555" data-name="패스 555" d="M261.707,143.406s1.321,4.75-.445,5.784a27.325,27.325,0,0,1-5.967,1.889l1.1,15.694s-4.52.448-5.147-.026c-1.064-.8-2.478-16.389-2.478-16.389s-.911-4.239,5.422-5.406S261.707,143.406,261.707,143.406Z" fill="#1e5062"/>
            </g>
          </g>
        </g>
        <g id="그룹_1328" data-name="그룹 1328">
          <g id="그룹_1296" data-name="그룹 1296">
            <path id="패스_556" data-name="패스 556" d="M263.981,144.616c-.3.948-.9,3.519-.565,4.5.631,1.825-.6,4.148-.526,3.132.026-.373.116-1.54.116-1.54s.063.866-.18.877c-.283.014-.569-1.245-.569-1.245l-.42-5.6C262.366,145.011,263.44,144.368,263.981,144.616Z" fill="#e5a189"/>
          </g>
          <g id="그룹_1327" data-name="그룹 1327">
            <g id="그룹_1319" data-name="그룹 1319">
              <g id="그룹_1317" data-name="그룹 1317">
                <g id="그룹_1316" data-name="그룹 1316">
                  <g id="그룹_1315" data-name="그룹 1315">
                    <g id="그룹_1308" data-name="그룹 1308">
                      <g id="그룹_1304" data-name="그룹 1304">
                        <g id="그룹_1303" data-name="그룹 1303">
                          <g id="그룹_1297" data-name="그룹 1297">
                            <path id="패스_557" data-name="패스 557" d="M256.54,122.486a2.36,2.36,0,0,1,1.949-2.219,1.906,1.906,0,0,1,1.033.106c.83.337,1.194,1.525,1.354,2.437l.008,1.157.441,4.744c-.5,3-2.832,3.06-3.1-.566l-.135-2.377C256.649,125.468,256.475,123.723,256.54,122.486Z" fill="#e5a189"/>
                          </g>
                          <g id="그룹_1298" data-name="그룹 1298">
                            <path id="패스_558" data-name="패스 558" d="M258.086,125.768a1.886,1.886,0,0,0,1.546-.479,3.11,3.11,0,0,1-1.485,1.536Z" fill="#e67f7e"/>
                          </g>
                          <g id="그룹_1302" data-name="그룹 1302">
                            <g id="그룹_1299" data-name="그룹 1299">
                              <path id="패스_559" data-name="패스 559" d="M260.666,122.5c.01.238.164.424.344.417a.389.389,0,0,0,.308-.443c-.01-.238-.164-.424-.344-.417A.389.389,0,0,0,260.666,122.5Z" fill="#ce9a95"/>
                            </g>
                            <g id="그룹_1301" data-name="그룹 1301">
                              <g id="그룹_1300" data-name="그룹 1300">
                                <path id="패스_560" data-name="패스 560" d="M260.981,122.492a.057.057,0,1,0,.113,0,.057.057,0,0,0-.113,0Z" fill="#b57b79"/>
                              </g>
                            </g>
                          </g>
                        </g>
                      </g>
                      <g id="그룹_1305" data-name="그룹 1305">
                        <path id="패스_561" data-name="패스 561" d="M258.086,125.768a2.075,2.075,0,0,0,.789-.159,1.855,1.855,0,0,0,.275-.11,1.941,1.941,0,0,0,.239-.108c.141-.065.243-.1.243-.1s-.073.075-.195.18a1.085,1.085,0,0,1-.224.155,1.967,1.967,0,0,1-.284.137,1.387,1.387,0,0,1-.585.082A.779.779,0,0,1,258.086,125.768Z" fill="#253e56"/>
                      </g>
                      <g id="그룹_1307" data-name="그룹 1307">
                        <g id="그룹_1306" data-name="그룹 1306">
                          <path id="패스_562" data-name="패스 562" d="M260.666,122.5c.01.238.164.424.344.417a.389.389,0,0,0,.308-.443c-.01-.238-.164-.424-.344-.417A.389.389,0,0,0,260.666,122.5Z" fill="#e5a189"/>
                        </g>
                      </g>
                    </g>
                    <g id="그룹_1310" data-name="그룹 1310">
                      <g id="그룹_1309" data-name="그룹 1309">
                        <path id="패스_563" data-name="패스 563" d="M260.943,122.693h-.017a.064.064,0,0,1,.005-.128h.013a.128.128,0,0,0,.081-.023s.011-.013.006-.043a.071.071,0,0,0-.028-.048.176.176,0,0,0-.112-.011.064.064,0,0,1-.077-.048.065.065,0,0,1,.048-.076.3.3,0,0,1,.21.028.2.2,0,0,1,.085.132.17.17,0,0,1-.036.151A.245.245,0,0,1,260.943,122.693Z" fill="#a94931"/>
                      </g>
                    </g>
                    <g id="그룹_1311" data-name="그룹 1311">
                      <path id="패스_564" data-name="패스 564" d="M258.792,123.655a.822.822,0,0,1-.73.654,1.036,1.036,0,0,1-.659-.244,1.231,1.231,0,0,1-.162-.158l-.058-.062s.111.059.272.138a1.811,1.811,0,0,0,.278.11.885.885,0,0,0,.32.043.853.853,0,0,0,.539-.256A1.356,1.356,0,0,0,258.792,123.655Z" fill="#253e56"/>
                    </g>
                    <g id="그룹_1312" data-name="그룹 1312">
                      <path id="패스_565" data-name="패스 565" d="M257.963,121.78a3.939,3.939,0,0,1-.514,1.042l-.011-.085a3.747,3.747,0,0,1,.286.392,3.629,3.629,0,0,1-.387-.292l-.038-.032.026-.054A3.985,3.985,0,0,1,257.963,121.78Z" fill="#253e56"/>
                    </g>
                    <g id="그룹_1313" data-name="그룹 1313">
                      <path id="패스_566" data-name="패스 566" d="M258.663,122.18a2.2,2.2,0,0,0-.008.236.928.928,0,0,0,.022.229.331.331,0,0,0,.043.105c.014.03.056.049.058.055.064.014.057.014.1,0a.312.312,0,0,0,.1-.051.955.955,0,0,0,.162-.162c.089-.107.142-.185.142-.185a.055.055,0,0,1,.077-.015.057.057,0,0,1,.02.066,1.142,1.142,0,0,1-.123.222,1.039,1.039,0,0,1-.181.2.475.475,0,0,1-.145.085.276.276,0,0,1-.343-.136.486.486,0,0,1-.053-.157,1.118,1.118,0,0,1-.008-.267,1.314,1.314,0,0,1,.051-.247.047.047,0,0,1,.091.018Z" fill="#253e56"/>
                    </g>
                    <g id="그룹_1314" data-name="그룹 1314">
                      <path id="패스_567" data-name="패스 567" d="M256.943,121.916s-.01.089-.013.221a1.087,1.087,0,0,0,.006.219.456.456,0,0,0,.028.106c.01.027.044.045.033.042.026.006.045.006.038,0a.182.182,0,0,0,.033-.013.4.4,0,0,0,.084-.068,1.177,1.177,0,0,0,.135-.172l.122-.185a.055.055,0,0,1,.076-.017.056.056,0,0,1,.023.064,1.286,1.286,0,0,1-.1.215,1.362,1.362,0,0,1-.142.2.561.561,0,0,1-.116.1.257.257,0,0,1-.091.039.2.2,0,0,1-.1,0,.237.237,0,0,1-.149-.148.523.523,0,0,1-.03-.152,1.265,1.265,0,0,1,.011-.247,1.431,1.431,0,0,1,.055-.229.046.046,0,0,1,.059-.029A.048.048,0,0,1,256.943,121.916Z" fill="#253e56"/>
                    </g>
                  </g>
                </g>
              </g>
              <g id="그룹_1318" data-name="그룹 1318">
                <path id="패스_568" data-name="패스 568" d="M260.749,122.154s-.394.353-1.094-1.34a1.949,1.949,0,0,1-2.476.151s-.1-1.062,1.8-1.126S260.749,122.154,260.749,122.154Z" fill="#1c141e"/>
              </g>
            </g>
            <g id="그룹_1322" data-name="그룹 1322">
              <g id="그룹_1320" data-name="그룹 1320">
                <path id="패스_569" data-name="패스 569" d="M236.224,127.81a5.27,5.27,0,0,1-1.066-.829c-.142-.223,1.163.291,1.163.291-1.206-.987-1.193-.9-1.206-.987-.031-.215,1.511.683,1.511.683s-.944-.7-.909-.906,1.972.916,1.972.916a1.226,1.226,0,0,1,.052-.91.274.274,0,0,1,.305-.1c-.1.613.871,1.771.871,1.771s1.009.616,2.251,1.36c-.234.693-.46,1.389-.695,2.082-.577-.4-1.184-.857-1.823-1.373h0l-.714-.633s-2.476-1.4-2.6-1.575S236.224,127.81,236.224,127.81Z" fill="#e5a189"/>
              </g>
              <g id="그룹_1321" data-name="그룹 1321">
                <path id="패스_570" data-name="패스 570" d="M238.077,129.3q.437-.772.877-1.539l-.037-.023s-.974-1.158-.871-1.771a.274.274,0,0,0-.305.1,1.226,1.226,0,0,0-.052.91,12.372,12.372,0,0,0-.191,1.948l.438.249Z" fill="#e5a189"/>
              </g>
            </g>
            <g id="그룹_1323" data-name="그룹 1323">
              <path id="패스_571" data-name="패스 571" d="M240.824,128.788c1.289.462,4.436,2.859,8.731,1.374a87.157,87.157,0,0,1,8.486-2.534,2.915,2.915,0,0,0,3.143-.045s1.284-.858,2.377,6.417c1.21,8.055.825,11.6-.794,13.387-.2.218-2.972-1.194-5.011-2.588-1.4-.957-3.577.088-5.205-.883-1.793-1.07-.218-8.317-.218-8.317s-6.076,1.538-12.762-4.189C239.571,131.41,240.18,128.557,240.824,128.788Z" fill="#ff3478"/>
            </g>
            <g id="그룹_1324" data-name="그룹 1324">
              <path id="패스_572" data-name="패스 572" d="M261.141,127.547s4.831-1.932,4.892,11.128c.009,1.871-.385,7.622-1.731,8.825-.591.529-2.4.4-2.4.4Z" fill="#ff3478"/>
            </g>
            <g id="그룹_1325" data-name="그룹 1325">
              <path id="패스_573" data-name="패스 573" d="M261.9,148.09h-.01a.19.19,0,0,1-.179-.2c0-.063.319-6.327.3-8.4a.189.189,0,0,1,.187-.191.184.184,0,0,1,.191.187c.022,2.086-.294,8.362-.3,8.426A.189.189,0,0,1,261.9,148.09Z" fill="#f4f4e8"/>
            </g>
            <g id="그룹_1326" data-name="그룹 1326">
              <path id="패스_574" data-name="패스 574" d="M259.555,128.319a2.39,2.39,0,0,1-1.648-.558.189.189,0,0,1,.267-.268,2.122,2.122,0,0,0,1.645.436c1.054-.092,1.313-.553,1.315-.558a.192.192,0,0,1,.254-.081.189.189,0,0,1,.085.25c-.013.026-.332.653-1.621.766C259.749,128.315,259.649,128.319,259.555,128.319Z" fill="#f4f4e8"/>
            </g>
          </g>
        </g>
      </g>
      <g id="그룹_1330" data-name="그룹 1330">
        <path id="패스_575" data-name="패스 575" d="M255.149,166.9q-.111-.813-.227-1.638a81.93,81.93,0,0,1-1.086-13.334,3.042,3.042,0,0,1,2.3-3.2,8.41,8.41,0,0,1,1.629-.171c1.545-.07,3.142-.142,3.132-1.783l.277,0c.012,1.907-1.8,1.989-3.4,2.061a8.208,8.208,0,0,0-1.578.165,2.724,2.724,0,0,0-2.084,2.939A81.618,81.618,0,0,0,255.2,165.22q.115.825.227,1.639Z" fill="#fbf6ef"/>
      </g>
    </g>
    <g id="그룹_1364" data-name="그룹 1364" transform="translate(468 3148.28)">
      <g id="그룹_1341" data-name="그룹 1341">
        <g id="그룹_1337" data-name="그룹 1337">
          <g id="그룹_1335" data-name="그룹 1335">
            <g id="그룹_1332" data-name="그룹 1332">
              <path id="패스_576" data-name="패스 576" d="M210.505,171.092l-5.77.947.306,2.3,6.411-.5Z" fill="#002c79"/>
            </g>
            <g id="그룹_1333" data-name="그룹 1333">
              <path id="패스_577" data-name="패스 577" d="M205.281,171.863l.488,2.478-3.267.42c-.664.063-2-.245-2.058-.927h0c-.053-.634,1.12-1.4,1.731-1.517Z" fill="#002c79"/>
            </g>
            <g id="그룹_1334" data-name="그룹 1334">
              <path id="패스_578" data-name="패스 578" d="M204.855,171.924l1.643-.215.37,2.484-1.57.208Z" fill="#002c79"/>
            </g>
          </g>
          <g id="그룹_1336" data-name="그룹 1336">
            <path id="패스_579" data-name="패스 579" d="M209.838,170.793s12.817-4.281,16.259-2.548,1.131,5.724-11.937,5.991l-3.574.079Z" fill="#002c79"/>
          </g>
        </g>
        <g id="그룹_1339" data-name="그룹 1339">
          <g id="그룹_1338" data-name="그룹 1338">
            <path id="패스_580" data-name="패스 580" d="M216.454,171.642s-12.733-4.539-16.207-2.876-1.241,5.7,11.82,6.231l3.571.151Z" fill="#002c79"/>
          </g>
        </g>
        <g id="그룹_1340" data-name="그룹 1340">
          <path id="패스_581" data-name="패스 581" d="M221.177,168.222s1.582,4.275.99,5.546a4.466,4.466,0,0,1-1.72,1.554,12.955,12.955,0,0,1-10.059,1.416c-2.03-.535-4.049-1.308-4.576-2.341-.623-1.22,1.475-5.3,1.475-5.3Z" fill="#002c79"/>
        </g>
      </g>
      <g id="그룹_1363" data-name="그룹 1363">
        <g id="그룹_1361" data-name="그룹 1361">
          <g id="그룹_1356" data-name="그룹 1356">
            <g id="그룹_1355" data-name="그룹 1355">
              <g id="그룹_1353" data-name="그룹 1353">
                <g id="그룹_1352" data-name="그룹 1352">
                  <g id="그룹_1351" data-name="그룹 1351">
                    <g id="그룹_1348" data-name="그룹 1348">
                      <g id="그룹_1347" data-name="그룹 1347">
                        <g id="그룹_1342" data-name="그룹 1342">
                          <path id="패스_582" data-name="패스 582" d="M217.455,148.644a2.5,2.5,0,0,0-2.485-1.924,1.96,1.96,0,0,0-1.043.338c-.786.539-.908,1.876-.878,2.878l.238,1.227.557,5.121c1.157,3.069,3.576,2.622,3.083-1.278l-.367-2.548C217.978,151.826,217.785,149.94,217.455,148.644Z" fill="#e5a189"/>
                        </g>
                        <g id="그룹_1346" data-name="그룹 1346">
                          <g id="그룹_1343" data-name="그룹 1343">
                            <path id="패스_583" data-name="패스 583" d="M213.2,149.567a.423.423,0,0,1-.266.516c-.187.032-.372-.148-.413-.4a.424.424,0,0,1,.266-.517C212.975,149.133,213.16,149.313,213.2,149.567Z" fill="#cc9893"/>
                          </g>
                          <g id="그룹_1345" data-name="그룹 1345">
                            <g id="그룹_1344" data-name="그룹 1344">
                              <path id="패스_584" data-name="패스 584" d="M212.873,149.622a.061.061,0,0,1-.049.07.059.059,0,0,1-.069-.05.061.061,0,0,1,.049-.07A.06.06,0,0,1,212.873,149.622Z" fill="#e5a189"/>
                            </g>
                          </g>
                        </g>
                      </g>
                    </g>
                    <g id="그룹_1350" data-name="그룹 1350">
                      <g id="그룹_1349" data-name="그룹 1349">
                        <path id="패스_585" data-name="패스 585" d="M213.2,149.567a.423.423,0,0,1-.266.516c-.187.032-.372-.148-.413-.4a.424.424,0,0,1,.266-.517C212.975,149.133,213.16,149.313,213.2,149.567Z" fill="#e5a189"/>
                      </g>
                    </g>
                  </g>
                </g>
              </g>
            </g>
          </g>
          <g id="그룹_1360" data-name="그룹 1360">
            <g id="그룹_1357" data-name="그룹 1357">
              <path id="패스_586" data-name="패스 586" d="M196.077,148.561h0a29.507,29.507,0,0,0,2.443,2.392,1.655,1.655,0,0,0,1.783-1.374c-1.7-1.37-3.695-3.037-3.7-3.037s-.789-1.282-.609-1.877a.26.26,0,0,0-.307.058,1.253,1.253,0,0,0-.171.9s-1.726-1.38-1.788-1.177.761,1.023.761,1.023-1.374-1.1-1.372-.883c0,.084,0,0,1.036,1.144,0,0-1.195-.688-1.087-.447a5.244,5.244,0,0,0,.923.968s-.93-.52-.833-.33,2.309,1.918,2.309,1.918Z" fill="#f59e9d"/>
            </g>
            <g id="그룹_1358" data-name="그룹 1358">
              <path id="패스_587" data-name="패스 587" d="M234.07,159.475h0a29,29,0,0,1-3.049,1.488,1.687,1.687,0,0,1-1.275-1.877c2.035-.755,4.435-1.7,4.435-1.7s1.14-.964,1.15-1.587a.266.266,0,0,1,.275.153,1.258,1.258,0,0,1-.111.908s2.06-.758,2.056-.545-1.034.728-1.034.728,1.641-.606,1.573-.4c-.027.079,0,0-1.333.754,0,0,1.344-.27,1.169-.076a5.131,5.131,0,0,1-1.172.624s1.042-.2.891-.046-2.776,1.081-2.776,1.081Z" fill="#f59e9d"/>
            </g>
            <g id="그룹_1359" data-name="그룹 1359">
              <path id="패스_588" data-name="패스 588" d="M197.047,150c-.222-.612,1.283-2.257,1.283-2.257a33.923,33.923,0,0,0,10.086,6.439c1.98.86,3.082-.31,5.182-.052a4.554,4.554,0,0,0,1.638.129c1.358-.161,1.485-.663,1.485-.663,3.226-.936,5.694,3,8.67,3.858,4.234,1.22,7.349-.263,7.879.115s.8,1.91.8,1.91c-6.706,6.577-14.383.549-14.383.549s3.144,7.242,1.828,9.147c-1.23,1.781-2.98.416-8.308,1.9-4.1,1.141-5.593-.408-5.92-1.969-.256-1.223,1.445-6.4,1.485-8.637C208.772,160.464,200.473,159.436,197.047,150Z" fill="#f7d8c1"/>
            </g>
          </g>
        </g>
        <g id="그룹_1362" data-name="그룹 1362">
          <path id="패스_589" data-name="패스 589" d="M215.73,145.549c-2.222-.3-3.653,1.943-4.339,2.969a9.847,9.847,0,0,1-4.126,3.283,5.4,5.4,0,0,0-3.118,5.388c.211,3.957,3.728,5.116,5.972,5.19,3.377.111,8.108-1.4,7.912-6.622a49.6,49.6,0,0,1,.2-6.552C218.391,147.565,217.983,145.849,215.73,145.549Z" fill="#253e56"/>
        </g>
      </g>
    </g>
    <circle id="타원_6" data-name="타원 6" cx="3.205" cy="3.205" r="3.205" transform="matrix(0.231, -0.973, 0.973, 0.231, 692.285, 3260.567)" fill="#ff3478"/>
    <circle id="타원_121" data-name="타원 121" cx="1.224" cy="1.224" r="1.224" transform="matrix(0.231, -0.973, 0.973, 0.231, 688.898, 3268.438)" fill="#ffc7da"/>
  </g>
</svg>
